# Blender v3.1.2 OBJ File: 'playertest2.blend'
# www.blender.org
mtllib playertest2.mtl
o Cube
v 0.255403 1.221480 -0.182232
v 0.255403 0.366675 -0.182232
v 0.255403 1.221480 0.182232
v 0.255403 0.366675 0.182232
v -0.255403 1.221480 -0.182232
v -0.255403 0.366675 -0.182232
v -0.255403 1.221480 0.182232
v -0.255403 0.366675 0.182232
v -0.134178 1.292105 0.134178
v -0.134178 1.560462 0.134178
v -0.134178 1.292105 -0.134178
v -0.134178 1.560462 -0.134178
v 0.134178 1.292105 0.134178
v 0.134178 1.560462 0.134178
v 0.134178 1.292105 -0.134178
v 0.134178 1.560462 -0.134178
v -0.153750 1.272533 -0.079608
v -0.163582 1.262702 -0.000000
v -0.153750 1.272533 0.079608
v -0.153750 1.346676 0.153750
v -0.163582 1.426284 0.163582
v -0.153750 1.505892 0.153750
v -0.153750 1.580034 0.079608
v -0.163582 1.589865 0.000000
v -0.153750 1.580034 -0.079608
v -0.153750 1.505892 -0.153750
v -0.163582 1.426284 -0.163582
v -0.153750 1.346676 -0.153750
v 0.079608 1.272533 -0.153750
v 0.000000 1.262702 -0.163582
v -0.079608 1.272533 -0.153750
v -0.079608 1.580034 -0.153750
v -0.000000 1.589865 -0.163582
v 0.079608 1.580034 -0.153750
v 0.153750 1.505892 -0.153750
v 0.163582 1.426284 -0.163582
v 0.153750 1.346676 -0.153750
v 0.153750 1.272533 0.079608
v 0.163582 1.262702 0.000000
v 0.153750 1.272533 -0.079608
v 0.153750 1.580034 -0.079608
v 0.163582 1.589865 0.000000
v 0.153750 1.580034 0.079608
v 0.153750 1.505892 0.153750
v 0.163582 1.426284 0.163582
v 0.153750 1.346676 0.153750
v -0.079608 1.272533 0.153750
v -0.000000 1.262702 0.163582
v 0.079608 1.272533 0.153750
v 0.079608 1.580034 0.153750
v -0.000000 1.589865 0.163582
v -0.079608 1.580034 0.153750
v -0.195629 1.341441 0.084843
v -0.209809 1.426284 0.089400
v -0.195629 1.511127 0.084843
v -0.209809 1.336883 -0.000000
v -0.225287 1.426284 0.000000
v -0.209809 1.515684 0.000000
v -0.195629 1.341441 -0.084843
v -0.209809 1.426284 -0.089400
v -0.195629 1.511127 -0.084843
v -0.084843 1.341441 -0.195629
v -0.089400 1.426284 -0.209809
v -0.084843 1.511127 -0.195629
v 0.000000 1.336883 -0.209809
v 0.000000 1.426284 -0.225287
v -0.000000 1.515684 -0.209809
v 0.084843 1.341441 -0.195629
v 0.089400 1.426284 -0.209809
v 0.084843 1.511127 -0.195629
v 0.195629 1.341441 -0.084843
v 0.209809 1.426284 -0.089400
v 0.195629 1.511127 -0.084843
v 0.209809 1.336883 0.000000
v 0.225287 1.426284 0.000000
v 0.209809 1.515684 -0.000000
v 0.195629 1.341441 0.084843
v 0.209809 1.426284 0.089400
v 0.195629 1.511127 0.084843
v 0.084843 1.341441 0.195629
v 0.089400 1.426284 0.209809
v 0.084843 1.511127 0.195629
v -0.000000 1.336883 0.209809
v -0.000000 1.426284 0.225287
v 0.000000 1.515684 0.209809
v -0.084843 1.341441 0.195629
v -0.089400 1.426284 0.209809
v -0.084843 1.511127 0.195629
v -0.084843 1.230654 -0.084843
v -0.000000 1.216475 -0.089400
v 0.084843 1.230654 -0.084843
v -0.089400 1.216475 0.000000
v 0.000000 1.200997 0.000000
v 0.089400 1.216475 -0.000000
v -0.084843 1.230654 0.084843
v 0.000000 1.216475 0.089400
v 0.084843 1.230654 0.084843
v 0.084843 1.621913 -0.084843
v 0.000000 1.636093 -0.089400
v -0.084843 1.621913 -0.084843
v 0.089400 1.636093 0.000000
v -0.000000 1.651571 0.000000
v -0.089400 1.636093 -0.000000
v 0.084843 1.621913 0.084843
v -0.000000 1.636093 0.089400
v -0.084843 1.621913 0.084843
v -0.558722 0.634921 0.062058
v -0.404307 1.207293 0.062058
v -0.558722 0.634921 -0.056598
v -0.404307 1.207293 -0.056598
v -0.411058 0.595085 0.062058
v -0.256644 1.167456 0.062058
v -0.411058 0.595085 -0.056598
v -0.256644 1.167456 -0.056598
v 0.409623 0.595085 0.061949
v 0.255209 1.167456 0.061949
v 0.409623 0.595085 -0.056488
v 0.255209 1.167456 -0.056488
v 0.557286 0.634922 0.061949
v 0.402872 1.207293 0.061949
v 0.557286 0.634922 -0.056488
v 0.402872 1.207293 -0.056488
v -0.041452 0.371888 -0.083774
v -0.041452 -0.022232 -0.083774
v -0.041452 0.371888 0.083774
v -0.041452 -0.022232 0.083774
v -0.171483 0.371888 -0.083774
v -0.171483 -0.022232 -0.083774
v -0.171483 0.371888 0.083774
v -0.171483 -0.022232 0.083774
v 0.185549 0.371888 -0.083774
v 0.185549 -0.022232 -0.083774
v 0.185549 0.371888 0.083774
v 0.185549 -0.022232 0.083774
v 0.055518 0.371888 -0.083774
v 0.055518 -0.022232 -0.083774
v 0.055518 0.371888 0.083774
v 0.055518 -0.022232 0.083774
vt 0.666667 0.000000
vt 1.000000 0.000000
vt 1.000000 0.333333
vt 0.666667 0.333333
vt 0.333333 0.000000
vt 0.333333 0.333333
vt 0.000000 0.333333
vt 0.000000 0.000000
vt 0.333333 0.333333
vt 0.333333 0.666667
vt 0.000000 0.666667
vt 0.000000 0.333333
vt 0.333333 0.000000
vt 0.666667 0.000000
vt 0.666667 0.333333
vt 0.666667 0.333333
vt 0.666667 0.666667
vt 0.333333 0.666667
vt 0.333333 0.333333
vt 0.333333 0.666667
vt 0.333333 1.000000
vt 0.000000 1.000000
vt 0.000000 0.666667
vt 0.000000 0.000000
vt 0.000000 0.000000
vt 0.000000 0.000000
vt 0.000000 0.000000
vt 0.000000 0.000000
vt 0.000000 0.000000
vt 0.000000 0.000000
vt 0.000000 0.000000
vt 0.000000 0.000000
vt 0.000000 0.000000
vt 0.000000 0.000000
vt 0.000000 0.000000
vt 0.000000 0.000000
vt 0.000000 0.000000
vt 0.000000 0.000000
vt 0.000000 0.000000
vt 0.000000 0.000000
vt 0.000000 0.000000
vt 0.000000 0.000000
vt 0.000000 0.000000
vt 0.000000 0.000000
vt 0.000000 0.000000
vt 0.000000 0.000000
vt 0.000000 0.000000
vt 0.000000 0.000000
vt 0.000000 0.000000
vt 0.000000 0.000000
vt 0.000000 0.000000
vt 0.000000 0.000000
vt 0.000000 0.000000
vt 0.000000 0.000000
vt 0.000000 0.000000
vt 0.000000 0.000000
vt 0.000000 0.000000
vt 0.000000 0.000000
vt 0.000000 0.000000
vt 0.000000 0.000000
vt 0.000000 0.000000
vt 0.000000 0.000000
vt 0.000000 0.000000
vt 0.000000 0.000000
vt 0.000000 0.000000
vt 0.000000 0.000000
vt 0.000000 0.000000
vt 0.000000 0.000000
vt 0.000000 0.000000
vt 0.000000 0.000000
vt 0.000000 0.000000
vt 0.000000 0.000000
vt 0.000000 0.000000
vt 0.000000 0.000000
vt 0.000000 0.000000
vt 0.000000 0.000000
vt 0.000000 0.000000
vt 0.000000 0.000000
vt 0.000000 0.000000
vt 0.000000 0.000000
vt 0.000000 0.000000
vt 0.000000 0.000000
vt 0.000000 0.000000
vt 0.000000 0.000000
vt 0.000000 0.000000
vt 0.000000 0.000000
vt 0.000000 0.000000
vt 0.000000 0.000000
vt 0.000000 0.000000
vt 0.000000 0.000000
vt 0.000000 0.000000
vt 0.000000 0.000000
vt 0.000000 0.000000
vt 0.000000 0.000000
vt 0.000000 0.000000
vt 0.000000 0.000000
vt 0.000000 0.000000
vt 0.000000 0.000000
vt 0.000000 0.000000
vt 0.000000 0.000000
vt 0.000000 0.000000
vt 0.000000 0.000000
vt 0.000000 0.000000
vt 0.000000 0.000000
vt 0.000000 0.000000
vt 0.000000 0.000000
vt 0.000000 0.000000
vt 0.000000 0.000000
vt 0.000000 0.000000
vt 0.000000 0.000000
vt 0.000000 0.000000
vt 0.000000 0.000000
vt 0.000000 0.000000
vt 0.000000 0.000000
vt 0.000000 0.000000
vt 0.000000 0.000000
vt 0.000000 0.000000
vt 0.000000 0.000000
vt 0.000000 0.000000
vt 0.000000 0.000000
vt 0.000000 0.000000
vt 0.000000 0.000000
vt 0.000000 0.000000
vt 0.000000 0.000000
vt 0.000000 0.000000
vt 0.000000 0.000000
vt 0.000000 0.000000
vt 0.000000 0.000000
vt 0.000000 0.000000
vt 0.000000 0.000000
vt 0.000000 0.000000
vt 0.000000 0.000000
vt 0.000000 0.000000
vt 0.000000 0.000000
vt 0.000000 0.000000
vt 0.000000 0.000000
vt 0.000000 0.000000
vt 0.000000 0.000000
vt 0.000000 0.000000
vt 0.000000 0.000000
vt 0.000000 0.000000
vt 0.000000 0.000000
vt 0.000000 0.000000
vt 0.000000 0.000000
vt 0.000000 0.000000
vt 0.000000 0.000000
vt 0.000000 0.000000
vt 0.000000 0.000000
vt 0.000000 0.000000
vt 0.000000 0.000000
vt 0.000000 0.000000
vt 0.000000 0.000000
vt 0.000000 0.000000
vn 0.0000 1.0000 0.0000
vn 0.0000 0.0000 1.0000
vn -1.0000 0.0000 0.0000
vn 0.0000 -1.0000 0.0000
vn 1.0000 0.0000 0.0000
vn 0.0000 0.0000 -1.0000
vn -0.9708 -0.1697 0.1697
vn -0.9708 0.1697 0.1697
vn -0.9708 -0.1697 -0.1697
vn -0.9708 0.1697 -0.1697
vn -0.7504 -0.4674 0.4674
vn -0.8367 -0.1678 0.5213
vn -0.8367 0.1678 0.5213
vn -0.7504 0.4674 0.4674
vn -0.8367 0.5213 0.1678
vn -0.8367 0.5213 -0.1678
vn -0.7504 0.4674 -0.4674
vn -0.8367 0.1678 -0.5213
vn -0.8367 -0.1678 -0.5213
vn -0.7504 -0.4674 -0.4674
vn -0.8367 -0.5213 -0.1678
vn -0.8367 -0.5213 0.1678
vn -0.1697 -0.1697 -0.9708
vn -0.1697 0.1697 -0.9708
vn 0.1697 -0.1697 -0.9708
vn 0.1697 0.1697 -0.9708
vn -0.4674 -0.4674 -0.7504
vn -0.5213 -0.1678 -0.8367
vn -0.5213 0.1678 -0.8367
vn -0.4674 0.4674 -0.7504
vn -0.1678 0.5213 -0.8367
vn 0.1678 0.5213 -0.8367
vn 0.4674 0.4674 -0.7504
vn 0.5213 0.1678 -0.8367
vn 0.5213 -0.1678 -0.8367
vn 0.4674 -0.4674 -0.7504
vn 0.1678 -0.5213 -0.8367
vn -0.1678 -0.5213 -0.8367
vn 0.9708 -0.1697 -0.1697
vn 0.9708 0.1697 -0.1697
vn 0.9708 -0.1697 0.1697
vn 0.9708 0.1697 0.1697
vn 0.7504 -0.4674 -0.4674
vn 0.8367 -0.1678 -0.5213
vn 0.8367 0.1678 -0.5213
vn 0.7504 0.4674 -0.4674
vn 0.8367 0.5213 -0.1678
vn 0.8367 0.5213 0.1678
vn 0.7504 0.4674 0.4674
vn 0.8367 0.1678 0.5213
vn 0.8367 -0.1678 0.5213
vn 0.7504 -0.4674 0.4674
vn 0.8367 -0.5213 0.1678
vn 0.8367 -0.5213 -0.1678
vn 0.1697 -0.1697 0.9708
vn 0.1697 0.1697 0.9708
vn -0.1697 -0.1697 0.9708
vn -0.1697 0.1697 0.9708
vn 0.4674 -0.4674 0.7504
vn 0.5213 -0.1678 0.8367
vn 0.5213 0.1678 0.8367
vn 0.4674 0.4674 0.7504
vn 0.1678 0.5213 0.8367
vn -0.1678 0.5213 0.8367
vn -0.4674 0.4674 0.7504
vn -0.5213 0.1678 0.8367
vn -0.5213 -0.1678 0.8367
vn -0.4674 -0.4674 0.7504
vn -0.1678 -0.5213 0.8367
vn 0.1678 -0.5213 0.8367
vn -0.1697 -0.9708 -0.1697
vn 0.1697 -0.9708 -0.1697
vn -0.1697 -0.9708 0.1697
vn 0.1697 -0.9708 0.1697
vn -0.4674 -0.7504 -0.4674
vn -0.1678 -0.8367 -0.5213
vn 0.1678 -0.8367 -0.5213
vn 0.4674 -0.7504 -0.4674
vn 0.5213 -0.8367 -0.1678
vn 0.5213 -0.8367 0.1678
vn 0.4674 -0.7504 0.4674
vn 0.1678 -0.8367 0.5213
vn -0.1678 -0.8367 0.5213
vn -0.4674 -0.7504 0.4674
vn -0.5213 -0.8367 0.1678
vn -0.5213 -0.8367 -0.1678
vn 0.1697 0.9708 -0.1697
vn -0.1697 0.9708 -0.1697
vn 0.1697 0.9708 0.1697
vn -0.1697 0.9708 0.1697
vn 0.4674 0.7504 -0.4674
vn 0.1678 0.8367 -0.5213
vn -0.1678 0.8367 -0.5213
vn -0.4674 0.7504 -0.4674
vn -0.5213 0.8367 -0.1678
vn -0.5213 0.8367 0.1678
vn -0.4674 0.7504 0.4674
vn -0.1678 0.8367 0.5213
vn 0.1678 0.8367 0.5213
vn 0.4674 0.7504 0.4674
vn 0.5213 0.8367 0.1678
vn 0.5213 0.8367 -0.1678
vn -0.9655 0.2605 0.0000
vn 0.9655 -0.2605 0.0000
vn -0.2605 -0.9655 0.0000
vn 0.2605 0.9655 0.0000
vn -0.9655 -0.2605 0.0000
vn 0.9655 0.2605 0.0000
vn 0.2605 -0.9655 0.0000
vn -0.2605 0.9655 0.0000
usemtl Material
s off
f 1/1/1 5/2/1 7/3/1 3/4/1
f 4/5/2 3/6/2 7/7/2 8/8/2
f 8/9/3 7/10/3 5/11/3 6/12/3
f 6/13/4 2/14/4 4/15/4 8/9/4
f 2/16/5 1/17/5 3/18/5 4/19/5
f 6/20/6 5/21/6 1/22/6 2/23/6
f 53/24/7 54/25/7 57/26/7 56/27/7
f 54/25/8 55/28/8 58/29/8 57/26/8
f 56/27/9 57/26/9 60/30/9 59/31/9
f 57/26/10 58/29/10 61/32/10 60/30/10
f 9/33/11 20/34/11 53/24/11 19/35/11
f 20/34/12 21/36/12 54/25/12 53/24/12
f 21/36/13 22/37/13 55/28/13 54/25/13
f 22/37/14 10/38/14 23/39/14 55/28/14
f 55/28/15 23/39/15 24/40/15 58/29/15
f 58/29/16 24/40/16 25/41/16 61/32/16
f 61/32/17 25/41/17 12/42/17 26/43/17
f 60/30/18 61/32/18 26/43/18 27/44/18
f 59/31/19 60/30/19 27/44/19 28/45/19
f 17/46/20 59/31/20 28/45/20 11/47/20
f 18/48/21 56/27/21 59/31/21 17/46/21
f 19/35/22 53/24/22 56/27/22 18/48/22
f 62/49/23 63/50/23 66/51/23 65/52/23
f 63/50/24 64/53/24 67/54/24 66/51/24
f 65/52/25 66/51/25 69/55/25 68/56/25
f 66/51/26 67/54/26 70/57/26 69/55/26
f 11/47/27 28/45/27 62/49/27 31/58/27
f 28/45/28 27/44/28 63/50/28 62/49/28
f 27/44/29 26/43/29 64/53/29 63/50/29
f 26/43/30 12/42/30 32/59/30 64/53/30
f 64/53/31 32/59/31 33/60/31 67/54/31
f 67/54/32 33/60/32 34/61/32 70/57/32
f 70/57/33 34/61/33 16/62/33 35/63/33
f 69/55/34 70/57/34 35/63/34 36/64/34
f 68/56/35 69/55/35 36/64/35 37/65/35
f 29/66/36 68/56/36 37/65/36 15/67/36
f 30/68/37 65/52/37 68/56/37 29/66/37
f 31/58/38 62/49/38 65/52/38 30/68/38
f 71/69/39 72/70/39 75/71/39 74/72/39
f 72/70/40 73/73/40 76/74/40 75/71/40
f 74/72/41 75/71/41 78/75/41 77/76/41
f 75/71/42 76/74/42 79/77/42 78/75/42
f 15/67/43 37/65/43 71/69/43 40/78/43
f 37/65/44 36/64/44 72/70/44 71/69/44
f 36/64/45 35/63/45 73/73/45 72/70/45
f 35/63/46 16/62/46 41/79/46 73/73/46
f 73/73/47 41/79/47 42/80/47 76/74/47
f 76/74/48 42/80/48 43/81/48 79/77/48
f 79/77/49 43/81/49 14/82/49 44/83/49
f 78/75/50 79/77/50 44/83/50 45/84/50
f 77/76/51 78/75/51 45/84/51 46/85/51
f 38/86/52 77/76/52 46/85/52 13/87/52
f 39/88/53 74/72/53 77/76/53 38/86/53
f 40/78/54 71/69/54 74/72/54 39/88/54
f 80/89/55 81/90/55 84/91/55 83/92/55
f 81/90/56 82/93/56 85/94/56 84/91/56
f 83/92/57 84/91/57 87/95/57 86/96/57
f 84/91/58 85/94/58 88/97/58 87/95/58
f 13/87/59 46/85/59 80/89/59 49/98/59
f 46/85/60 45/84/60 81/90/60 80/89/60
f 45/84/61 44/83/61 82/93/61 81/90/61
f 44/83/62 14/82/62 50/99/62 82/93/62
f 82/93/63 50/99/63 51/100/63 85/94/63
f 85/94/64 51/100/64 52/101/64 88/97/64
f 88/97/65 52/101/65 10/38/65 22/37/65
f 87/95/66 88/97/66 22/37/66 21/36/66
f 86/96/67 87/95/67 21/36/67 20/34/67
f 47/102/68 86/96/68 20/34/68 9/33/68
f 48/103/69 83/92/69 86/96/69 47/102/69
f 49/98/70 80/89/70 83/92/70 48/103/70
f 89/104/71 90/105/71 93/106/71 92/107/71
f 90/105/72 91/108/72 94/109/72 93/106/72
f 92/107/73 93/106/73 96/110/73 95/111/73
f 93/106/74 94/109/74 97/112/74 96/110/74
f 11/47/75 31/58/75 89/104/75 17/46/75
f 31/58/76 30/68/76 90/105/76 89/104/76
f 30/68/77 29/66/77 91/108/77 90/105/77
f 29/66/78 15/67/78 40/78/78 91/108/78
f 91/108/79 40/78/79 39/88/79 94/109/79
f 94/109/80 39/88/80 38/86/80 97/112/80
f 97/112/81 38/86/81 13/87/81 49/98/81
f 96/110/82 97/112/82 49/98/82 48/103/82
f 95/111/83 96/110/83 48/103/83 47/102/83
f 19/35/84 95/111/84 47/102/84 9/33/84
f 18/48/85 92/107/85 95/111/85 19/35/85
f 17/46/86 89/104/86 92/107/86 18/48/86
f 98/113/87 99/114/87 102/115/87 101/116/87
f 99/114/88 100/117/88 103/118/88 102/115/88
f 101/116/89 102/115/89 105/119/89 104/120/89
f 102/115/90 103/118/90 106/121/90 105/119/90
f 16/62/91 34/61/91 98/113/91 41/79/91
f 34/61/92 33/60/92 99/114/92 98/113/92
f 33/60/93 32/59/93 100/117/93 99/114/93
f 32/59/94 12/42/94 25/41/94 100/117/94
f 100/117/95 25/41/95 24/40/95 103/118/95
f 103/118/96 24/40/96 23/39/96 106/121/96
f 106/121/97 23/39/97 10/38/97 52/101/97
f 105/119/98 106/121/98 52/101/98 51/100/98
f 104/120/99 105/119/99 51/100/99 50/99/99
f 43/81/100 104/120/100 50/99/100 14/82/100
f 42/80/101 101/116/101 104/120/101 43/81/101
f 41/79/102 98/113/102 101/116/102 42/80/102
f 107/122/103 108/123/103 110/124/103 109/125/103
f 109/125/6 110/124/6 114/126/6 113/127/6
f 113/127/104 114/126/104 112/128/104 111/129/104
f 111/129/2 112/128/2 108/123/2 107/122/2
f 109/125/105 113/127/105 111/129/105 107/122/105
f 114/126/106 110/124/106 108/123/106 112/128/106
f 115/130/107 116/131/107 118/132/107 117/133/107
f 117/133/6 118/132/6 122/134/6 121/135/6
f 121/135/108 122/134/108 120/136/108 119/137/108
f 119/137/2 120/136/2 116/131/2 115/130/2
f 117/133/109 121/135/109 119/137/109 115/130/109
f 122/134/110 118/132/110 116/131/110 120/136/110
f 123/138/3 124/139/3 126/140/3 125/141/3
f 125/141/6 126/140/6 130/142/6 129/143/6
f 129/143/5 130/142/5 128/144/5 127/145/5
f 127/145/2 128/144/2 124/139/2 123/138/2
f 125/141/4 129/143/4 127/145/4 123/138/4
f 130/142/1 126/140/1 124/139/1 128/144/1
f 131/146/3 132/147/3 134/148/3 133/149/3
f 133/149/6 134/148/6 138/150/6 137/151/6
f 137/151/5 138/150/5 136/152/5 135/153/5
f 135/153/2 136/152/2 132/147/2 131/146/2
f 133/149/4 137/151/4 135/153/4 131/146/4
f 138/150/1 134/148/1 132/147/1 136/152/1
