# Blender v3.1.2 OBJ File: 'powerBlock.blend'
# www.blender.org
mtllib powerBlock.mtl
o 立方体.004
v 0.000835 -0.519625 -0.861599
v 0.000835 0.415914 -0.861599
v -0.120079 0.254433 -0.740685
v -0.120079 0.254433 -0.982513
v 0.121749 0.254433 -0.982513
v 0.121749 0.254433 -0.740685
v -0.120079 -0.363357 -0.982513
v 0.121749 -0.363357 -0.982513
v 0.121749 -0.363357 -0.740685
v -0.120079 -0.363357 -0.740685
v 0.875290 -0.519625 -0.003931
v 0.875290 0.415914 -0.003931
v 0.754376 0.254433 0.116983
v 0.754376 0.254433 -0.124845
v 0.996204 0.254433 -0.124845
v 0.996204 0.254433 0.116983
v 0.754376 -0.363357 -0.124845
v 0.996204 -0.363357 -0.124845
v 0.996204 -0.363357 0.116983
v 0.754376 -0.363357 0.116983
v 0.005155 -0.519625 0.865200
v 0.005155 0.415914 0.865200
v -0.115760 0.254433 0.986114
v -0.115760 0.254433 0.744286
v 0.126069 0.254433 0.744286
v 0.126069 0.254433 0.986114
v -0.115760 -0.363357 0.744286
v 0.126069 -0.363357 0.744286
v 0.126069 -0.363357 0.986114
v -0.115760 -0.363357 0.986114
v -0.869433 -0.519625 0.012721
v -0.869433 0.415914 0.012721
v -0.990347 0.254433 0.133636
v -0.990347 0.254433 -0.108193
v -0.748518 0.254433 -0.108193
v -0.748518 0.254433 0.133636
v -0.990347 -0.363357 -0.108193
v -0.748518 -0.363357 -0.108193
v -0.748518 -0.363357 0.133636
v -0.990347 -0.363357 0.133636
v 0.330657 -0.578077 0.999779
v 0.330657 0.578077 0.999779
v -0.321404 -0.578077 0.999779
v -0.321404 0.578077 0.999779
v -0.315140 -0.578077 0.936173
v -0.315140 0.578077 0.936173
v -0.296587 -0.578077 0.875012
v -0.296587 0.578077 0.875012
v -0.266458 -0.578077 0.818646
v -0.266458 0.578077 0.818646
v -0.225912 -0.578077 0.769240
v -0.225912 0.578077 0.769240
v -0.176507 -0.578077 0.728694
v -0.176507 0.578077 0.728694
v -0.120140 -0.578077 0.698566
v -0.120140 0.578077 0.698566
v -0.058979 -0.578077 0.680013
v -0.058979 0.578077 0.680013
v 0.004626 -0.578077 0.673748
v 0.004626 0.578077 0.673748
v 0.068232 -0.578077 0.680013
v 0.068232 0.578077 0.680013
v 0.129393 -0.578077 0.698566
v 0.129393 0.578077 0.698566
v 0.185759 -0.578077 0.728694
v 0.185759 0.578077 0.728694
v 0.235165 -0.578077 0.769240
v 0.235165 0.578077 0.769240
v 0.275711 -0.578077 0.818646
v 0.275711 0.578077 0.818646
v 0.305839 -0.578077 0.875012
v 0.305839 0.578077 0.875012
v 0.324392 -0.578077 0.936173
v 0.324392 0.578077 0.936173
v -1.000224 -0.578077 0.321559
v -1.000224 0.578077 0.321559
v -1.000224 -0.578077 -0.330501
v -1.000224 0.578077 -0.330501
v -0.936619 -0.578077 -0.324237
v -0.936619 0.578077 -0.324237
v -0.875458 -0.578077 -0.305684
v -0.875458 0.578077 -0.305684
v -0.819092 -0.578077 -0.275555
v -0.819092 0.578077 -0.275555
v -0.769686 -0.578077 -0.235009
v -0.769686 0.578077 -0.235009
v -0.729140 -0.578077 -0.185604
v -0.729140 0.578077 -0.185604
v -0.699012 -0.578077 -0.129238
v -0.699012 0.578077 -0.129238
v -0.680458 -0.578077 -0.068076
v -0.680458 0.578077 -0.068076
v -0.674194 -0.578077 -0.004471
v -0.674194 0.578077 -0.004471
v -0.680458 -0.578077 0.059134
v -0.680458 0.578077 0.059134
v -0.699012 -0.578077 0.120295
v -0.699012 0.578077 0.120295
v -0.729140 -0.578077 0.176662
v -0.729140 0.578077 0.176662
v -0.769686 -0.578077 0.226067
v -0.769686 0.578077 0.226067
v -0.819091 -0.578077 0.266613
v -0.819091 0.578077 0.266613
v -0.875458 -0.578077 0.296742
v -0.875458 0.578077 0.296742
v -0.936619 -0.578077 0.315295
v -0.936619 0.578077 0.315295
v -0.329092 -0.578077 -0.994612
v -0.329092 0.578077 -0.994612
v 0.322969 -0.578077 -0.994612
v 0.322969 0.578077 -0.994612
v 0.316705 -0.578077 -0.931006
v 0.316705 0.578077 -0.931006
v 0.298152 -0.578077 -0.869845
v 0.298152 0.578077 -0.869845
v 0.268023 -0.578077 -0.813479
v 0.268023 0.578077 -0.813479
v 0.227477 -0.578077 -0.764073
v 0.227477 0.578077 -0.764073
v 0.178072 -0.578077 -0.723528
v 0.178072 0.578077 -0.723528
v 0.121705 -0.578077 -0.693399
v 0.121705 0.578077 -0.693399
v 0.060544 -0.578077 -0.674846
v 0.060544 0.578077 -0.674846
v -0.003061 -0.578077 -0.668581
v -0.003061 0.578077 -0.668581
v -0.066667 -0.578077 -0.674846
v -0.066667 0.578077 -0.674846
v -0.127828 -0.578077 -0.693399
v -0.127828 0.578077 -0.693399
v -0.184194 -0.578077 -0.723527
v -0.184194 0.578077 -0.723527
v -0.233599 -0.578077 -0.764073
v -0.233599 0.578077 -0.764073
v -0.274146 -0.578077 -0.813479
v -0.274146 0.578077 -0.813479
v -0.304274 -0.578077 -0.869845
v -0.304274 0.578077 -0.869845
v -0.322827 -0.578077 -0.931006
v -0.322827 0.578077 -0.931006
v 1.003693 -0.578077 -0.326031
v 1.003693 0.578077 -0.326031
v 1.003693 -0.578077 0.326030
v 1.003693 0.578077 0.326030
v 0.940088 -0.578077 0.319766
v 0.940088 0.578077 0.319766
v 0.878927 -0.578077 0.301213
v 0.878927 0.578077 0.301213
v 0.822560 -0.578077 0.271084
v 0.822560 0.578077 0.271084
v 0.773155 -0.578077 0.230538
v 0.773155 0.578077 0.230538
v 0.732609 -0.578077 0.181133
v 0.732609 0.578077 0.181133
v 0.702480 -0.578077 0.124766
v 0.702480 0.578077 0.124766
v 0.683927 -0.578077 0.063605
v 0.683927 0.578077 0.063605
v 0.677663 -0.578077 -0.000000
v 0.677663 0.578077 -0.000000
v 0.683927 -0.578077 -0.063606
v 0.683927 0.578077 -0.063606
v 0.702480 -0.578077 -0.124767
v 0.702480 0.578077 -0.124767
v 0.732609 -0.578077 -0.181133
v 0.732609 0.578077 -0.181133
v 0.773155 -0.578077 -0.230538
v 0.773155 0.578077 -0.230538
v 0.822560 -0.578077 -0.271085
v 0.822560 0.578077 -0.271085
v 0.878927 -0.578077 -0.301213
v 0.878927 0.578077 -0.301213
v 0.940088 -0.578077 -0.319766
v 0.940088 0.578077 -0.319766
v 1.000001 1.000000 -1.000001
v 1.000001 -1.000000 -1.000001
v 1.000000 1.000000 1.000000
v 1.000000 -1.000000 1.000000
v -1.000000 1.000000 -1.000001
v -1.000000 -1.000000 -1.000001
v -1.000000 1.000000 1.000000
v -1.000000 -1.000000 1.000000
vt 0.597944 0.585727
vt 0.568763 0.556547
vt 0.597944 0.527366
vt 0.539583 0.527366
vt 0.539583 0.585727
vt 0.535583 0.299947
vt 0.497044 0.299947
vt 0.497044 0.241586
vt 0.535583 0.241586
vt 0.569756 0.203809
vt 0.531217 0.203809
vt 0.531217 0.145448
vt 0.569756 0.145448
vt 0.683053 0.401636
vt 0.644514 0.401636
vt 0.644514 0.343275
vt 0.683053 0.343275
vt 0.497044 0.299947
vt 0.458505 0.299947
vt 0.458505 0.241586
vt 0.497044 0.241586
vt 0.510402 0.556547
vt 0.481222 0.585727
vt 0.481222 0.527366
vt 0.539583 0.527366
vt 0.539583 0.585727
vt 0.641193 0.668465
vt 0.670491 0.639402
vt 0.699554 0.668699
vt 0.699788 0.610339
vt 0.641428 0.610104
vt 0.608295 0.203808
vt 0.569756 0.203808
vt 0.569756 0.145447
vt 0.608295 0.145447
vt 0.652099 0.293253
vt 0.613560 0.293253
vt 0.613560 0.234892
vt 0.652099 0.234892
vt 0.690638 0.293253
vt 0.652099 0.293253
vt 0.652099 0.234892
vt 0.690638 0.234892
vt 0.531217 0.203808
vt 0.492678 0.203808
vt 0.492678 0.145447
vt 0.531217 0.145447
vt 0.553770 0.638933
vt 0.524707 0.609635
vt 0.583067 0.609870
vt 0.582833 0.668230
vt 0.524472 0.667996
vt 0.714666 0.585727
vt 0.685485 0.556547
vt 0.714666 0.527366
vt 0.656305 0.527366
vt 0.656305 0.585727
vt 0.574122 0.299947
vt 0.535583 0.299947
vt 0.535583 0.241586
vt 0.574122 0.241586
vt 0.683645 0.214844
vt 0.645106 0.214844
vt 0.645106 0.156483
vt 0.683645 0.156483
vt 0.683053 0.459997
vt 0.644514 0.459997
vt 0.644514 0.401636
vt 0.683053 0.401636
vt 0.683645 0.156483
vt 0.645106 0.156483
vt 0.645106 0.098122
vt 0.683645 0.098122
vt 0.612130 0.639167
vt 0.583067 0.609870
vt 0.641428 0.610104
vt 0.641193 0.668465
vt 0.582833 0.668231
vt 0.481222 0.585727
vt 0.452042 0.556547
vt 0.481222 0.527366
vt 0.422861 0.527366
vt 0.422861 0.585727
vt 0.618789 0.397578
vt 0.580250 0.397578
vt 0.580250 0.339217
vt 0.618789 0.339217
vt 0.526682 0.393668
vt 0.488142 0.393668
vt 0.488142 0.335307
vt 0.526682 0.335307
vt 0.492678 0.203808
vt 0.454139 0.203808
vt 0.454139 0.145447
vt 0.492678 0.145447
vt 0.683645 0.098122
vt 0.645106 0.098122
vt 0.645106 0.039761
vt 0.683645 0.039761
vt 0.627125 0.556547
vt 0.597944 0.527366
vt 0.656305 0.527366
vt 0.656305 0.585727
vt 0.597944 0.585727
vt 0.180113 0.803593
vt 0.164763 0.802081
vt 0.150003 0.797603
vt 0.136399 0.790332
vt 0.124477 0.780547
vt 0.114691 0.768624
vt 0.107420 0.755021
vt 0.102943 0.740261
vt 0.101431 0.724911
vt 0.102943 0.709561
vt 0.107420 0.694801
vt 0.114691 0.681198
vt 0.124477 0.669275
vt 0.136399 0.659490
vt 0.150003 0.652219
vt 0.164763 0.647741
vt 0.180113 0.646229
vt 0.589389 0.927876
vt 0.604739 0.927876
vt 0.604739 1.000000
vt 0.589389 1.000000
vt 0.965330 0.216370
vt 0.980458 0.216370
vt 0.980458 0.288494
vt 0.965330 0.288494
vt 0.995882 0.216370
vt 0.995882 0.288494
vt 0.872146 0.482665
vt 0.887274 0.482665
vt 0.887274 0.554788
vt 0.872146 0.554788
vt 0.902698 0.482665
vt 0.902698 0.554788
vt 0.917826 0.482665
vt 0.917826 0.554788
vt 0.559278 0.869515
vt 0.544518 0.869515
vt 0.544518 0.797392
vt 0.559278 0.797392
vt 0.529168 0.869515
vt 0.529168 0.797392
vt 0.513818 0.869515
vt 0.513818 0.797392
vt 0.499058 0.869515
vt 0.499058 0.797392
vt 0.650639 0.855753
vt 0.665767 0.855753
vt 0.665767 0.927876
vt 0.650639 0.927876
vt 0.681190 0.855753
vt 0.681190 0.927876
vt 0.696319 0.855753
vt 0.696319 0.927876
vt 0.965330 0.000000
vt 0.980755 0.000000
vt 0.980755 0.072123
vt 0.965330 0.072123
vt 0.995882 0.000000
vt 0.995882 0.072123
vt 0.973842 0.797392
vt 0.989192 0.797392
vt 0.989192 0.869515
vt 0.973842 0.869515
vt 0.258795 0.646229
vt 0.258795 0.803593
vt 0.243445 0.802081
vt 0.228685 0.797603
vt 0.215081 0.790332
vt 0.203159 0.780547
vt 0.193373 0.768624
vt 0.186102 0.755021
vt 0.181625 0.740261
vt 0.180113 0.724911
vt 0.181625 0.709561
vt 0.186102 0.694801
vt 0.193373 0.681198
vt 0.203159 0.669275
vt 0.215081 0.659490
vt 0.228685 0.652219
vt 0.243445 0.647741
vt 0.101431 0.803594
vt 0.086081 0.802081
vt 0.071321 0.797604
vt 0.057718 0.790333
vt 0.045795 0.780548
vt 0.036009 0.768624
vt 0.028738 0.755022
vt 0.024261 0.740261
vt 0.022749 0.724912
vt 0.024261 0.709561
vt 0.028738 0.694801
vt 0.036009 0.681198
vt 0.045795 0.669275
vt 0.057718 0.659490
vt 0.071321 0.652219
vt 0.086081 0.647741
vt 0.101431 0.646230
vt 0.529168 0.927876
vt 0.544518 0.927876
vt 0.544518 1.000000
vt 0.529168 1.000000
vt 0.559278 0.927876
vt 0.559278 1.000000
vt 0.604959 0.855753
vt 0.620086 0.855753
vt 0.620086 0.927876
vt 0.604959 0.927876
vt 0.635511 0.855753
vt 0.635511 0.927876
vt 0.650639 0.855753
vt 0.650639 0.927876
vt 0.956365 0.482665
vt 0.971789 0.482665
vt 0.971789 0.554788
vt 0.956365 0.554788
vt 0.986917 0.482665
vt 0.986917 0.554788
vt 0.943684 0.657748
vt 0.959034 0.657748
vt 0.959034 0.729871
vt 0.943684 0.729871
vt 0.974384 0.657748
vt 0.974384 0.729871
vt 0.859465 0.657748
vt 0.874593 0.657748
vt 0.874593 0.729872
vt 0.859465 0.729872
vt 0.890017 0.657748
vt 0.890017 0.729872
vt 0.905145 0.657748
vt 0.905145 0.729872
vt 0.965330 0.288494
vt 0.980755 0.288494
vt 0.980755 0.360617
vt 0.965330 0.360617
vt 0.995882 0.288494
vt 0.995882 0.360617
vt 0.966701 0.869516
vt 0.981461 0.869516
vt 0.981461 0.941639
vt 0.966701 0.941639
vt 0.996811 0.869516
vt 0.996811 0.941639
vt 0.180113 0.488866
vt 0.180113 0.646229
vt 0.164763 0.644717
vt 0.150003 0.640240
vt 0.136399 0.632969
vt 0.124477 0.623184
vt 0.114691 0.611261
vt 0.107420 0.597658
vt 0.102943 0.582898
vt 0.101431 0.567548
vt 0.102943 0.552197
vt 0.107420 0.537437
vt 0.114691 0.523834
vt 0.124477 0.511911
vt 0.136399 0.502126
vt 0.150003 0.494855
vt 0.164763 0.490378
vt 0.346676 0.809111
vt 0.331326 0.807599
vt 0.316566 0.803121
vt 0.302963 0.795851
vt 0.291040 0.786065
vt 0.281254 0.774142
vt 0.273984 0.760539
vt 0.269506 0.745779
vt 0.267994 0.730429
vt 0.269506 0.715079
vt 0.273984 0.700319
vt 0.281254 0.686716
vt 0.291040 0.674793
vt 0.302963 0.665008
vt 0.316566 0.657737
vt 0.331326 0.653259
vt 0.346676 0.651747
vt 0.974384 0.657748
vt 0.989734 0.657748
vt 0.989734 0.729871
vt 0.974384 0.729871
vt 0.872146 0.554789
vt 0.887274 0.554789
vt 0.887274 0.626912
vt 0.872146 0.626912
vt 0.902698 0.554789
vt 0.902698 0.626912
vt 0.917826 0.554789
vt 0.917826 0.626912
vt 0.965330 0.072123
vt 0.980754 0.072123
vt 0.980754 0.144247
vt 0.965330 0.144247
vt 0.995882 0.072123
vt 0.995882 0.144247
vt 0.741779 0.927877
vt 0.727019 0.927877
vt 0.727019 0.855753
vt 0.741779 0.855753
vt 0.711669 0.927876
vt 0.711669 0.855753
vt 0.696319 0.927877
vt 0.696319 0.855753
vt 0.965330 0.360617
vt 0.980458 0.360617
vt 0.980458 0.432741
vt 0.965330 0.432741
vt 0.995882 0.360617
vt 0.995882 0.432741
vt 0.813785 0.657748
vt 0.828913 0.657748
vt 0.828913 0.729872
vt 0.813785 0.729872
vt 0.844337 0.657748
vt 0.844337 0.729872
vt 0.859465 0.657748
vt 0.859465 0.729872
vt 0.499058 0.927876
vt 0.513818 0.927876
vt 0.513818 1.000000
vt 0.499058 1.000000
vt 0.529168 0.927876
vt 0.529168 1.000000
vt 0.343320 0.482665
vt 0.343320 0.640028
vt 0.327970 0.638517
vt 0.313210 0.634039
vt 0.299607 0.626768
vt 0.287684 0.616983
vt 0.277899 0.605060
vt 0.270628 0.591457
vt 0.266151 0.576697
vt 0.264639 0.561347
vt 0.266151 0.545997
vt 0.270628 0.531237
vt 0.277899 0.517633
vt 0.287684 0.505710
vt 0.299607 0.495925
vt 0.313210 0.488654
vt 0.327970 0.484177
vt 0.101431 0.646229
vt 0.086081 0.644718
vt 0.071321 0.640240
vt 0.057718 0.632969
vt 0.045794 0.623184
vt 0.036009 0.611261
vt 0.028738 0.597658
vt 0.024261 0.582898
vt 0.022749 0.567548
vt 0.024261 0.552197
vt 0.028738 0.537437
vt 0.036009 0.523834
vt 0.045795 0.511911
vt 0.057718 0.502126
vt 0.071321 0.494855
vt 0.086081 0.490378
vt 0.101431 0.488866
vt 0.841128 0.927877
vt 0.825778 0.927877
vt 0.825778 0.855753
vt 0.841128 0.855753
vt 0.559278 0.855753
vt 0.574407 0.855753
vt 0.574407 0.927877
vt 0.559278 0.927877
vt 0.589830 0.855753
vt 0.589830 0.927877
vt 0.604959 0.855753
vt 0.604959 0.927877
vt 0.965330 0.144247
vt 0.980755 0.144247
vt 0.980755 0.216370
vt 0.965330 0.216370
vt 0.995882 0.144247
vt 0.995882 0.216370
vt 0.741779 0.855753
vt 0.756539 0.855753
vt 0.756539 0.927877
vt 0.741779 0.927877
vt 0.771890 0.855753
vt 0.771890 0.927877
vt 0.787240 0.855753
vt 0.787240 0.927877
vt 0.851083 0.797392
vt 0.866211 0.797392
vt 0.866211 0.869516
vt 0.851083 0.869516
vt 0.881635 0.797392
vt 0.881635 0.869516
vt 0.896763 0.797392
vt 0.896763 0.869516
vt 0.956365 0.554788
vt 0.971789 0.554788
vt 0.971789 0.626912
vt 0.956365 0.626912
vt 0.986917 0.554788
vt 0.986917 0.626912
vt 0.559278 0.927876
vt 0.574038 0.927876
vt 0.574038 1.000000
vt 0.559278 1.000000
vt 0.589388 0.927876
vt 0.589388 1.000000
vt 0.258794 0.488866
vt 0.258794 0.646230
vt 0.243444 0.644717
vt 0.228684 0.640240
vt 0.215081 0.632969
vt 0.203158 0.623184
vt 0.193373 0.611260
vt 0.186102 0.597658
vt 0.181625 0.582897
vt 0.180113 0.567548
vt 0.181625 0.552197
vt 0.186102 0.537437
vt 0.193373 0.523834
vt 0.203158 0.511911
vt 0.215081 0.502126
vt 0.228684 0.494855
vt 0.243444 0.490377
vt 0.015007 0.021208
vt 0.135916 0.021208
vt 0.135916 0.142117
vt 0.015007 0.142117
vt 0.169991 0.036935
vt 0.242848 0.036935
vt 0.242848 0.109792
vt 0.169991 0.109792
vt 0.327105 0.122397
vt 0.369809 0.123130
vt 0.414129 0.148025
vt 0.283147 0.145775
vt 0.282290 0.031363
vt 0.326610 0.056258
vt 0.369314 0.056991
vt 0.413272 0.033613
vt 0.165550 0.418112
vt 0.216743 0.418674
vt 0.269552 0.451687
vt 0.112535 0.449963
vt 0.111883 0.296215
vt 0.165173 0.329234
vt 0.216366 0.329796
vt 0.268900 0.297939
vt 0.328661 0.364156
vt 0.373203 0.362740
vt 0.419339 0.398046
vt 0.282718 0.402389
vt 0.283710 0.228048
vt 0.329234 0.263373
vt 0.373777 0.261957
vt 0.420330 0.223705
vt 0.215542 0.258219
vt 0.266916 0.284398
vt 0.114109 0.282659
vt 0.112999 0.161326
vt 0.165080 0.187512
vt 0.165722 0.257653
vt 0.214900 0.188079
vt 0.265806 0.163065
vn -0.8005 0.5994 0.0000
vn 0.0000 0.5994 -0.8005
vn 0.8005 0.5994 0.0000
vn 0.0000 0.5994 0.8005
vn 0.0000 0.0000 1.0000
vn 1.0000 0.0000 0.0000
vn 0.0000 0.0000 -1.0000
vn -1.0000 0.0000 0.0000
vn -0.7909 -0.6120 0.0000
vn 0.0000 -0.6120 -0.7909
vn 0.7909 -0.6120 0.0000
vn 0.0000 -0.6120 0.7909
vn 0.0000 -1.0000 0.0000
vn 0.9952 0.0000 0.0980
vn 0.9569 0.0000 0.2903
vn 0.8819 0.0000 0.4714
vn 0.7730 0.0000 0.6344
vn 0.6344 0.0000 0.7730
vn 0.4714 0.0000 0.8819
vn 0.2903 0.0000 0.9569
vn 0.0980 0.0000 0.9952
vn -0.0980 0.0000 0.9952
vn -0.2903 0.0000 0.9569
vn -0.4714 0.0000 0.8819
vn -0.6344 0.0000 0.7730
vn -0.7730 0.0000 0.6344
vn -0.8819 0.0000 0.4714
vn -0.9569 0.0000 0.2903
vn -0.9952 0.0000 0.0980
vn 0.0000 1.0000 -0.0000
vn -0.9952 0.0000 -0.0980
vn -0.9569 0.0000 -0.2903
vn -0.8819 0.0000 -0.4714
vn -0.7730 0.0000 -0.6344
vn -0.6344 0.0000 -0.7730
vn -0.4714 0.0000 -0.8819
vn -0.2903 0.0000 -0.9569
vn -0.0980 0.0000 -0.9952
vn 0.0980 0.0000 -0.9952
vn 0.2903 0.0000 -0.9569
vn 0.4714 0.0000 -0.8819
vn 0.6344 0.0000 -0.7730
vn 0.7730 0.0000 -0.6344
vn 0.8819 0.0000 -0.4714
vn 0.9569 0.0000 -0.2903
vn 0.9952 0.0000 -0.0980
vn 1.0000 0.0030 0.0036
vn 1.0000 -0.0030 -0.0036
vn -0.0052 -0.0044 -1.0000
vn 0.0053 0.0044 -1.0000
vn -1.0000 0.0002 -0.0002
vn -1.0000 -0.0002 0.0002
vn 0.0002 -0.0002 1.0000
vn -0.0002 0.0002 1.0000
usemtl Material
s off
f 3/1/1 2/2/1 4/3/1
f 4/3/2 2/2/2 5/4/2
f 5/4/3 2/2/3 6/5/3
f 6/5/4 2/2/4 3/1/4
f 9/6/5 6/7/5 3/8/5 10/9/5
f 8/10/6 5/11/6 6/12/6 9/13/6
f 7/14/7 4/15/7 5/16/7 8/17/7
f 10/18/8 3/19/8 4/20/8 7/21/8
f 1/22/9 10/23/9 7/24/9
f 1/22/10 7/24/10 8/25/10
f 1/22/11 8/25/11 9/26/11
f 1/22/12 9/26/12 10/23/12
f 13/27/1 12/28/1 14/29/1
f 14/29/2 12/28/2 15/30/2
f 15/30/3 12/28/3 16/31/3
f 16/31/4 12/28/4 13/27/4
f 19/32/5 16/33/5 13/34/5 20/35/5
f 18/36/6 15/37/6 16/38/6 19/39/6
f 17/40/7 14/41/7 15/42/7 18/43/7
f 20/44/8 13/45/8 14/46/8 17/47/8
f 11/48/9 20/49/9 17/50/9
f 11/48/10 17/50/10 18/51/10
f 11/48/11 18/51/11 19/52/11
f 11/48/12 19/52/12 20/49/12
f 23/53/1 22/54/1 24/55/1
f 24/55/2 22/54/2 25/56/2
f 25/56/3 22/54/3 26/57/3
f 26/57/4 22/54/4 23/53/4
f 29/58/5 26/59/5 23/60/5 30/61/5
f 28/62/6 25/63/6 26/64/6 29/65/6
f 27/66/7 24/67/7 25/68/7 28/69/7
f 30/70/8 23/71/8 24/72/8 27/73/8
f 21/74/9 30/75/9 27/76/9
f 21/74/10 27/76/10 28/77/10
f 21/74/11 28/77/11 29/78/11
f 21/74/12 29/78/12 30/75/12
f 33/79/1 32/80/1 34/81/1
f 34/81/2 32/80/2 35/82/2
f 35/82/3 32/80/3 36/83/3
f 36/83/4 32/80/4 33/79/4
f 39/84/5 36/85/5 33/86/5 40/87/5
f 38/88/6 35/89/6 36/90/6 39/91/6
f 37/92/7 34/93/7 35/94/7 38/95/7
f 40/96/8 33/97/8 34/98/8 37/99/8
f 31/100/9 40/101/9 37/102/9
f 31/100/10 37/102/10 38/103/10
f 31/100/11 38/103/11 39/104/11
f 31/100/12 39/104/12 40/101/12
f 44/105/13 46/106/13 48/107/13 50/108/13 52/109/13 54/110/13 56/111/13 58/112/13 60/113/13 62/114/13 64/115/13 66/116/13 68/117/13 70/118/13 72/119/13 74/120/13 42/121/13
f 43/122/14 45/123/14 46/124/14 44/125/14
f 45/126/15 47/127/15 48/128/15 46/129/15
f 47/127/16 49/130/16 50/131/16 48/128/16
f 49/132/17 51/133/17 52/134/17 50/135/17
f 51/133/18 53/136/18 54/137/18 52/134/18
f 53/136/19 55/138/19 56/139/19 54/137/19
f 55/140/20 57/141/20 58/142/20 56/143/20
f 57/141/21 59/144/21 60/145/21 58/142/21
f 59/144/22 61/146/22 62/147/22 60/145/22
f 61/146/23 63/148/23 64/149/23 62/147/23
f 63/150/24 65/151/24 66/152/24 64/153/24
f 65/151/25 67/154/25 68/155/25 66/152/25
f 67/154/26 69/156/26 70/157/26 68/155/26
f 69/158/27 71/159/27 72/160/27 70/161/27
f 71/159/28 73/162/28 74/163/28 72/160/28
f 73/164/29 41/165/29 42/166/29 74/167/29
f 43/168/30 41/169/30 73/170/30 71/171/30 69/172/30 67/173/30 65/174/30 63/175/30 61/176/30 59/177/30 57/178/30 55/179/30 53/180/30 51/181/30 49/182/30 47/183/30 45/184/30
f 78/185/13 80/186/13 82/187/13 84/188/13 86/189/13 88/190/13 90/191/13 92/192/13 94/193/13 96/194/13 98/195/13 100/196/13 102/197/13 104/198/13 106/199/13 108/200/13 76/201/13
f 77/202/22 79/203/22 80/204/22 78/205/22
f 79/203/23 81/206/23 82/207/23 80/204/23
f 81/208/24 83/209/24 84/210/24 82/211/24
f 83/209/25 85/212/25 86/213/25 84/210/25
f 85/212/26 87/214/26 88/215/26 86/213/26
f 87/216/27 89/217/27 90/218/27 88/219/27
f 89/217/28 91/220/28 92/221/28 90/218/28
f 91/222/29 93/223/29 94/224/29 92/225/29
f 93/223/31 95/226/31 96/227/31 94/224/31
f 95/228/32 97/229/32 98/230/32 96/231/32
f 97/229/33 99/232/33 100/233/33 98/230/33
f 99/232/34 101/234/34 102/235/34 100/233/34
f 101/236/35 103/237/35 104/238/35 102/239/35
f 103/237/36 105/240/36 106/241/36 104/238/36
f 105/242/37 107/243/37 108/244/37 106/245/37
f 107/243/38 75/246/38 76/247/38 108/244/38
f 77/248/30 75/249/30 107/250/30 105/251/30 103/252/30 101/253/30 99/254/30 97/255/30 95/256/30 93/257/30 91/258/30 89/259/30 87/260/30 85/261/30 83/262/30 81/263/30 79/264/30
f 112/265/13 114/266/13 116/267/13 118/268/13 120/269/13 122/270/13 124/271/13 126/272/13 128/273/13 130/274/13 132/275/13 134/276/13 136/277/13 138/278/13 140/279/13 142/280/13 110/281/13
f 111/282/31 113/283/31 114/284/31 112/285/31
f 113/286/32 115/287/32 116/288/32 114/289/32
f 115/287/33 117/290/33 118/291/33 116/288/33
f 117/290/34 119/292/34 120/293/34 118/291/34
f 119/294/35 121/295/35 122/296/35 120/297/35
f 121/295/36 123/298/36 124/299/36 122/296/36
f 123/300/37 125/301/37 126/302/37 124/303/37
f 125/301/38 127/304/38 128/305/38 126/302/38
f 127/304/39 129/306/39 130/307/39 128/305/39
f 129/308/40 131/309/40 132/310/40 130/311/40
f 131/309/41 133/312/41 134/313/41 132/310/41
f 133/314/42 135/315/42 136/316/42 134/317/42
f 135/315/43 137/318/43 138/319/43 136/316/43
f 137/318/44 139/320/44 140/321/44 138/319/44
f 139/322/45 141/323/45 142/324/45 140/325/45
f 141/323/46 109/326/46 110/327/46 142/324/46
f 111/328/30 109/329/30 141/330/30 139/331/30 137/332/30 135/333/30 133/334/30 131/335/30 129/336/30 127/337/30 125/338/30 123/339/30 121/340/30 119/341/30 117/342/30 115/343/30 113/344/30
f 146/345/13 148/346/13 150/347/13 152/348/13 154/349/13 156/350/13 158/351/13 160/352/13 162/353/13 164/354/13 166/355/13 168/356/13 170/357/13 172/358/13 174/359/13 176/360/13 144/361/13
f 145/362/39 147/363/39 148/364/39 146/365/39
f 147/366/40 149/367/40 150/368/40 148/369/40
f 149/367/41 151/370/41 152/371/41 150/368/41
f 151/370/42 153/372/42 154/373/42 152/371/42
f 153/374/43 155/375/43 156/376/43 154/377/43
f 155/375/44 157/378/44 158/379/44 156/376/44
f 157/380/45 159/381/45 160/382/45 158/383/45
f 159/381/46 161/384/46 162/385/46 160/382/46
f 161/384/14 163/386/14 164/387/14 162/385/14
f 163/388/15 165/389/15 166/390/15 164/391/15
f 165/389/16 167/392/16 168/393/16 166/390/16
f 167/392/17 169/394/17 170/395/17 168/393/17
f 169/396/18 171/397/18 172/398/18 170/399/18
f 171/397/19 173/400/19 174/401/19 172/398/19
f 173/402/20 175/403/20 176/404/20 174/405/20
f 175/403/21 143/406/21 144/407/21 176/404/21
f 145/408/30 143/409/30 175/410/30 173/411/30 171/412/30 169/413/30 167/414/30 165/415/30 163/416/30 161/417/30 159/418/30 157/419/30 155/420/30 153/421/30 151/422/30 149/423/30 147/424/30
f 177/425/30 181/426/30 183/427/30 179/428/30
f 182/429/13 178/430/13 180/431/13 184/432/13
f 146/433/47 144/434/47 177/435/47 179/436/47 180/437/47 145/438/47
f 144/434/48 143/439/48 145/438/48 180/437/48 178/440/48 177/435/48
f 112/441/49 110/442/49 181/443/49 177/444/49 178/445/49 111/446/49
f 110/442/50 109/447/50 111/446/50 178/445/50 182/448/50 181/443/50
f 78/449/51 76/450/51 183/451/51 181/452/51 182/453/51 77/454/51
f 76/450/52 75/455/52 77/454/52 182/453/52 184/456/52 183/451/52
f 42/457/53 179/458/53 183/459/53 184/460/53 43/461/53 44/462/53
f 42/457/54 41/463/54 43/461/54 184/460/54 180/464/54 179/458/54
