# Blender v3.1.2 OBJ File: ''
# www.blender.org
mtllib receiveBlock.mtl
o Cube.001
v 1.000000 1.000000 -1.000000
v -1.000000 1.000000 -1.000000
v -1.000000 1.000000 1.000000
v 1.000000 1.000000 1.000000
v 0.700000 -0.200000 1.000000
v 1.000000 -1.000000 1.000000
v 0.700000 0.200000 1.000000
v -0.700000 0.200000 1.000000
v -1.000000 -1.000000 1.000000
v -0.700000 -0.200000 1.000000
v -0.300000 -0.200000 1.000000
v 0.300000 -0.200000 1.000000
v 0.300000 0.200000 1.000000
v -0.300000 0.200000 1.000000
v -1.000000 -1.000000 -1.000000
v -1.000000 -0.200000 -0.700000
v -1.000000 0.200000 -0.700000
v -1.000000 -0.200000 0.700000
v -1.000000 0.200000 0.700000
v -1.000000 0.200000 0.300000
v -1.000000 0.200000 -0.300000
v -1.000000 -0.200000 -0.300000
v -1.000000 -0.200000 0.300000
v 1.000000 -1.000000 -1.000000
v 1.000000 0.200000 0.700000
v 1.000000 -0.200000 0.700000
v 1.000000 -0.200000 -0.700000
v 1.000000 0.200000 -0.700000
v 1.000000 0.200000 0.300000
v 1.000000 -0.200000 0.300000
v 1.000000 -0.200000 -0.300000
v 1.000000 0.200000 -0.300000
v -0.700000 -0.200000 -1.000000
v -0.700000 0.200000 -1.000000
v -0.300000 0.200000 -1.000000
v 0.700000 0.200000 -1.000000
v 0.300000 0.200000 -1.000000
v 0.300000 -0.200000 -1.000000
v 0.700000 -0.200000 -1.000000
v -0.300000 -0.200000 -1.000000
v 0.300000 0.200000 -0.800000
v 0.300000 -0.200000 -0.800000
v 0.700000 -0.200000 -0.800000
v 0.700000 0.200000 -0.800000
v -0.700000 0.200000 -0.800000
v -0.700000 -0.200000 -0.800000
v -0.300000 -0.200000 -0.800000
v -0.300000 0.200000 -0.800000
v 0.300000 -0.200000 0.800000
v 0.300000 0.200000 0.800000
v 0.700000 -0.200000 0.800000
v 0.700000 0.200000 0.800000
v -0.700000 -0.200000 0.800000
v -0.700000 0.200000 0.800000
v -0.300000 -0.200000 0.800000
v -0.300000 0.200000 0.800000
v -0.800000 -0.200000 -0.700000
v -0.800000 0.200000 -0.700000
v -0.800000 -0.200000 -0.300000
v -0.800000 0.200000 -0.300000
v -0.800000 -0.200000 0.300000
v -0.800000 0.200000 0.300000
v -0.800000 -0.200000 0.700000
v -0.800000 0.200000 0.700000
v 0.800000 -0.200000 0.700000
v 0.800000 -0.200000 0.300000
v 0.800000 0.200000 0.300000
v 0.800000 0.200000 0.700000
v 0.800000 -0.200000 -0.300000
v 0.800000 -0.200000 -0.700000
v 0.800000 0.200000 -0.700000
v 0.800000 0.200000 -0.300000
vt 0.875000 0.500000
vt 0.625000 0.750000
vt 0.625000 0.500000
vt 0.375000 0.750000
vt 0.525000 0.787500
vt 0.475000 0.787500
vt 0.625000 1.000000
vt 0.475000 0.962500
vt 0.525000 0.962500
vt 0.525000 0.912500
vt 0.375000 0.250000
vt 0.525000 0.212500
vt 0.625000 0.250000
vt 0.375000 0.000000
vt 0.525000 0.037500
vt 0.475000 0.037500
vt 0.475000 0.087500
vt 0.375000 0.500000
vt 0.125000 0.750000
vt 0.125000 0.500000
vt 0.475000 0.712500
vt 0.525000 0.712500
vt 0.525000 0.537500
vt 0.475000 0.537500
vt 0.475000 0.587500
vt 0.525000 0.287500
vt 0.475000 0.287500
vt 0.475000 0.337500
vt 0.525000 0.462500
vt 0.000000 0.000000
vt 0.000000 0.000000
vt 0.000000 0.000000
vt 0.000000 0.000000
vt 0.000000 0.000000
vt 0.000000 0.000000
vt 0.000000 0.000000
vt 0.000000 0.000000
vt 0.000000 0.000000
vt 0.000000 0.000000
vt 0.000000 0.000000
vt 0.000000 0.000000
vt 0.000000 0.000000
vt 0.000000 0.000000
vt 0.000000 0.000000
vt 0.000000 0.000000
vt 0.000000 0.000000
vt 0.000000 0.000000
vt 0.000000 0.000000
vt 0.000000 0.000000
vt 0.000000 0.000000
vt 0.000000 0.000000
vt 0.000000 0.000000
vt 0.000000 0.000000
vt 0.000000 0.000000
vt 0.000000 0.000000
vt 0.000000 0.000000
vt 0.000000 0.000000
vt 0.000000 0.000000
vt 0.000000 0.000000
vt 0.000000 0.000000
vt 0.000000 0.000000
vt 0.000000 0.000000
vt 0.000000 0.000000
vt 0.000000 0.000000
vt 0.000000 0.000000
vt 0.000000 0.000000
vt 0.000000 0.000000
vt 0.000000 0.000000
vt 0.000000 0.000000
vt 0.000000 0.000000
vt 0.000000 0.000000
vt 0.000000 0.000000
vt 0.000000 0.000000
vt 0.000000 0.000000
vt 0.000000 0.000000
vt 0.000000 0.000000
vt 0.000000 0.000000
vt 0.000000 0.000000
vt 0.000000 0.000000
vt 0.000000 0.000000
vt 0.000000 0.000000
vt 0.000000 0.000000
vt 0.000000 0.000000
vt 0.000000 0.000000
vt 0.000000 0.000000
vt 0.000000 0.000000
vt 0.000000 0.000000
vt 0.000000 0.000000
vt 0.000000 0.000000
vt 0.000000 0.000000
vt 0.000000 0.000000
vt 0.000000 0.000000
vt 0.000000 0.000000
vt 0.875000 0.750000
vt 0.375000 1.000000
vt 0.475000 0.912500
vt 0.475000 0.837500
vt 0.525000 0.837500
vt 0.475000 0.212500
vt 0.625000 0.000000
vt 0.525000 0.087500
vt 0.525000 0.162500
vt 0.475000 0.162500
vt 0.525000 0.587500
vt 0.525000 0.662500
vt 0.475000 0.662500
vt 0.525000 0.337500
vt 0.525000 0.412500
vt 0.475000 0.412500
vt 0.475000 0.462500
vn 0.0000 1.0000 0.0000
vn -0.0000 -0.0000 1.0000
vn -1.0000 0.0000 0.0000
vn 0.0000 -1.0000 -0.0000
vn 1.0000 -0.0000 0.0000
vn 0.0000 0.0000 -1.0000
usemtl Material.001
s 1
f 2/1/1 4/2/1 1/3/1
f 6/4/2 7/5/2 5/6/2
f 3/7/2 10/8/2 8/9/2
f 4/2/2 3/7/2 14/10/2
f 15/11/3 17/12/3 2/13/3
f 9/14/3 19/15/3 18/16/3
f 15/11/3 9/14/3 23/17/3
f 24/18/4 9/19/4 15/20/4
f 4/2/5 26/21/5 25/22/5
f 24/18/5 28/23/5 27/24/5
f 6/4/5 24/18/5 31/25/5
f 15/11/6 34/26/6 33/27/6
f 24/18/6 15/11/6 40/28/6
f 24/18/6 36/29/6 1/3/6
f 41/30/5 38/31/5 37/32/5
f 43/33/3 36/34/3 39/35/3
f 42/36/6 44/37/6 43/33/6
f 42/36/1 39/35/1 38/31/1
f 41/30/4 36/34/4 44/37/4
f 45/38/5 33/39/5 34/40/5
f 47/41/3 35/42/3 40/43/3
f 46/44/6 48/45/6 47/41/6
f 46/44/1 40/43/1 33/39/1
f 45/38/4 35/42/4 48/45/4
f 50/46/5 12/47/5 49/48/5
f 51/49/2 50/46/2 49/48/2
f 51/49/3 7/50/3 52/51/3
f 51/49/1 12/47/1 5/52/1
f 50/46/4 7/50/4 13/53/4
f 54/54/5 10/55/5 53/56/5
f 55/57/2 54/54/2 53/56/2
f 55/57/3 14/58/3 56/59/3
f 55/57/1 10/55/1 11/60/1
f 54/54/4 14/58/4 8/61/4
f 58/62/2 16/63/2 57/64/2
f 59/65/3 58/62/3 57/64/3
f 59/65/6 21/66/6 60/67/6
f 59/65/1 16/63/1 22/68/1
f 58/62/4 21/66/4 17/69/4
f 62/70/2 23/71/2 61/72/2
f 63/73/3 62/70/3 61/72/3
f 63/73/6 19/74/6 64/75/6
f 63/73/1 23/71/1 18/76/1
f 62/70/4 19/74/4 20/77/4
f 66/78/5 68/79/5 65/80/5
f 67/81/2 30/82/2 29/83/2
f 65/80/6 25/84/6 26/85/6
f 65/80/1 30/82/1 66/78/1
f 67/81/4 25/84/4 68/79/4
f 70/86/5 72/87/5 69/88/5
f 71/89/2 27/90/2 28/91/2
f 69/88/6 32/92/6 31/93/6
f 69/88/1 27/90/1 70/86/1
f 71/89/4 32/92/4 72/87/4
f 2/1/1 3/94/1 4/2/1
f 6/4/2 4/2/2 7/5/2
f 3/7/2 9/95/2 10/8/2
f 11/96/2 10/8/2 9/95/2
f 9/95/2 6/4/2 12/97/2
f 6/4/2 5/6/2 12/97/2
f 11/96/2 9/95/2 12/97/2
f 13/98/2 7/5/2 4/2/2
f 11/96/2 12/97/2 13/98/2
f 3/7/2 8/9/2 14/10/2
f 14/10/2 11/96/2 13/98/2
f 13/98/2 4/2/2 14/10/2
f 15/11/3 16/99/3 17/12/3
f 9/14/3 3/100/3 19/15/3
f 20/101/3 19/15/3 3/100/3
f 3/100/3 2/13/3 21/102/3
f 2/13/3 17/12/3 21/102/3
f 20/101/3 3/100/3 21/102/3
f 22/103/3 16/99/3 15/11/3
f 20/101/3 21/102/3 22/103/3
f 9/14/3 18/16/3 23/17/3
f 23/17/3 20/101/3 22/103/3
f 22/103/3 15/11/3 23/17/3
f 24/18/4 6/4/4 9/19/4
f 4/2/5 6/4/5 26/21/5
f 24/18/5 1/3/5 28/23/5
f 32/104/5 28/23/5 1/3/5
f 1/3/5 4/2/5 29/105/5
f 4/2/5 25/22/5 29/105/5
f 32/104/5 1/3/5 29/105/5
f 30/106/5 26/21/5 6/4/5
f 32/104/5 29/105/5 30/106/5
f 24/18/5 27/24/5 31/25/5
f 31/25/5 32/104/5 30/106/5
f 30/106/5 6/4/5 31/25/5
f 15/11/6 2/13/6 34/26/6
f 35/107/6 34/26/6 2/13/6
f 2/13/6 1/3/6 37/108/6
f 1/3/6 36/29/6 37/108/6
f 35/107/6 2/13/6 37/108/6
f 38/109/6 39/110/6 24/18/6
f 35/107/6 37/108/6 38/109/6
f 15/11/6 33/27/6 40/28/6
f 40/28/6 35/107/6 38/109/6
f 38/109/6 24/18/6 40/28/6
f 24/18/6 39/110/6 36/29/6
f 41/30/5 42/36/5 38/31/5
f 43/33/3 44/37/3 36/34/3
f 42/36/6 41/30/6 44/37/6
f 42/36/1 43/33/1 39/35/1
f 41/30/4 37/32/4 36/34/4
f 45/38/5 46/44/5 33/39/5
f 47/41/3 48/45/3 35/42/3
f 46/44/6 45/38/6 48/45/6
f 46/44/1 47/41/1 40/43/1
f 45/38/4 34/40/4 35/42/4
f 50/46/5 13/53/5 12/47/5
f 51/49/2 52/51/2 50/46/2
f 51/49/3 5/52/3 7/50/3
f 51/49/1 49/48/1 12/47/1
f 50/46/4 52/51/4 7/50/4
f 54/54/5 8/61/5 10/55/5
f 55/57/2 56/59/2 54/54/2
f 55/57/3 11/60/3 14/58/3
f 55/57/1 53/56/1 10/55/1
f 54/54/4 56/59/4 14/58/4
f 58/62/2 17/69/2 16/63/2
f 59/65/3 60/67/3 58/62/3
f 59/65/6 22/68/6 21/66/6
f 59/65/1 57/64/1 16/63/1
f 58/62/4 60/67/4 21/66/4
f 62/70/2 20/77/2 23/71/2
f 63/73/3 64/75/3 62/70/3
f 63/73/6 18/76/6 19/74/6
f 63/73/1 61/72/1 23/71/1
f 62/70/4 64/75/4 19/74/4
f 66/78/5 67/81/5 68/79/5
f 67/81/2 66/78/2 30/82/2
f 65/80/6 68/79/6 25/84/6
f 65/80/1 26/85/1 30/82/1
f 67/81/4 29/83/4 25/84/4
f 70/86/5 71/89/5 72/87/5
f 71/89/2 70/86/2 27/90/2
f 69/88/6 72/87/6 32/92/6
f 69/88/1 31/93/1 27/90/1
f 71/89/4 28/91/4 32/92/4
