# Blender v3.1.2 OBJ File: 'playertest2.blend'
# www.blender.org
mtllib playertest2.mtl
o Cube
v 0.255403 1.221480 -0.182232
v 0.255403 0.366675 -0.182232
v 0.255403 1.221480 0.182232
v 0.255403 0.366675 0.182232
v -0.255403 1.221480 -0.182232
v -0.255403 0.366675 -0.182232
v -0.255403 1.221480 0.182232
v -0.255403 0.366675 0.182232
v -0.134178 1.292105 0.134178
v -0.134178 1.560462 0.134178
v -0.134178 1.292105 -0.134178
v -0.134178 1.560462 -0.134178
v 0.134178 1.292105 0.134178
v 0.134178 1.560462 0.134178
v 0.134178 1.292105 -0.134178
v 0.134178 1.560462 -0.134178
v -0.153750 1.272533 -0.079608
v -0.163582 1.262702 -0.000000
v -0.153750 1.272533 0.079608
v -0.153750 1.346676 0.153750
v -0.163582 1.426284 0.163582
v -0.153750 1.505892 0.153750
v -0.153750 1.580034 0.079608
v -0.163582 1.589865 0.000000
v -0.153750 1.580034 -0.079608
v -0.153750 1.505892 -0.153750
v -0.163582 1.426284 -0.163582
v -0.153750 1.346676 -0.153750
v 0.079608 1.272533 -0.153750
v 0.000000 1.262702 -0.163582
v -0.079608 1.272533 -0.153750
v -0.079608 1.580034 -0.153750
v -0.000000 1.589865 -0.163582
v 0.079608 1.580034 -0.153750
v 0.153750 1.505892 -0.153750
v 0.163582 1.426284 -0.163582
v 0.153750 1.346676 -0.153750
v 0.153750 1.272533 0.079608
v 0.163582 1.262702 0.000000
v 0.153750 1.272533 -0.079608
v 0.153750 1.580034 -0.079608
v 0.163582 1.589865 0.000000
v 0.153750 1.580034 0.079608
v 0.153750 1.505892 0.153750
v 0.163582 1.426284 0.163582
v 0.153750 1.346676 0.153750
v -0.079608 1.272533 0.153750
v -0.000000 1.262702 0.163582
v 0.079608 1.272533 0.153750
v 0.079608 1.580034 0.153750
v -0.000000 1.589865 0.163582
v -0.079608 1.580034 0.153750
v -0.195629 1.341441 0.084843
v -0.209809 1.426284 0.089400
v -0.195629 1.511127 0.084843
v -0.209809 1.336883 -0.000000
v -0.225287 1.426284 0.000000
v -0.209809 1.515684 0.000000
v -0.195629 1.341441 -0.084843
v -0.209809 1.426284 -0.089400
v -0.195629 1.511127 -0.084843
v -0.084843 1.341441 -0.195629
v -0.089400 1.426284 -0.209809
v -0.084843 1.511127 -0.195629
v 0.000000 1.336883 -0.209809
v 0.000000 1.426284 -0.225287
v -0.000000 1.515684 -0.209809
v 0.084843 1.341441 -0.195629
v 0.089400 1.426284 -0.209809
v 0.084843 1.511127 -0.195629
v 0.195629 1.341441 -0.084843
v 0.209809 1.426284 -0.089400
v 0.195629 1.511127 -0.084843
v 0.209809 1.336883 0.000000
v 0.225287 1.426284 0.000000
v 0.209809 1.515684 -0.000000
v 0.195629 1.341441 0.084843
v 0.209809 1.426284 0.089400
v 0.195629 1.511127 0.084843
v 0.084843 1.341441 0.195629
v 0.089400 1.426284 0.209809
v 0.084843 1.511127 0.195629
v -0.000000 1.336883 0.209809
v -0.000000 1.426284 0.225287
v 0.000000 1.515684 0.209809
v -0.084843 1.341441 0.195629
v -0.089400 1.426284 0.209809
v -0.084843 1.511127 0.195629
v -0.084843 1.230654 -0.084843
v -0.000000 1.216475 -0.089400
v 0.084843 1.230654 -0.084843
v -0.089400 1.216475 0.000000
v 0.000000 1.200997 0.000000
v 0.089400 1.216475 -0.000000
v -0.084843 1.230654 0.084843
v 0.000000 1.216475 0.089400
v 0.084843 1.230654 0.084843
v 0.084843 1.621913 -0.084843
v 0.000000 1.636093 -0.089400
v -0.084843 1.621913 -0.084843
v 0.089400 1.636093 0.000000
v -0.000000 1.651571 0.000000
v -0.089400 1.636093 -0.000000
v 0.084843 1.621913 0.084843
v -0.000000 1.636093 0.089400
v -0.084843 1.621913 0.084843
v -0.558722 0.634921 0.062058
v -0.404307 1.207293 0.062058
v -0.558722 0.634921 -0.056598
v -0.404307 1.207293 -0.056598
v -0.411058 0.595085 0.062058
v -0.256644 1.167456 0.062058
v -0.411058 0.595085 -0.056598
v -0.256644 1.167456 -0.056598
v 0.409623 0.595085 0.061949
v 0.255209 1.167456 0.061949
v 0.409623 0.595085 -0.056488
v 0.255209 1.167456 -0.056488
v 0.557286 0.634922 0.061949
v 0.402872 1.207293 0.061949
v 0.557286 0.634922 -0.056488
v 0.402872 1.207293 -0.056488
v -0.041452 0.371888 -0.083774
v -0.041452 -0.022232 -0.083774
v -0.041452 0.371888 0.083774
v -0.041452 -0.022232 0.083774
v -0.171483 0.371888 -0.083774
v -0.171483 -0.022232 -0.083774
v -0.171483 0.371888 0.083774
v -0.171483 -0.022232 0.083774
v 0.185549 0.371888 -0.083774
v 0.185549 -0.022232 -0.083774
v 0.185549 0.371888 0.083774
v 0.185549 -0.022232 0.083774
v 0.055518 0.371888 -0.083774
v 0.055518 -0.022232 -0.083774
v 0.055518 0.371888 0.083774
v 0.055518 -0.022232 0.083774
vt 1.000000 0.000000
vt 0.666667 0.333333
vt 0.666667 0.000000
vt 0.333333 0.333333
vt 0.000000 0.000000
vt 0.333333 0.000000
vt 0.333333 0.666667
vt 0.000000 0.333333
vt 0.333333 0.333333
vt 0.666667 0.000000
vt 0.333333 0.000000
vt 0.666667 0.666667
vt 0.333333 0.333333
vt 0.666667 0.333333
vt 0.333333 1.000000
vt 0.000000 0.666667
vt 0.333333 0.666667
vt 0.000000 0.000000
vt 0.000000 0.000000
vt 0.000000 0.000000
vt 0.000000 0.000000
vt 0.000000 0.000000
vt 0.000000 0.000000
vt 0.000000 0.000000
vt 0.000000 0.000000
vt 0.000000 0.000000
vt 0.000000 0.000000
vt 0.000000 0.000000
vt 0.000000 0.000000
vt 0.000000 0.000000
vt 0.000000 0.000000
vt 0.000000 0.000000
vt 0.000000 0.000000
vt 0.000000 0.000000
vt 0.000000 0.000000
vt 0.000000 0.000000
vt 0.000000 0.000000
vt 0.000000 0.000000
vt 0.000000 0.000000
vt 0.000000 0.000000
vt 0.000000 0.000000
vt 0.000000 0.000000
vt 0.000000 0.000000
vt 0.000000 0.000000
vt 0.000000 0.000000
vt 0.000000 0.000000
vt 0.000000 0.000000
vt 0.000000 0.000000
vt 0.000000 0.000000
vt 0.000000 0.000000
vt 0.000000 0.000000
vt 0.000000 0.000000
vt 0.000000 0.000000
vt 0.000000 0.000000
vt 0.000000 0.000000
vt 0.000000 0.000000
vt 0.000000 0.000000
vt 0.000000 0.000000
vt 0.000000 0.000000
vt 0.000000 0.000000
vt 0.000000 0.000000
vt 0.000000 0.000000
vt 0.000000 0.000000
vt 0.000000 0.000000
vt 0.000000 0.000000
vt 0.000000 0.000000
vt 0.000000 0.000000
vt 0.000000 0.000000
vt 0.000000 0.000000
vt 0.000000 0.000000
vt 0.000000 0.000000
vt 0.000000 0.000000
vt 0.000000 0.000000
vt 0.000000 0.000000
vt 0.000000 0.000000
vt 0.000000 0.000000
vt 0.000000 0.000000
vt 0.000000 0.000000
vt 0.000000 0.000000
vt 0.000000 0.000000
vt 0.000000 0.000000
vt 0.000000 0.000000
vt 0.000000 0.000000
vt 0.000000 0.000000
vt 0.000000 0.000000
vt 0.000000 0.000000
vt 0.000000 0.000000
vt 0.000000 0.000000
vt 0.000000 0.000000
vt 0.000000 0.000000
vt 0.000000 0.000000
vt 0.000000 0.000000
vt 0.000000 0.000000
vt 0.000000 0.000000
vt 0.000000 0.000000
vt 0.000000 0.000000
vt 0.000000 0.000000
vt 0.000000 0.000000
vt 0.000000 0.000000
vt 0.000000 0.000000
vt 0.000000 0.000000
vt 0.000000 0.000000
vt 0.000000 0.000000
vt 0.000000 0.000000
vt 0.000000 0.000000
vt 0.000000 0.000000
vt 0.000000 0.000000
vt 0.000000 0.000000
vt 0.000000 0.000000
vt 0.000000 0.000000
vt 0.000000 0.000000
vt 0.000000 0.000000
vt 0.000000 0.000000
vt 0.000000 0.000000
vt 0.000000 0.000000
vt 0.000000 0.000000
vt 0.000000 0.000000
vt 0.000000 0.000000
vt 0.000000 0.000000
vt 0.000000 0.000000
vt 0.000000 0.000000
vt 0.000000 0.000000
vt 0.000000 0.000000
vt 0.000000 0.000000
vt 0.000000 0.000000
vt 0.000000 0.000000
vt 0.000000 0.000000
vt 0.000000 0.000000
vt 0.000000 0.000000
vt 0.000000 0.000000
vt 0.000000 0.000000
vt 0.000000 0.000000
vt 0.000000 0.000000
vt 0.000000 0.000000
vt 0.000000 0.000000
vt 0.000000 0.000000
vt 0.000000 0.000000
vt 0.000000 0.000000
vt 0.000000 0.000000
vt 0.000000 0.000000
vt 0.000000 0.000000
vt 0.000000 0.000000
vt 0.000000 0.000000
vt 0.000000 0.000000
vt 0.000000 0.000000
vt 0.000000 0.000000
vt 1.000000 0.333333
vt 0.000000 0.333333
vt 0.000000 0.666667
vt 0.666667 0.333333
vt 0.333333 0.666667
vt 0.000000 1.000000
vt 0.000000 0.000000
vn 0.0000 1.0000 0.0000
vn 0.0000 0.0000 1.0000
vn -1.0000 0.0000 0.0000
vn 0.0000 -1.0000 0.0000
vn 1.0000 0.0000 0.0000
vn 0.0000 0.0000 -1.0000
vn -0.9708 -0.1681 0.1713
vn -0.9708 0.1713 0.1681
vn -0.9708 -0.1681 -0.1713
vn -0.9708 0.1713 -0.1681
vn -0.7501 -0.4896 0.4446
vn -0.8367 -0.1678 0.5213
vn -0.8367 0.1677 0.5214
vn -0.7501 0.4446 0.4896
vn -0.8367 0.5213 0.1678
vn -0.8367 0.5213 -0.1678
vn -0.7501 0.4446 -0.4896
vn -0.8367 0.1677 -0.5214
vn -0.8367 -0.1678 -0.5213
vn -0.7501 -0.4896 -0.4446
vn -0.8367 -0.5214 -0.1677
vn -0.8367 -0.5214 0.1677
vn -0.1714 -0.1714 -0.9702
vn -0.1682 0.1682 -0.9713
vn 0.1714 -0.1714 -0.9702
vn 0.1682 0.1682 -0.9713
vn -0.4386 -0.4386 -0.7844
vn -0.5213 -0.1677 -0.8367
vn -0.5214 0.1678 -0.8367
vn -0.4816 0.4816 -0.7322
vn -0.1678 0.5214 -0.8367
vn 0.1678 0.5214 -0.8367
vn 0.4816 0.4816 -0.7322
vn 0.5214 0.1678 -0.8367
vn 0.5213 -0.1677 -0.8367
vn 0.4386 -0.4386 -0.7844
vn 0.1677 -0.5213 -0.8367
vn -0.1677 -0.5213 -0.8367
vn 0.9708 -0.1681 -0.1713
vn 0.9708 0.1713 -0.1681
vn 0.9708 -0.1681 0.1713
vn 0.9708 0.1713 0.1681
vn 0.7501 -0.4896 -0.4446
vn 0.8367 -0.1678 -0.5213
vn 0.8367 0.1677 -0.5214
vn 0.7501 0.4446 -0.4896
vn 0.8367 0.5213 -0.1678
vn 0.8367 0.5213 0.1678
vn 0.7501 0.4446 0.4896
vn 0.8367 0.1677 0.5214
vn 0.8367 -0.1678 0.5213
vn 0.7501 -0.4896 0.4446
vn 0.8367 -0.5214 0.1677
vn 0.8367 -0.5214 -0.1677
vn 0.1714 -0.1714 0.9702
vn 0.1682 0.1682 0.9713
vn -0.1714 -0.1714 0.9702
vn -0.1682 0.1682 0.9713
vn 0.4386 -0.4386 0.7844
vn 0.5213 -0.1677 0.8367
vn 0.5214 0.1678 0.8367
vn 0.4816 0.4816 0.7322
vn 0.1678 0.5214 0.8367
vn -0.1678 0.5214 0.8367
vn -0.4816 0.4816 0.7322
vn -0.5214 0.1678 0.8367
vn -0.5213 -0.1677 0.8367
vn -0.4386 -0.4386 0.7844
vn -0.1677 -0.5213 0.8367
vn 0.1677 -0.5213 0.8367
vn -0.1681 -0.9708 -0.1713
vn 0.1713 -0.9708 -0.1681
vn -0.1681 -0.9708 0.1713
vn 0.1713 -0.9708 0.1681
vn -0.4896 -0.7501 -0.4446
vn -0.1678 -0.8367 -0.5213
vn 0.1677 -0.8367 -0.5214
vn 0.4446 -0.7501 -0.4896
vn 0.5213 -0.8367 -0.1678
vn 0.5213 -0.8367 0.1678
vn 0.4446 -0.7501 0.4896
vn 0.1677 -0.8367 0.5214
vn -0.1678 -0.8367 0.5213
vn -0.4896 -0.7501 0.4446
vn -0.5214 -0.8367 0.1677
vn -0.5214 -0.8367 -0.1677
vn 0.1681 0.9708 -0.1713
vn -0.1713 0.9708 -0.1681
vn 0.1681 0.9708 0.1713
vn -0.1713 0.9708 0.1681
vn 0.4896 0.7501 -0.4446
vn 0.1678 0.8367 -0.5213
vn -0.1677 0.8367 -0.5214
vn -0.4446 0.7501 -0.4896
vn -0.5213 0.8367 -0.1678
vn -0.5213 0.8367 0.1678
vn -0.4446 0.7501 0.4896
vn -0.1677 0.8367 0.5214
vn 0.1678 0.8367 0.5213
vn 0.4896 0.7501 0.4446
vn 0.5214 0.8367 0.1677
vn 0.5214 0.8367 -0.1677
vn -0.9655 0.2605 0.0000
vn 0.9655 -0.2605 0.0000
vn -0.2605 -0.9655 0.0000
vn 0.2605 0.9655 0.0000
vn -0.9655 -0.2605 0.0000
vn 0.9655 0.2605 0.0000
vn 0.2605 -0.9655 0.0000
vn -0.2605 0.9655 0.0000
vn -0.9708 -0.1713 0.1681
vn -0.9708 0.1681 0.1713
vn -0.9708 -0.1713 -0.1681
vn -0.9708 0.1681 -0.1713
vn -0.7501 -0.4446 0.4896
vn -0.8367 -0.1677 0.5214
vn -0.8367 0.1678 0.5213
vn -0.7501 0.4896 0.4446
vn -0.8367 0.5214 0.1677
vn -0.8367 0.5214 -0.1677
vn -0.7501 0.4896 -0.4446
vn -0.8367 0.1678 -0.5213
vn -0.8367 -0.1677 -0.5214
vn -0.7501 -0.4446 -0.4896
vn -0.8367 -0.5213 -0.1678
vn -0.8367 -0.5213 0.1678
vn -0.1682 -0.1682 -0.9713
vn -0.1714 0.1714 -0.9702
vn 0.1682 -0.1682 -0.9713
vn 0.1714 0.1714 -0.9702
vn -0.4816 -0.4816 -0.7322
vn -0.5214 -0.1678 -0.8367
vn -0.5213 0.1677 -0.8367
vn -0.4386 0.4386 -0.7844
vn -0.1677 0.5213 -0.8367
vn 0.1677 0.5213 -0.8367
vn 0.4386 0.4386 -0.7844
vn 0.5213 0.1677 -0.8367
vn 0.5214 -0.1678 -0.8367
vn 0.4816 -0.4816 -0.7322
vn 0.1678 -0.5214 -0.8367
vn -0.1678 -0.5214 -0.8367
vn 0.9708 -0.1713 -0.1681
vn 0.9708 0.1681 -0.1713
vn 0.9708 -0.1713 0.1681
vn 0.9708 0.1681 0.1713
vn 0.7501 -0.4446 -0.4896
vn 0.8367 -0.1677 -0.5214
vn 0.8367 0.1678 -0.5213
vn 0.7501 0.4896 -0.4446
vn 0.8367 0.5214 -0.1677
vn 0.8367 0.5214 0.1677
vn 0.7501 0.4896 0.4446
vn 0.8367 0.1678 0.5213
vn 0.8367 -0.1677 0.5214
vn 0.7501 -0.4446 0.4896
vn 0.8367 -0.5213 0.1678
vn 0.8367 -0.5213 -0.1678
vn 0.1682 -0.1682 0.9713
vn 0.1714 0.1714 0.9702
vn -0.1682 -0.1682 0.9713
vn -0.1714 0.1714 0.9702
vn 0.4816 -0.4816 0.7322
vn 0.5214 -0.1678 0.8367
vn 0.5213 0.1677 0.8367
vn 0.4386 0.4386 0.7844
vn 0.1677 0.5213 0.8367
vn -0.1677 0.5213 0.8367
vn -0.4386 0.4386 0.7844
vn -0.5213 0.1677 0.8367
vn -0.5214 -0.1678 0.8367
vn -0.4816 -0.4816 0.7322
vn -0.1678 -0.5214 0.8367
vn 0.1678 -0.5214 0.8367
vn -0.1713 -0.9708 -0.1681
vn 0.1681 -0.9708 -0.1713
vn -0.1713 -0.9708 0.1681
vn 0.1681 -0.9708 0.1713
vn -0.4446 -0.7501 -0.4896
vn -0.1677 -0.8367 -0.5214
vn 0.1678 -0.8367 -0.5213
vn 0.4896 -0.7501 -0.4446
vn 0.5214 -0.8367 -0.1677
vn 0.5214 -0.8367 0.1677
vn 0.4896 -0.7501 0.4446
vn 0.1678 -0.8367 0.5213
vn -0.1677 -0.8367 0.5214
vn -0.4446 -0.7501 0.4896
vn -0.5213 -0.8367 0.1678
vn -0.5213 -0.8367 -0.1678
vn 0.1713 0.9708 -0.1681
vn -0.1681 0.9708 -0.1713
vn 0.1713 0.9708 0.1681
vn -0.1681 0.9708 0.1713
vn 0.4446 0.7501 -0.4896
vn 0.1677 0.8367 -0.5214
vn -0.1678 0.8367 -0.5213
vn -0.4896 0.7501 -0.4446
vn -0.5214 0.8367 -0.1677
vn -0.5214 0.8367 0.1677
vn -0.4896 0.7501 0.4446
vn -0.1678 0.8367 0.5213
vn 0.1677 0.8367 0.5214
vn 0.4446 0.7501 0.4896
vn 0.5213 0.8367 0.1678
vn 0.5213 0.8367 -0.1678
usemtl (null)
s off
f 5/1/1 3/2/1 1/3/1
f 3/4/2 8/5/2 4/6/2
f 7/7/3 6/8/3 8/9/3
f 2/10/4 8/9/4 6/11/4
f 1/12/5 4/13/5 2/14/5
f 5/15/6 2/16/6 6/17/6
f 53/18/7 57/19/7 56/20/7
f 55/21/8 57/19/8 54/22/8
f 57/19/9 59/23/9 56/20/9
f 57/19/10 61/24/10 60/25/10
f 9/26/11 53/18/11 19/27/11
f 20/28/12 54/22/12 53/18/12
f 22/29/13 54/22/13 21/30/13
f 10/31/14 55/21/14 22/29/14
f 23/32/15 58/33/15 55/21/15
f 58/33/16 25/34/16 61/24/16
f 61/24/17 12/35/17 26/36/17
f 60/25/18 26/36/18 27/37/18
f 60/25/19 28/38/19 59/23/19
f 59/23/20 11/39/20 17/40/20
f 56/20/21 17/40/21 18/41/21
f 19/27/22 56/20/22 18/41/22
f 63/42/23 65/43/23 62/44/23
f 63/42/24 67/45/24 66/46/24
f 65/43/25 69/47/25 68/48/25
f 67/45/26 69/47/26 66/46/26
f 28/38/27 31/49/27 11/39/27
f 27/37/28 62/44/28 28/38/28
f 27/37/29 64/50/29 63/42/29
f 26/36/30 32/51/30 64/50/30
f 64/50/31 33/52/31 67/45/31
f 33/52/32 70/53/32 67/45/32
f 34/54/33 35/55/33 70/53/33
f 70/53/34 36/56/34 69/47/34
f 68/48/35 36/56/35 37/57/35
f 29/58/36 37/57/36 15/59/36
f 30/60/37 68/48/37 29/58/37
f 62/44/38 30/60/38 31/49/38
f 71/61/39 75/62/39 74/63/39
f 73/64/40 75/62/40 72/65/40
f 75/62/41 77/66/41 74/63/41
f 75/62/42 79/67/42 78/68/42
f 15/59/43 71/61/43 40/69/43
f 37/57/44 72/65/44 71/61/44
f 35/55/45 72/65/45 36/56/45
f 16/70/46 73/64/46 35/55/46
f 41/71/47 76/72/47 73/64/47
f 76/72/48 43/73/48 79/67/48
f 79/67/49 14/74/49 44/75/49
f 78/68/50 44/75/50 45/76/50
f 78/68/51 46/77/51 77/66/51
f 77/66/52 13/78/52 38/79/52
f 74/63/53 38/79/53 39/80/53
f 40/69/54 74/63/54 39/80/54
f 81/81/55 83/82/55 80/83/55
f 81/81/56 85/84/56 84/85/56
f 83/82/57 87/86/57 86/87/57
f 85/84/58 87/86/58 84/85/58
f 46/77/59 49/88/59 13/78/59
f 45/76/60 80/83/60 46/77/60
f 45/76/61 82/89/61 81/81/61
f 44/75/62 50/90/62 82/89/62
f 82/89/63 51/91/63 85/84/63
f 51/91/64 88/92/64 85/84/64
f 52/93/65 22/29/65 88/92/65
f 88/92/66 21/30/66 87/86/66
f 86/87/67 21/30/67 20/28/67
f 47/94/68 20/28/68 9/26/68
f 48/95/69 86/87/69 47/94/69
f 80/83/70 48/95/70 49/88/70
f 89/96/71 93/97/71 92/98/71
f 91/99/72 93/97/72 90/100/72
f 93/97/73 95/101/73 92/98/73
f 93/97/74 97/102/74 96/103/74
f 11/39/75 89/96/75 17/40/75
f 31/49/76 90/100/76 89/96/76
f 29/58/77 90/100/77 30/60/77
f 15/59/78 91/99/78 29/58/78
f 40/69/79 94/104/79 91/99/79
f 94/104/80 38/79/80 97/102/80
f 97/102/81 13/78/81 49/88/81
f 96/103/82 49/88/82 48/95/82
f 96/103/83 47/94/83 95/101/83
f 95/101/84 9/26/84 19/27/84
f 92/98/85 19/27/85 18/41/85
f 17/40/86 92/98/86 18/41/86
f 98/105/87 102/106/87 101/107/87
f 100/108/88 102/106/88 99/109/88
f 102/106/89 104/110/89 101/107/89
f 102/106/90 106/111/90 105/112/90
f 16/70/91 98/105/91 41/71/91
f 34/54/92 99/109/92 98/105/92
f 32/51/93 99/109/93 33/52/93
f 12/35/94 100/108/94 32/51/94
f 25/34/95 103/113/95 100/108/95
f 103/113/96 23/32/96 106/111/96
f 106/111/97 10/31/97 52/93/97
f 105/112/98 52/93/98 51/91/98
f 105/112/99 50/90/99 104/110/99
f 104/110/100 14/74/100 43/73/100
f 101/107/101 43/73/101 42/114/101
f 41/71/102 101/107/102 42/114/102
f 108/115/103 109/116/103 107/117/103
f 110/118/6 113/119/6 109/116/6
f 114/120/104 111/121/104 113/119/104
f 111/121/2 108/115/2 107/117/2
f 113/119/105 107/117/105 109/116/105
f 110/118/106 112/122/106 114/120/106
f 116/123/107 117/124/107 115/125/107
f 117/124/6 122/126/6 121/127/6
f 122/126/108 119/128/108 121/127/108
f 120/129/2 115/125/2 119/128/2
f 121/127/109 115/125/109 117/124/109
f 118/130/110 120/129/110 122/126/110
f 124/131/3 125/132/3 123/133/3
f 126/134/6 129/135/6 125/132/6
f 130/136/5 127/137/5 129/135/5
f 128/138/2 123/133/2 127/137/2
f 129/135/4 123/133/4 125/132/4
f 126/134/1 128/138/1 130/136/1
f 132/139/3 133/140/3 131/141/3
f 134/142/6 137/143/6 133/140/6
f 138/144/5 135/145/5 137/143/5
f 136/146/2 131/141/2 135/145/2
f 137/143/4 131/141/4 133/140/4
f 134/142/1 136/146/1 138/144/1
f 5/1/1 7/147/1 3/2/1
f 3/4/2 7/148/2 8/5/2
f 7/7/3 5/149/3 6/8/3
f 2/10/4 4/150/4 8/9/4
f 1/12/5 3/151/5 4/13/5
f 5/15/6 1/152/6 2/16/6
f 53/18/111 54/22/111 57/19/111
f 55/21/112 58/33/112 57/19/112
f 57/19/113 60/25/113 59/23/113
f 57/19/114 58/33/114 61/24/114
f 9/26/115 20/28/115 53/18/115
f 20/28/116 21/30/116 54/22/116
f 22/29/117 55/21/117 54/22/117
f 10/31/118 23/32/118 55/21/118
f 23/32/119 24/153/119 58/33/119
f 58/33/120 24/153/120 25/34/120
f 61/24/121 25/34/121 12/35/121
f 60/25/122 61/24/122 26/36/122
f 60/25/123 27/37/123 28/38/123
f 59/23/124 28/38/124 11/39/124
f 56/20/125 59/23/125 17/40/125
f 19/27/126 53/18/126 56/20/126
f 63/42/127 66/46/127 65/43/127
f 63/42/128 64/50/128 67/45/128
f 65/43/129 66/46/129 69/47/129
f 67/45/130 70/53/130 69/47/130
f 28/38/131 62/44/131 31/49/131
f 27/37/132 63/42/132 62/44/132
f 27/37/133 26/36/133 64/50/133
f 26/36/134 12/35/134 32/51/134
f 64/50/135 32/51/135 33/52/135
f 33/52/136 34/54/136 70/53/136
f 34/54/137 16/70/137 35/55/137
f 70/53/138 35/55/138 36/56/138
f 68/48/139 69/47/139 36/56/139
f 29/58/140 68/48/140 37/57/140
f 30/60/141 65/43/141 68/48/141
f 62/44/142 65/43/142 30/60/142
f 71/61/143 72/65/143 75/62/143
f 73/64/144 76/72/144 75/62/144
f 75/62/145 78/68/145 77/66/145
f 75/62/146 76/72/146 79/67/146
f 15/59/147 37/57/147 71/61/147
f 37/57/148 36/56/148 72/65/148
f 35/55/149 73/64/149 72/65/149
f 16/70/150 41/71/150 73/64/150
f 41/71/151 42/114/151 76/72/151
f 76/72/152 42/114/152 43/73/152
f 79/67/153 43/73/153 14/74/153
f 78/68/154 79/67/154 44/75/154
f 78/68/155 45/76/155 46/77/155
f 77/66/156 46/77/156 13/78/156
f 74/63/157 77/66/157 38/79/157
f 40/69/158 71/61/158 74/63/158
f 81/81/159 84/85/159 83/82/159
f 81/81/160 82/89/160 85/84/160
f 83/82/161 84/85/161 87/86/161
f 85/84/162 88/92/162 87/86/162
f 46/77/163 80/83/163 49/88/163
f 45/76/164 81/81/164 80/83/164
f 45/76/165 44/75/165 82/89/165
f 44/75/166 14/74/166 50/90/166
f 82/89/167 50/90/167 51/91/167
f 51/91/168 52/93/168 88/92/168
f 52/93/169 10/31/169 22/29/169
f 88/92/170 22/29/170 21/30/170
f 86/87/171 87/86/171 21/30/171
f 47/94/172 86/87/172 20/28/172
f 48/95/173 83/82/173 86/87/173
f 80/83/174 83/82/174 48/95/174
f 89/96/175 90/100/175 93/97/175
f 91/99/176 94/104/176 93/97/176
f 93/97/177 96/103/177 95/101/177
f 93/97/178 94/104/178 97/102/178
f 11/39/179 31/49/179 89/96/179
f 31/49/180 30/60/180 90/100/180
f 29/58/181 91/99/181 90/100/181
f 15/59/182 40/69/182 91/99/182
f 40/69/183 39/80/183 94/104/183
f 94/104/184 39/80/184 38/79/184
f 97/102/185 38/79/185 13/78/185
f 96/103/186 97/102/186 49/88/186
f 96/103/187 48/95/187 47/94/187
f 95/101/188 47/94/188 9/26/188
f 92/98/189 95/101/189 19/27/189
f 17/40/190 89/96/190 92/98/190
f 98/105/191 99/109/191 102/106/191
f 100/108/192 103/113/192 102/106/192
f 102/106/193 105/112/193 104/110/193
f 102/106/194 103/113/194 106/111/194
f 16/70/195 34/54/195 98/105/195
f 34/54/196 33/52/196 99/109/196
f 32/51/197 100/108/197 99/109/197
f 12/35/198 25/34/198 100/108/198
f 25/34/199 24/153/199 103/113/199
f 103/113/200 24/153/200 23/32/200
f 106/111/201 23/32/201 10/31/201
f 105/112/202 106/111/202 52/93/202
f 105/112/203 51/91/203 50/90/203
f 104/110/204 50/90/204 14/74/204
f 101/107/205 104/110/205 43/73/205
f 41/71/206 98/105/206 101/107/206
f 108/115/103 110/118/103 109/116/103
f 110/118/6 114/120/6 113/119/6
f 114/120/104 112/122/104 111/121/104
f 111/121/2 112/122/2 108/115/2
f 113/119/105 111/121/105 107/117/105
f 110/118/106 108/115/106 112/122/106
f 116/123/107 118/130/107 117/124/107
f 117/124/6 118/130/6 122/126/6
f 122/126/108 120/129/108 119/128/108
f 120/129/2 116/123/2 115/125/2
f 121/127/109 119/128/109 115/125/109
f 118/130/110 116/123/110 120/129/110
f 124/131/3 126/134/3 125/132/3
f 126/134/6 130/136/6 129/135/6
f 130/136/5 128/138/5 127/137/5
f 128/138/2 124/131/2 123/133/2
f 129/135/4 127/137/4 123/133/4
f 126/134/1 124/131/1 128/138/1
f 132/139/3 134/142/3 133/140/3
f 134/142/6 138/144/6 137/143/6
f 138/144/5 136/146/5 135/145/5
f 136/146/2 132/139/2 131/141/2
f 137/143/4 135/145/4 131/141/4
f 134/142/1 132/139/1 136/146/1
