# Blender v3.1.2 OBJ File: ''
# www.blender.org
mtllib ropepin.mtl
o 立方体.004
v -1.006719 0.392487 0.392487
v -0.809829 0.392487 0.392487
v -0.809829 0.392487 -0.392487
v -1.006719 0.392487 -0.392487
v -0.809829 -0.392487 -0.392487
v -1.006719 -0.392487 -0.392487
v -0.809829 -0.392487 0.392487
v -1.006719 -0.392487 0.392487
v -0.816211 0.060897 0.065159
v 0.642516 0.060897 0.065159
v 0.642516 0.060897 -0.065159
v -0.816211 0.060897 -0.065159
v 0.642516 -0.069422 -0.065159
v -0.816211 -0.069422 -0.065159
v 0.642516 -0.069422 0.065159
v -0.816211 -0.069422 0.065159
v 0.787523 -0.113283 -0.049130
v 0.738393 -0.121494 -0.051769
v 0.738393 -0.130457 -0.000000
v 0.790162 -0.121494 -0.000000
v 0.689263 -0.113283 -0.049130
v 0.686624 -0.121494 -0.000000
v 0.738393 -0.121494 0.051769
v 0.787523 -0.113283 0.049130
v 0.689263 -0.113283 0.049130
v 0.816092 -0.077699 -0.077699
v 0.784492 -0.089032 -0.089032
v 0.827426 -0.089032 -0.046099
v 0.738393 -0.094725 -0.094725
v 0.692294 -0.089032 -0.089032
v 0.660694 -0.077699 -0.077699
v 0.649361 -0.089032 -0.046099
v 0.643668 -0.094725 -0.000000
v 0.649361 -0.089032 0.046099
v 0.660694 -0.077699 0.077699
v 0.692294 -0.089032 0.089032
v 0.738393 -0.094725 0.094725
v 0.784492 -0.089032 0.089032
v 0.827426 -0.089032 0.046099
v 0.816092 -0.077699 0.077699
v 0.833118 -0.094725 -0.000000
v 0.787523 -0.049130 0.113283
v 0.738393 -0.051769 0.121494
v 0.738393 -0.000000 0.130457
v 0.790162 -0.000000 0.121494
v 0.689263 -0.049130 0.113283
v 0.686624 -0.000000 0.121494
v 0.738393 0.051769 0.121494
v 0.787523 0.049130 0.113283
v 0.689263 0.049130 0.113283
v 0.827426 -0.046099 0.089032
v 0.649361 -0.046099 0.089032
v 0.643668 -0.000000 0.094725
v 0.649361 0.046099 0.089032
v 0.660694 0.077699 0.077699
v 0.692294 0.089032 0.089032
v 0.738393 0.094725 0.094725
v 0.784492 0.089032 0.089032
v 0.827426 0.046099 0.089032
v 0.816092 0.077699 0.077699
v 0.833118 -0.000000 0.094725
v 0.787523 0.113283 0.049130
v 0.738393 0.121494 0.051769
v 0.738393 0.130457 0.000000
v 0.790162 0.121494 0.000000
v 0.689263 0.113283 0.049130
v 0.686624 0.121494 0.000000
v 0.738393 0.121494 -0.051769
v 0.787523 0.113283 -0.049130
v 0.689263 0.113283 -0.049130
v 0.827426 0.089032 0.046099
v 0.649361 0.089032 0.046099
v 0.643668 0.094725 0.000000
v 0.649361 0.089032 -0.046099
v 0.660694 0.077699 -0.077699
v 0.692294 0.089032 -0.089032
v 0.738393 0.094725 -0.094725
v 0.784492 0.089032 -0.089032
v 0.827426 0.089032 -0.046099
v 0.816092 0.077699 -0.077699
v 0.833118 0.094725 0.000000
v 0.787523 0.049130 -0.113283
v 0.738393 0.051769 -0.121494
v 0.738393 0.000000 -0.130457
v 0.790162 0.000000 -0.121494
v 0.689263 0.049130 -0.113283
v 0.686624 0.000000 -0.121494
v 0.738393 -0.051769 -0.121494
v 0.787523 -0.049130 -0.113283
v 0.689263 -0.049130 -0.113283
v 0.827426 0.046099 -0.089032
v 0.649361 0.046099 -0.089032
v 0.643668 0.000000 -0.094725
v 0.649361 -0.046099 -0.089032
v 0.827426 -0.046099 -0.089032
v 0.833118 0.000000 -0.094725
v 0.851677 -0.049130 0.049130
v 0.859887 -0.000000 0.051769
v 0.868850 0.000000 0.000000
v 0.859887 -0.051769 -0.000000
v 0.851677 0.049130 0.049130
v 0.859887 0.051769 0.000000
v 0.859887 0.000000 -0.051769
v 0.851677 -0.049130 -0.049130
v 0.851677 0.049130 -0.049130
v 0.625110 0.049130 0.049130
v 0.616899 -0.000000 0.051769
v 0.607936 0.000000 0.000000
v 0.616899 0.051769 0.000000
v 0.625110 -0.049130 0.049130
v 0.616899 -0.051769 -0.000000
v 0.616899 0.000000 -0.051769
v 0.625110 0.049130 -0.049130
v 0.625110 -0.049130 -0.049130
vt 0.868794 0.174904
vt 0.810412 0.116523
vt 0.868794 0.116523
vt 0.799590 0.090266
vt 0.746309 0.036985
vt 0.799590 0.036985
vt 0.941534 0.195889
vt 0.882605 0.136960
vt 0.941534 0.136960
vt 0.714266 0.433713
vt 0.650096 0.369544
vt 0.714266 0.369544
vt 0.927176 0.058141
vt 0.868794 0.058141
vt 0.746309 0.143547
vt 0.746309 0.090266
vt 0.239765 0.238332
vt 0.001434 0.000000
vt 0.239765 0.000000
vt 0.238332 0.714995
vt 0.000000 0.476663
vt 0.238332 0.476663
vt 0.476663 0.476663
vt 0.238332 0.238332
vt 0.476663 0.238332
vt 0.476663 0.238332
vt 0.238332 0.000000
vt 0.476663 0.000000
vt 0.238332 0.238332
vt 0.000000 0.476663
vt 0.000000 0.238332
vt 0.000000 0.953326
vt 0.000000 0.714995
vt 0.889723 0.937596
vt 0.877592 0.928631
vt 0.888917 0.927500
vt 0.868841 0.939016
vt 0.879043 0.939217
vt 0.887582 0.916776
vt 0.866701 0.918196
vt 0.876787 0.917279
vt 0.897700 0.941712
vt 0.899011 0.935338
vt 0.890823 0.945056
vt 0.871230 0.946388
vt 0.880945 0.947172
vt 0.967833 0.764464
vt 0.961143 0.754858
vt 0.971631 0.759957
vt 0.959353 0.762785
vt 0.948817 0.753804
vt 0.866914 0.928996
vt 0.859162 0.918376
vt 0.861291 0.911032
vt 0.867351 0.908659
vt 0.876818 0.907030
vt 0.886943 0.907327
vt 0.894315 0.908786
vt 0.897003 0.915803
vt 0.899011 0.925732
vt 0.925217 0.684875
vt 0.935283 0.672930
vt 0.936952 0.685106
vt 0.922754 0.660926
vt 0.922999 0.673349
vt 0.949237 0.683242
vt 0.946774 0.659292
vt 0.948310 0.671628
vt 0.888499 0.900436
vt 0.897617 0.904868
vt 0.877785 0.899519
vt 0.914083 0.661133
vt 0.913610 0.672744
vt 0.916532 0.652684
vt 0.923502 0.649955
vt 0.934357 0.659870
vt 0.946040 0.648422
vt 0.954519 0.650101
vt 0.957611 0.658173
vt 0.959922 0.669595
vt 0.959922 0.680645
vt 0.958414 0.687977
vt 0.950503 0.691823
vt 0.939140 0.694257
vt 0.927965 0.693356
vt 0.930224 0.837576
vt 0.943261 0.853049
vt 0.927352 0.852506
vt 0.961336 0.839692
vt 0.945424 0.837277
vt 0.927034 0.868597
vt 0.958146 0.870712
vt 0.942063 0.869964
vt 0.972745 0.959490
vt 0.964081 0.971932
vt 0.961762 0.961665
vt 0.933783 0.826592
vt 0.962975 0.828577
vt 0.948258 0.825424
vt 0.973222 0.833559
vt 0.975175 0.843056
vt 0.960135 0.854735
vt 0.972182 0.872162
vt 0.968177 0.882617
vt 0.957195 0.884791
vt 0.942108 0.885233
vt 0.928002 0.882806
vt 0.918974 0.879271
vt 0.915802 0.868328
vt 0.915190 0.853289
vt 0.948116 0.973298
vt 0.946675 0.962106
vt 0.933394 0.730071
vt 0.945923 0.718067
vt 0.944997 0.731127
vt 0.935857 0.706122
vt 0.933640 0.717648
vt 0.957414 0.731705
vt 0.959877 0.707755
vt 0.958950 0.719369
vt 0.927172 0.738313
vt 0.934142 0.741042
vt 0.924723 0.729864
vt 0.943548 0.896425
vt 0.959513 0.895059
vt 0.938605 0.697642
vt 0.947592 0.705891
vt 0.961143 0.699174
vt 0.969054 0.703020
vt 0.970562 0.710352
vt 0.970562 0.721402
vt 0.968251 0.732824
vt 0.965159 0.740896
vt 0.956680 0.742575
vt 0.945032 0.742915
vt 0.965903 0.916565
vt 0.947829 0.929922
vt 0.949992 0.914151
vt 0.962714 0.947586
vt 0.964703 0.931608
vt 0.934791 0.914450
vt 0.931602 0.945470
vt 0.931919 0.929379
vt 0.977790 0.910432
vt 0.967543 0.905451
vt 0.979743 0.919929
vt 0.976750 0.949035
vt 0.979743 0.934241
vt 0.946631 0.946837
vt 0.932570 0.959680
vt 0.923542 0.956145
vt 0.920370 0.945201
vt 0.919758 0.930162
vt 0.946144 0.751556
vt 0.958470 0.750502
vt 0.968958 0.745403
vt 0.938350 0.903466
vt 0.952825 0.902298
vt 0.938530 0.799238
vt 0.948596 0.787293
vt 0.950265 0.799469
vt 0.936067 0.775289
vt 0.936313 0.787712
vt 0.962550 0.797605
vt 0.960088 0.773655
vt 0.961623 0.785991
vt 0.947830 0.640495
vt 0.958318 0.645594
vt 0.935504 0.639441
vt 0.927396 0.775496
vt 0.926923 0.787107
vt 0.929845 0.767047
vt 0.936815 0.764318
vt 0.947670 0.774233
vt 0.970925 0.772536
vt 0.973235 0.783958
vt 0.973235 0.795008
vt 0.971727 0.802340
vt 0.963816 0.806186
vt 0.952453 0.808620
vt 0.941278 0.807718
vt 0.810412 0.174904
vt 0.882605 0.195889
vt 0.650096 0.433713
vt 0.927176 0.116523
vt 0.799590 0.143547
vt 0.001434 0.238332
vt 0.238332 0.476663
vt 0.238332 0.238332
vt 0.238332 0.476663
vt 0.238332 0.953326
vt 0.947705 0.762444
vt 0.858751 0.928470
vt 0.934392 0.648082
vt 0.977665 0.965329
vt 0.975175 0.857368
vt 0.924250 0.718253
vt 0.973097 0.888455
vt 0.949780 0.696740
vn 0.0000 1.0000 0.0000
vn 0.0000 0.0000 -1.0000
vn 0.0000 -1.0000 -0.0000
vn 0.0000 -0.0000 1.0000
vn -1.0000 0.0000 0.0000
vn 1.0000 0.0000 0.0000
vn -0.1697 0.9708 0.1697
vn -0.1681 0.9708 0.1713
vn 0.1697 0.9708 0.1697
vn 0.1713 0.9708 0.1681
vn -0.1697 0.9708 -0.1697
vn -0.1681 0.9708 -0.1713
vn 0.1697 0.9708 -0.1697
vn 0.1713 0.9708 -0.1681
vn -0.4673 0.7504 0.4674
vn -0.4896 0.7501 0.4446
vn -0.1678 0.8367 0.5213
vn 0.1678 0.8367 0.5213
vn 0.1677 0.8367 0.5214
vn 0.4674 0.7504 0.4674
vn 0.4446 0.7501 0.4896
vn 0.5213 0.8367 0.1678
vn 0.5213 0.8367 -0.1678
vn 0.4674 0.7504 -0.4674
vn 0.4446 0.7501 -0.4896
vn 0.1678 0.8367 -0.5213
vn 0.1677 0.8367 -0.5214
vn -0.1678 0.8367 -0.5213
vn -0.4673 0.7504 -0.4674
vn -0.4896 0.7501 -0.4446
vn -0.5213 0.8367 -0.1678
vn -0.5214 0.8367 -0.1677
vn -0.5213 0.8367 0.1678
vn -0.5214 0.8367 0.1677
vn -0.1697 0.1697 -0.9708
vn -0.1681 0.1713 -0.9708
vn 0.1697 0.1697 -0.9708
vn 0.1713 0.1681 -0.9708
vn -0.1697 -0.1697 -0.9708
vn -0.1681 -0.1713 -0.9708
vn 0.1697 -0.1697 -0.9708
vn 0.1713 -0.1681 -0.9708
vn -0.4673 0.4674 -0.7504
vn -0.4896 0.4446 -0.7501
vn -0.1678 0.5213 -0.8367
vn 0.1678 0.5213 -0.8367
vn 0.1677 0.5214 -0.8367
vn 0.4674 0.4674 -0.7504
vn 0.4446 0.4896 -0.7501
vn 0.5213 0.1678 -0.8367
vn 0.5213 -0.1678 -0.8367
vn 0.4674 -0.4674 -0.7504
vn 0.4446 -0.4896 -0.7501
vn 0.1678 -0.5213 -0.8367
vn 0.1677 -0.5214 -0.8367
vn -0.1678 -0.5213 -0.8367
vn -0.4673 -0.4674 -0.7504
vn -0.4896 -0.4446 -0.7501
vn -0.5213 -0.1678 -0.8367
vn -0.5214 -0.1677 -0.8367
vn -0.5213 0.1678 -0.8367
vn -0.5214 0.1677 -0.8367
vn -0.1697 -0.9708 -0.1697
vn -0.1681 -0.9708 -0.1713
vn 0.1697 -0.9708 -0.1697
vn 0.1713 -0.9708 -0.1681
vn -0.1697 -0.9708 0.1697
vn -0.1681 -0.9708 0.1713
vn 0.1697 -0.9708 0.1697
vn 0.1713 -0.9708 0.1681
vn -0.4673 -0.7504 -0.4674
vn -0.4896 -0.7501 -0.4446
vn -0.1678 -0.8367 -0.5213
vn 0.1678 -0.8367 -0.5213
vn 0.1677 -0.8367 -0.5214
vn 0.4674 -0.7504 -0.4674
vn 0.4446 -0.7501 -0.4896
vn 0.5213 -0.8367 -0.1678
vn 0.5213 -0.8367 0.1678
vn 0.4674 -0.7504 0.4674
vn 0.4446 -0.7501 0.4896
vn 0.1678 -0.8367 0.5213
vn 0.1677 -0.8367 0.5214
vn -0.1678 -0.8367 0.5213
vn -0.4673 -0.7504 0.4674
vn -0.4896 -0.7501 0.4446
vn -0.5213 -0.8367 0.1678
vn -0.5214 -0.8367 0.1677
vn -0.5213 -0.8367 -0.1678
vn -0.5214 -0.8367 -0.1677
vn -0.1697 -0.1697 0.9708
vn -0.1681 -0.1713 0.9708
vn 0.1697 -0.1697 0.9708
vn 0.1713 -0.1681 0.9708
vn -0.1697 0.1697 0.9708
vn -0.1681 0.1713 0.9708
vn 0.1697 0.1697 0.9708
vn 0.1713 0.1681 0.9708
vn -0.4673 -0.4674 0.7504
vn -0.4896 -0.4446 0.7501
vn -0.1678 -0.5213 0.8367
vn 0.1678 -0.5213 0.8367
vn 0.1677 -0.5214 0.8367
vn 0.4674 -0.4674 0.7504
vn 0.4446 -0.4896 0.7501
vn 0.5213 -0.1678 0.8367
vn 0.5213 0.1678 0.8367
vn 0.4674 0.4674 0.7504
vn 0.4446 0.4896 0.7501
vn 0.1678 0.5213 0.8367
vn 0.1677 0.5214 0.8367
vn -0.1678 0.5213 0.8367
vn -0.4673 0.4674 0.7504
vn -0.4896 0.4446 0.7501
vn -0.5213 0.1678 0.8367
vn -0.5214 0.1677 0.8367
vn -0.5213 -0.1678 0.8367
vn -0.5214 -0.1677 0.8367
vn -0.9708 0.1697 -0.1697
vn -0.9708 0.1681 -0.1713
vn -0.9708 -0.1697 -0.1697
vn -0.9708 -0.1713 -0.1681
vn -0.9708 0.1697 0.1697
vn -0.9708 0.1681 0.1713
vn -0.9708 -0.1697 0.1697
vn -0.9708 -0.1713 0.1681
vn -0.7504 0.4674 -0.4674
vn -0.7501 0.4896 -0.4446
vn -0.8367 0.1678 -0.5213
vn -0.8367 -0.1678 -0.5213
vn -0.8367 -0.1677 -0.5214
vn -0.7504 -0.4674 -0.4674
vn -0.7501 -0.4446 -0.4896
vn -0.8367 -0.5213 -0.1678
vn -0.8367 -0.5213 0.1678
vn -0.7504 -0.4674 0.4674
vn -0.7501 -0.4446 0.4896
vn -0.8367 -0.1678 0.5213
vn -0.8367 -0.1677 0.5214
vn -0.8367 0.1678 0.5213
vn -0.7504 0.4674 0.4674
vn -0.7501 0.4896 0.4446
vn -0.8367 0.5213 0.1678
vn -0.8367 0.5214 0.1677
vn -0.8367 0.5213 -0.1678
vn -0.8367 0.5214 -0.1677
vn 0.9708 -0.1697 -0.1697
vn 0.9708 -0.1681 -0.1713
vn 0.9708 0.1697 -0.1697
vn 0.9708 0.1713 -0.1681
vn 0.9708 -0.1697 0.1697
vn 0.9708 -0.1681 0.1713
vn 0.9708 0.1697 0.1697
vn 0.9708 0.1713 0.1681
vn 0.7504 -0.4674 -0.4674
vn 0.7501 -0.4896 -0.4446
vn 0.8367 -0.1678 -0.5213
vn 0.8367 0.1678 -0.5213
vn 0.8367 0.1677 -0.5214
vn 0.7504 0.4674 -0.4674
vn 0.7501 0.4446 -0.4896
vn 0.8367 0.5213 -0.1678
vn 0.8367 0.5213 0.1678
vn 0.7504 0.4674 0.4674
vn 0.7501 0.4446 0.4896
vn 0.8367 0.1678 0.5213
vn 0.8367 0.1677 0.5214
vn 0.8367 -0.1678 0.5213
vn 0.7504 -0.4674 0.4674
vn 0.7501 -0.4896 0.4446
vn 0.8367 -0.5213 0.1678
vn 0.8367 -0.5214 0.1677
vn 0.8367 -0.5213 -0.1678
vn 0.8367 -0.5214 -0.1677
vn -0.1713 0.9708 0.1681
vn 0.1681 0.9708 0.1713
vn -0.1713 0.9708 -0.1681
vn 0.1681 0.9708 -0.1713
vn -0.4446 0.7501 0.4896
vn -0.1677 0.8367 0.5214
vn 0.4896 0.7501 0.4446
vn 0.5214 0.8367 0.1677
vn 0.5214 0.8367 -0.1677
vn 0.4896 0.7501 -0.4446
vn -0.1677 0.8367 -0.5214
vn -0.4446 0.7501 -0.4896
vn -0.1713 0.1681 -0.9708
vn 0.1681 0.1713 -0.9708
vn -0.1713 -0.1681 -0.9708
vn 0.1681 -0.1713 -0.9708
vn -0.4446 0.4896 -0.7501
vn -0.1677 0.5214 -0.8367
vn 0.4896 0.4446 -0.7501
vn 0.5214 0.1677 -0.8367
vn 0.5214 -0.1677 -0.8367
vn 0.4896 -0.4446 -0.7501
vn -0.1677 -0.5214 -0.8367
vn -0.4446 -0.4896 -0.7501
vn -0.1713 -0.9708 -0.1681
vn 0.1681 -0.9708 -0.1713
vn -0.1713 -0.9708 0.1681
vn 0.1681 -0.9708 0.1713
vn -0.4446 -0.7501 -0.4896
vn -0.1677 -0.8367 -0.5214
vn 0.4896 -0.7501 -0.4446
vn 0.5214 -0.8367 -0.1677
vn 0.5214 -0.8367 0.1677
vn 0.4896 -0.7501 0.4446
vn -0.1677 -0.8367 0.5214
vn -0.4446 -0.7501 0.4896
vn -0.1713 -0.1681 0.9708
vn 0.1681 -0.1713 0.9708
vn -0.1713 0.1681 0.9708
vn 0.1681 0.1713 0.9708
vn -0.4446 -0.4896 0.7501
vn -0.1677 -0.5214 0.8367
vn 0.4896 -0.4446 0.7501
vn 0.5214 -0.1677 0.8367
vn 0.5214 0.1677 0.8367
vn 0.4896 0.4446 0.7501
vn -0.1677 0.5214 0.8367
vn -0.4446 0.4896 0.7501
vn -0.9708 0.1713 -0.1681
vn -0.9708 -0.1681 -0.1713
vn -0.9708 0.1713 0.1681
vn -0.9708 -0.1681 0.1713
vn -0.7501 0.4446 -0.4896
vn -0.8367 0.1677 -0.5214
vn -0.7501 -0.4896 -0.4446
vn -0.8367 -0.5214 -0.1677
vn -0.8367 -0.5214 0.1677
vn -0.7501 -0.4896 0.4446
vn -0.8367 0.1677 0.5214
vn -0.7501 0.4446 0.4896
vn 0.9708 -0.1713 -0.1681
vn 0.9708 0.1681 -0.1713
vn 0.9708 -0.1713 0.1681
vn 0.9708 0.1681 0.1713
vn 0.7501 -0.4446 -0.4896
vn 0.8367 -0.1677 -0.5214
vn 0.7501 0.4896 -0.4446
vn 0.8367 0.5214 -0.1677
vn 0.8367 0.5214 0.1677
vn 0.7501 0.4896 0.4446
vn 0.8367 -0.1677 0.5214
vn 0.7501 -0.4446 0.4896
usemtl mate.001
s 1
f 2/1/1 4/2/1 1/3/1
f 3/4/2 6/5/2 4/6/2
f 5/7/3 8/8/3 6/9/3
f 7/10/4 1/11/4 8/12/4
f 6/13/5 1/3/5 4/14/5
f 3/4/6 7/15/6 5/16/6
f 10/17/1 12/18/1 9/19/1
f 11/20/2 14/21/2 12/22/2
f 13/23/3 16/24/3 14/25/3
f 15/26/4 9/27/4 16/28/4
f 14/29/5 9/30/5 12/31/5
f 11/20/6 15/32/6 13/33/6
f 17/34/7 19/35/7 20/36/8
f 21/37/9 19/35/9 18/38/10
f 19/35/11 24/39/11 20/36/12
f 19/35/13 25/40/13 23/41/14
f 26/42/15 17/34/15 28/43/16
f 27/44/17 18/38/17 17/34/17
f 30/45/18 18/38/18 29/46/19
f 31/47/20 21/48/20 30/49/21
f 32/50/22 22/51/22 21/48/22
f 22/52/23 34/53/23 25/40/23
f 25/40/24 35/54/24 36/55/25
f 23/41/26 36/55/26 37/56/27
f 23/41/28 38/57/28 24/39/28
f 24/39/29 40/58/29 39/59/30
f 20/36/31 39/59/31 41/60/32
f 28/43/33 20/36/33 41/60/34
f 42/61/35 44/62/35 45/63/36
f 46/64/37 44/62/37 43/65/38
f 44/62/39 49/66/39 45/63/40
f 44/62/41 50/67/41 48/68/42
f 40/58/43 42/69/43 51/70/44
f 38/57/45 43/71/45 42/69/45
f 36/72/46 43/65/46 37/73/47
f 35/74/48 46/64/48 36/72/49
f 52/75/50 47/76/50 46/64/50
f 47/76/51 54/77/51 50/67/51
f 50/67/52 55/78/52 56/79/53
f 48/68/54 56/79/54 57/80/55
f 48/68/56 58/81/56 49/66/56
f 49/66/57 60/82/57 59/83/58
f 45/63/59 59/83/59 61/84/60
f 51/85/61 45/63/61 61/84/62
f 62/86/63 64/87/63 65/88/64
f 66/89/65 64/87/65 63/90/66
f 64/87/67 69/91/67 65/88/68
f 64/87/69 70/92/69 68/93/70
f 60/94/71 62/95/71 71/96/72
f 58/97/73 63/90/73 62/86/73
f 56/98/74 63/90/74 57/99/75
f 55/100/76 66/89/76 56/98/77
f 72/101/78 67/102/78 66/89/78
f 67/102/79 74/103/79 70/92/79
f 70/92/80 75/104/80 76/105/81
f 68/93/82 76/105/82 77/106/83
f 68/93/84 78/107/84 69/91/84
f 69/91/85 80/108/85 79/109/86
f 65/88/87 79/109/87 81/110/88
f 71/96/89 65/111/89 81/112/90
f 82/113/91 84/114/91 85/115/92
f 86/116/93 84/114/93 83/117/94
f 84/114/95 89/118/95 85/115/96
f 84/114/97 90/119/97 88/120/98
f 80/121/99 82/113/99 91/122/100
f 78/123/101 83/117/101 82/113/101
f 76/105/102 83/124/102 77/106/103
f 75/104/104 86/125/104 76/105/105
f 92/126/106 87/127/106 86/116/106
f 87/127/107 94/128/107 90/119/107
f 90/119/108 31/129/108 30/130/109
f 88/120/110 30/130/110 29/131/111
f 88/120/112 27/132/112 89/118/112
f 89/118/113 26/133/113 95/134/114
f 85/115/115 95/134/115 96/135/116
f 91/122/117 85/115/117 96/135/118
f 97/136/119 99/137/119 100/138/120
f 101/139/121 99/137/121 98/140/122
f 99/137/123 104/141/123 100/138/124
f 99/137/125 105/142/125 103/143/126
f 40/144/127 97/136/127 39/145/128
f 51/146/129 98/140/129 97/136/129
f 59/147/130 98/140/130 61/148/131
f 60/94/132 101/139/132 59/147/133
f 71/96/134 102/149/134 101/139/134
f 102/149/135 79/150/135 105/142/135
f 105/142/136 80/151/136 91/152/137
f 103/143/138 91/152/138 96/153/139
f 103/154/140 95/134/140 104/155/140
f 104/155/141 26/133/141 28/156/142
f 100/138/143 28/157/143 41/158/144
f 39/145/145 100/138/145 41/158/146
f 106/159/147 108/160/147 109/161/148
f 110/162/149 108/160/149 107/163/150
f 108/160/151 113/164/151 109/161/152
f 108/160/153 114/165/153 112/166/154
f 55/78/155 106/167/155 72/168/156
f 54/77/157 107/169/157 106/167/157
f 52/170/158 107/163/158 53/171/159
f 35/172/160 110/162/160 52/170/161
f 34/173/162 111/174/162 110/162/162
f 111/174/163 32/50/163 114/165/163
f 114/165/164 31/47/164 94/175/165
f 112/166/166 94/175/166 93/176/167
f 112/166/168 92/177/168 113/164/168
f 113/164/169 75/178/169 74/179/170
f 109/161/171 74/179/171 73/180/172
f 72/181/173 109/161/173 73/180/174
f 2/1/1 3/182/1 4/2/1
f 3/4/2 5/16/2 6/5/2
f 5/7/3 7/183/3 8/8/3
f 7/10/4 2/184/4 1/11/4
f 6/13/5 8/185/5 1/3/5
f 3/4/6 2/186/6 7/15/6
f 10/17/1 11/187/1 12/18/1
f 11/20/2 13/33/2 14/21/2
f 13/23/3 15/188/3 16/24/3
f 15/26/4 10/189/4 9/27/4
f 14/29/5 16/190/5 9/30/5
f 11/20/6 10/191/6 15/32/6
f 17/34/7 18/38/175 19/35/7
f 21/37/9 22/52/176 19/35/9
f 19/35/11 23/41/177 24/39/11
f 19/35/13 22/52/178 25/40/13
f 26/42/15 27/44/179 17/34/15
f 27/44/17 29/46/180 18/38/17
f 30/45/18 21/37/18 18/38/18
f 31/47/20 32/50/181 21/48/20
f 32/50/22 33/192/182 22/51/22
f 22/52/23 33/193/183 34/53/23
f 25/40/24 34/53/184 35/54/24
f 23/41/26 25/40/26 36/55/26
f 23/41/28 37/56/185 38/57/28
f 24/39/29 38/57/186 40/58/29
f 20/36/31 24/39/31 39/59/31
f 28/43/33 17/34/33 20/36/33
f 42/61/35 43/65/187 44/62/35
f 46/64/37 47/76/188 44/62/37
f 44/62/39 48/68/189 49/66/39
f 44/62/41 47/76/190 50/67/41
f 40/58/43 38/57/191 42/69/43
f 38/57/45 37/56/192 43/71/45
f 36/72/46 46/64/46 43/65/46
f 35/74/48 52/75/193 46/64/48
f 52/75/50 53/194/194 47/76/50
f 47/76/51 53/194/195 54/77/51
f 50/67/52 54/77/196 55/78/52
f 48/68/54 50/67/54 56/79/54
f 48/68/56 57/80/197 58/81/56
f 49/66/57 58/81/198 60/82/57
f 45/63/59 49/66/59 59/83/59
f 51/85/61 42/61/61 45/63/61
f 62/86/63 63/90/199 64/87/63
f 66/89/65 67/102/200 64/87/65
f 64/87/67 68/93/201 69/91/67
f 64/87/69 67/102/202 70/92/69
f 60/94/71 58/195/203 62/95/71
f 58/97/73 57/99/204 63/90/73
f 56/98/74 66/89/74 63/90/74
f 55/100/76 72/101/205 66/89/76
f 72/101/78 73/196/206 67/102/78
f 67/102/79 73/196/207 74/103/79
f 70/92/80 74/103/208 75/104/80
f 68/93/82 70/92/82 76/105/82
f 68/93/84 77/106/209 78/107/84
f 69/91/85 78/107/210 80/108/85
f 65/88/87 69/91/87 79/109/87
f 71/96/89 62/95/89 65/111/89
f 82/113/91 83/117/211 84/114/91
f 86/116/93 87/127/212 84/114/93
f 84/114/95 88/120/213 89/118/95
f 84/114/97 87/127/214 90/119/97
f 80/121/99 78/123/215 82/113/99
f 78/123/101 77/197/216 83/117/101
f 76/105/102 86/125/102 83/124/102
f 75/104/104 92/198/217 86/125/104
f 92/126/106 93/199/218 87/127/106
f 87/127/107 93/199/219 94/128/107
f 90/119/108 94/128/220 31/129/108
f 88/120/110 90/119/110 30/130/110
f 88/120/112 29/131/221 27/132/112
f 89/118/113 27/132/222 26/133/113
f 85/115/115 89/118/115 95/134/115
f 91/122/117 82/113/117 85/115/117
f 97/136/119 98/140/223 99/137/119
f 101/139/121 102/149/224 99/137/121
f 99/137/123 103/143/225 104/141/123
f 99/137/125 102/149/226 105/142/125
f 40/144/127 51/146/227 97/136/127
f 51/146/129 61/148/228 98/140/129
f 59/147/130 101/139/130 98/140/130
f 60/94/132 71/96/229 101/139/132
f 71/96/134 81/112/230 102/149/134
f 102/149/135 81/112/231 79/150/135
f 105/142/136 79/150/232 80/151/136
f 103/143/138 105/142/138 91/152/138
f 103/154/140 96/135/233 95/134/140
f 104/155/141 95/134/234 26/133/141
f 100/138/143 104/141/143 28/157/143
f 39/145/145 97/136/145 100/138/145
f 106/159/147 107/163/235 108/160/147
f 110/162/149 111/174/236 108/160/149
f 108/160/151 112/166/237 113/164/151
f 108/160/153 111/174/238 114/165/153
f 55/78/155 54/77/239 106/167/155
f 54/77/157 53/194/240 107/169/157
f 52/170/158 110/162/158 107/163/158
f 35/172/160 34/173/241 110/162/160
f 34/173/162 33/192/242 111/174/162
f 111/174/163 33/192/243 32/50/163
f 114/165/164 32/50/244 31/47/164
f 112/166/166 114/165/166 94/175/166
f 112/166/168 93/176/245 92/177/168
f 113/164/169 92/177/246 75/178/169
f 109/161/171 113/164/171 74/179/171
f 72/181/173 106/159/173 109/161/173
