# Blender v3.1.2 OBJ File: 'pinandrope_end.blend'
# www.blender.org
mtllib pinandrope_end.mtl
o Cube
v 0.045117 0.233697 -0.044000
v 0.045117 0.033697 -0.044000
v 0.045117 0.233697 0.044000
v 0.045117 0.033697 0.044000
v -0.042883 0.233697 -0.044000
v -0.042883 0.033697 -0.044000
v -0.042883 0.233697 0.044000
v -0.042883 0.033697 0.044000
v 0.032019 0.033005 0.052343
v 0.032019 0.033005 -0.056429
v -0.032678 0.033005 0.052343
v -0.032678 0.033005 -0.056429
v 0.036737 0.006750 0.060276
v 0.039107 -0.031551 0.064260
v 0.039107 -0.031551 -0.068347
v 0.036737 0.006750 -0.064362
v -0.019522 0.042421 -0.064362
v -0.000330 0.047151 -0.068347
v 0.018863 0.042421 -0.064362
v -0.039767 -0.031551 -0.068347
v -0.037396 0.006750 -0.064362
v -0.039767 -0.031551 0.064260
v -0.037396 0.006750 0.060276
v 0.018863 0.042421 0.060276
v -0.000330 0.047151 0.064260
v -0.019522 0.042421 0.060276
v 0.046834 0.009268 0.032346
v 0.050252 -0.031551 0.034193
v 0.050252 0.011461 -0.002043
v 0.053984 -0.031551 -0.002043
v 0.046834 0.009268 -0.036432
v 0.050252 -0.031551 -0.038280
v 0.020125 0.009268 -0.081337
v 0.021224 -0.031551 -0.087084
v -0.000330 0.011461 -0.087084
v -0.000330 -0.031551 -0.093358
v -0.020784 0.009268 -0.081337
v -0.021883 -0.031551 -0.087084
v -0.047493 0.009268 -0.036432
v -0.050911 -0.031551 -0.038280
v -0.050911 0.011461 -0.002043
v -0.054643 -0.031551 -0.002043
v -0.047493 0.009268 0.032346
v -0.050911 -0.031551 0.034193
v -0.020784 0.009268 0.077250
v -0.021883 -0.031551 0.082998
v -0.000330 0.011461 0.082998
v -0.000330 -0.031551 0.089271
v 0.020125 0.009268 0.077250
v 0.021224 -0.031551 0.082998
v 0.033798 0.036556 0.044000
v 0.034734 0.033697 0.044000
v 0.039394 0.033697 0.030782
v 0.036737 0.033697 -0.041660
v 0.039394 0.033697 -0.034869
v 0.034670 0.038296 -0.044000
v 0.035959 0.033697 -0.044000
v 0.043309 0.033697 -0.002043
v -0.036834 0.033697 -0.044000
v -0.035329 0.038296 -0.044000
v -0.040053 0.033697 -0.034869
v -0.040053 0.033697 0.030782
v -0.037396 0.033697 0.037574
v -0.034458 0.036556 0.044000
v -0.035259 0.033697 0.044000
v -0.042883 0.033697 0.007052
v -0.042883 0.037172 -0.002043
v -0.042883 0.033697 -0.011146
v 0.019783 0.057111 -0.044000
v 0.024626 0.051381 -0.044000
v -0.000330 0.065161 -0.044000
v -0.020442 0.057111 -0.044000
v -0.031633 0.042421 -0.044000
v -0.027716 0.045339 0.044000
v -0.020257 0.054163 0.044000
v -0.000330 0.062138 0.044000
v 0.019598 0.054163 0.044000
v 0.028543 0.042421 0.044000
v -0.011951 -0.026613 -0.033878
v -0.011951 -0.085603 -0.033878
v 0.011292 -0.026613 -0.033878
v 0.011292 -0.085603 -0.033878
v -0.011951 -0.026613 -0.042127
v -0.011951 -0.085603 -0.042127
v 0.011292 -0.026613 -0.042127
v 0.011292 -0.085603 -0.042127
v -0.011951 -0.026613 0.037993
v -0.011951 -0.085603 0.037993
v 0.011292 -0.026613 0.037993
v 0.011292 -0.085603 0.037993
v -0.011951 -0.026613 0.029744
v -0.011951 -0.085603 0.029744
v 0.011292 -0.026613 0.029744
v 0.011292 -0.085603 0.029744
vt 0.875000 0.500000
vt 0.625000 0.750000
vt 0.625000 0.500000
vt 0.375000 1.000000
vt 0.375000 0.750000
vt 0.625000 0.000000
vt 0.375000 0.250000
vt 0.375000 0.000000
vt 0.375000 0.500000
vt 0.125000 0.750000
vt 0.125000 0.500000
vt 0.625000 0.250000
vt 0.000000 0.000000
vt 0.000000 0.000000
vt 0.000000 0.000000
vt 0.000000 0.000000
vt 0.000000 0.000000
vt 0.000000 0.000000
vt 0.000000 0.000000
vt 0.000000 0.000000
vt 0.000000 0.000000
vt 0.000000 0.000000
vt 0.000000 0.000000
vt 0.000000 0.000000
vt 0.000000 0.000000
vt 0.000000 0.000000
vt 0.000000 0.000000
vt 0.000000 0.000000
vt 0.000000 0.000000
vt 0.000000 0.000000
vt 0.000000 0.000000
vt 0.000000 0.000000
vt 0.000000 0.000000
vt 0.000000 0.000000
vt 0.000000 0.000000
vt 0.000000 0.000000
vt 0.000000 0.000000
vt 0.000000 0.000000
vt 0.000000 0.000000
vt 0.000000 0.000000
vt 0.000000 0.000000
vt 0.000000 0.000000
vt 0.000000 0.000000
vt 0.000000 0.000000
vt 0.000000 0.000000
vt 0.000000 0.000000
vt 0.000000 0.000000
vt 0.000000 0.000000
vt 0.000000 0.000000
vt 0.000000 0.000000
vt 0.000000 0.000000
vt 0.000000 0.000000
vt 0.000000 0.000000
vt 0.000000 0.000000
vt 0.000000 0.000000
vt 0.000000 0.000000
vt 0.000000 0.000000
vt 0.000000 0.000000
vt 0.000000 0.000000
vt 0.000000 0.000000
vt 0.000000 0.000000
vt 0.000000 0.000000
vt 0.000000 0.000000
vt 0.000000 0.000000
vt 0.000000 0.000000
vt 0.000000 0.000000
vt 0.000000 0.000000
vt 0.000000 0.000000
vt 0.000000 0.000000
vt 0.000000 0.000000
vt 0.000000 0.000000
vt 0.000000 0.000000
vt 0.000000 0.000000
vt 0.000000 0.000000
vt 0.000000 0.000000
vt 0.000000 0.000000
vt 0.389553 0.956913
vt 0.410551 0.879111
vt 0.385905 0.797086
vt 0.375000 0.104965
vt 0.375000 0.156664
vt 0.379344 0.130805
vt 0.345501 0.750000
vt 0.358741 0.712449
vt 0.140586 0.731743
vt 0.385905 0.281959
vt 0.397106 0.441786
vt 0.414330 0.370889
vt 0.000000 0.000000
vt 0.000000 0.000000
vt 0.000000 0.000000
vt 0.000000 0.000000
vt 0.000000 0.000000
vt 0.000000 0.000000
vt 0.000000 0.000000
vt 0.000000 0.000000
vt 0.000000 0.000000
vt 0.000000 0.000000
vt 0.000000 0.000000
vt 0.000000 0.000000
vt 0.000000 0.000000
vt 0.000000 0.000000
vt 0.875000 0.750000
vt 0.625000 1.000000
vt 0.000000 0.000000
vt 0.000000 0.000000
vt 0.000000 0.000000
vt 0.000000 0.000000
vt 0.000000 0.000000
vt 0.000000 0.000000
vt 0.378574 0.782156
vt 0.375000 0.779499
vt 0.375000 0.978342
vt 0.378574 0.976065
vt 0.400582 0.935724
vt 0.400582 0.822498
vt 0.125000 0.593336
vt 0.125000 0.645035
vt 0.369862 0.619195
vt 0.133038 0.712449
vt 0.146658 0.750000
vt 0.142184 0.500000
vt 0.133038 0.525941
vt 0.351193 0.506647
vt 0.358741 0.525941
vt 0.348982 0.500000
vt 0.380749 0.271458
vt 0.375000 0.267184
vt 0.375000 0.473982
vt 0.380749 0.470321
vt 0.404267 0.428027
vt 0.404267 0.313752
vt 0.000000 0.000000
vt 0.000000 0.000000
vn 0.0000 1.0000 0.0000
vn 0.0000 0.0000 1.0000
vn -1.0000 0.0000 0.0000
vn 0.0000 -1.0000 0.0000
vn 1.0000 0.0000 0.0000
vn 0.0000 0.0000 -1.0000
vn 0.9909 0.0860 0.1040
vn 0.9909 0.0860 -0.1040
vn 0.9012 0.2948 0.3177
vn 0.9336 0.0938 0.3459
vn 0.9336 0.0938 -0.3459
vn 0.9170 0.2570 -0.3050
vn 0.9484 0.2962 -0.1131
vn 0.9484 0.2961 0.1132
vn 0.2818 0.1412 -0.9490
vn -0.2818 0.1412 -0.9490
vn 0.6479 0.3246 -0.6891
vn 0.7184 0.1158 -0.6859
vn -0.7184 0.1158 -0.6859
vn -0.6479 0.3246 -0.6891
vn -0.2859 0.4453 -0.8485
vn 0.2859 0.4453 -0.8485
vn -0.9909 0.0860 -0.1040
vn -0.9909 0.0860 0.1040
vn -0.9012 0.2948 -0.3177
vn -0.9336 0.0938 -0.3459
vn -0.9336 0.0938 0.3459
vn -0.9025 0.3088 0.3002
vn -0.9484 0.2961 0.1131
vn -0.9484 0.2962 -0.1131
vn -0.2818 0.1412 0.9490
vn 0.2818 0.1412 0.9490
vn -0.6479 0.3246 0.6891
vn -0.7184 0.1158 0.6859
vn 0.7184 0.1158 0.6859
vn 0.6479 0.3246 0.6891
vn 0.2859 0.4453 0.8485
vn -0.2859 0.4453 0.8485
vn 0.6830 0.5774 -0.4474
vn 0.3063 0.7654 -0.5660
vn -0.3063 0.7654 -0.5660
vn -0.7405 0.5642 -0.3652
vn -0.6830 0.5774 0.4474
vn -0.3063 0.7654 0.5660
vn 0.3062 0.7653 0.5661
vn 0.6809 0.6101 0.4050
vn 0.9909 0.0876 0.1020
vn 0.9909 0.0876 -0.1020
vn 0.9116 0.2600 0.3183
vn 0.8953 0.2771 0.3486
vn 0.9335 0.0938 0.3460
vn 0.9335 0.0938 -0.3460
vn 0.9025 0.3088 -0.3002
vn 0.8903 0.2934 -0.3483
vn 0.8917 0.2890 -0.3484
vn 0.9484 0.2961 -0.1132
vn 0.9484 0.2962 0.1131
vn 0.2768 0.1387 -0.9509
vn -0.2768 0.1387 -0.9509
vn 0.6952 0.3484 -0.6287
vn 0.7185 0.1159 -0.6858
vn -0.7185 0.1159 -0.6858
vn -0.6952 0.3484 -0.6287
vn -0.2861 0.4454 -0.8484
vn 0.2861 0.4454 -0.8484
vn -0.9909 0.0876 -0.1020
vn -0.9909 0.0876 0.1020
vn -0.9113 0.2602 -0.3192
vn -0.8938 0.2820 -0.3485
vn -0.9335 0.0938 -0.3460
vn -0.9335 0.0938 0.3460
vn -0.8903 0.2934 0.3483
vn -0.8940 0.2814 0.3486
vn -0.9170 0.2570 0.3050
vn -0.9484 0.2962 0.1132
vn -0.9484 0.2961 -0.1131
vn -0.9484 0.2961 -0.1132
vn -0.2768 0.1387 0.9509
vn 0.2768 0.1387 0.9509
vn -0.6952 0.3484 0.6287
vn -0.7185 0.1159 0.6858
vn 0.7185 0.1159 0.6858
vn 0.6952 0.3484 0.6287
vn 0.2861 0.4454 0.8484
vn -0.2861 0.4454 0.8484
vn 0.7291 0.5597 -0.3938
vn 0.3062 0.7653 -0.5661
vn -0.3062 0.7653 -0.5661
vn -0.6830 0.5774 -0.4474
vn -0.6809 0.6102 -0.4050
vn -0.7291 0.5597 0.3938
vn -0.3062 0.7653 0.5661
vn 0.3063 0.7654 0.5660
vn 0.7190 0.5478 0.4277
usemtl Material
s off
f 5/1/1 3/2/1 1/3/1
f 3/2/2 8/4/2 4/5/2
f 7/6/3 6/7/3 8/8/3
f 2/9/4 8/10/4 6/11/4
f 1/3/5 4/5/5 2/9/5
f 5/12/6 2/9/6 6/7/6
f 27/13/7 30/14/7 29/15/7
f 30/14/8 31/16/8 29/15/8
f 27/13/9 53/17/9 52/18/9
f 13/19/10 28/20/10 27/13/10
f 32/21/11 16/22/11 31/16/11
f 10/23/12 56/24/12 57/25/12
f 29/15/13 55/26/13 58/27/13
f 29/15/14 53/17/14 27/13/14
f 34/28/15 35/29/15 33/30/15
f 35/29/16 38/31/16 37/32/16
f 16/22/17 19/33/17 10/23/17
f 15/34/18 33/30/18 16/22/18
f 37/32/19 20/35/19 21/36/19
f 17/37/20 21/36/20 12/38/20
f 18/39/21 37/32/21 17/37/21
f 33/30/22 18/39/22 19/33/22
f 39/40/23 42/41/23 41/42/23
f 42/41/24 43/43/24 41/42/24
f 39/40/25 61/44/25 59/45/25
f 21/36/26 40/46/26 39/40/26
f 44/47/27 23/48/27 43/43/27
f 65/49/28 63/50/28 43/43/28
f 43/43/29 62/51/29 66/52/29
f 41/42/30 67/53/30 68/54/30
f 46/55/31 47/56/31 45/57/31
f 47/56/32 50/58/32 49/59/32
f 23/48/33 26/60/33 11/61/33
f 22/62/34 45/57/34 23/48/34
f 49/59/35 14/63/35 13/19/35
f 24/64/36 13/19/36 9/65/36
f 25/66/37 49/59/37 24/64/37
f 45/57/38 25/66/38 26/60/38
f 10/23/39 19/33/39 70/67/39
f 19/33/40 71/68/40 69/69/40
f 71/68/41 17/37/41 72/70/41
f 12/38/42 73/71/42 72/70/42
f 26/60/43 75/72/43 74/73/43
f 26/60/44 76/74/44 75/72/44
f 24/64/45 76/74/45 25/66/45
f 9/65/46 51/75/46 78/76/46
f 28/20/4 14/63/4 44/47/4
f 74/77/6 76/78/6 78/79/6
f 66/80/5 68/81/5 67/82/5
f 52/83/1 53/84/1 63/85/1
f 73/86/2 70/87/2 71/88/2
f 79/89/2 82/90/2 81/91/2
f 82/90/5 85/92/5 81/91/5
f 86/93/6 83/94/6 85/92/6
f 84/95/3 79/89/3 83/94/3
f 85/92/1 79/89/1 81/91/1
f 82/90/4 84/95/4 86/93/4
f 87/96/2 90/97/2 89/98/2
f 90/97/5 93/99/5 89/98/5
f 94/100/6 91/101/6 93/99/6
f 92/102/3 87/96/3 91/101/3
f 93/99/1 87/96/1 89/98/1
f 90/97/4 92/102/4 94/100/4
f 5/1/1 7/103/1 3/2/1
f 3/2/2 7/104/2 8/4/2
f 7/6/3 5/12/3 6/7/3
f 2/9/4 4/5/4 8/10/4
f 1/3/5 3/2/5 4/5/5
f 5/12/6 1/3/6 2/9/6
f 27/13/47 28/20/47 30/14/47
f 30/14/48 32/21/48 31/16/48
f 51/75/9 9/65/9 52/18/9
f 9/65/49 13/19/49 52/18/49
f 13/19/50 27/13/50 52/18/50
f 13/19/51 14/63/51 28/20/51
f 32/21/52 15/34/52 16/22/52
f 57/25/53 54/105/53 31/16/53
f 54/105/54 55/26/54 31/16/54
f 31/16/55 16/22/55 57/25/55
f 16/22/12 10/23/12 57/25/12
f 29/15/56 31/16/56 55/26/56
f 29/15/57 58/27/57 53/17/57
f 34/28/58 36/106/58 35/29/58
f 35/29/59 36/106/59 38/31/59
f 16/22/60 33/30/60 19/33/60
f 15/34/61 34/28/61 33/30/61
f 37/32/62 38/31/62 20/35/62
f 17/37/63 37/32/63 21/36/63
f 18/39/64 35/29/64 37/32/64
f 33/30/65 35/29/65 18/39/65
f 39/40/66 40/46/66 42/41/66
f 42/41/67 44/47/67 43/43/67
f 60/107/25 12/38/25 59/45/25
f 12/38/68 21/36/68 59/45/68
f 21/36/69 39/40/69 59/45/69
f 21/36/70 20/35/70 40/46/70
f 44/47/71 22/62/71 23/48/71
f 63/50/72 62/51/72 43/43/72
f 43/43/73 23/48/73 65/49/73
f 23/48/74 11/61/74 65/49/74
f 11/61/74 64/108/74 65/49/74
f 66/52/75 67/53/75 41/42/75
f 41/42/75 43/43/75 66/52/75
f 68/54/76 61/44/76 39/40/76
f 39/40/77 41/42/77 68/54/77
f 46/55/78 48/109/78 47/56/78
f 47/56/79 48/109/79 50/58/79
f 23/48/80 45/57/80 26/60/80
f 22/62/81 46/55/81 45/57/81
f 49/59/82 50/58/82 14/63/82
f 24/64/83 49/59/83 13/19/83
f 25/66/84 47/56/84 49/59/84
f 45/57/85 47/56/85 25/66/85
f 69/69/39 70/67/39 19/33/39
f 70/67/86 56/24/86 10/23/86
f 19/33/87 18/39/87 71/68/87
f 71/68/88 18/39/88 17/37/88
f 72/70/89 17/37/89 12/38/89
f 12/38/90 60/107/90 73/71/90
f 64/108/91 11/61/91 74/73/91
f 11/61/43 26/60/43 74/73/43
f 26/60/92 25/66/92 76/74/92
f 24/64/93 77/110/93 76/74/93
f 77/110/94 24/64/94 78/76/94
f 24/64/46 9/65/46 78/76/46
f 50/58/4 48/109/4 46/55/4
f 46/55/4 22/62/4 50/58/4
f 22/62/4 44/47/4 14/63/4
f 50/58/4 22/62/4 14/63/4
f 44/47/4 42/41/4 30/14/4
f 42/41/4 40/46/4 32/21/4
f 40/46/4 20/35/4 32/21/4
f 20/35/4 38/31/4 15/34/4
f 32/21/4 20/35/4 15/34/4
f 38/31/4 36/106/4 34/28/4
f 34/28/4 15/34/4 38/31/4
f 32/21/4 30/14/4 42/41/4
f 30/14/4 28/20/4 44/47/4
f 51/111/6 52/112/6 78/79/6
f 52/112/6 65/113/6 78/79/6
f 65/113/6 64/114/6 74/77/6
f 74/77/6 75/115/6 76/78/6
f 76/78/6 77/116/6 78/79/6
f 65/113/6 74/77/6 78/79/6
f 68/117/1 66/118/1 58/119/1
f 66/118/1 62/120/1 53/84/1
f 63/85/1 65/121/1 52/83/1
f 66/118/1 53/84/1 58/119/1
f 62/120/1 63/85/1 53/84/1
f 59/122/1 61/123/1 54/124/1
f 61/123/1 68/117/1 55/125/1
f 54/124/1 61/123/1 55/125/1
f 54/124/1 57/126/1 59/122/1
f 58/119/1 55/125/1 68/117/1
f 73/86/2 60/127/2 59/128/2
f 59/128/2 57/129/2 73/86/2
f 57/129/2 56/130/2 70/87/2
f 70/87/2 69/131/2 71/88/2
f 57/129/2 70/87/2 73/86/2
f 71/88/2 72/132/2 73/86/2
f 79/89/2 80/133/2 82/90/2
f 82/90/5 86/93/5 85/92/5
f 86/93/6 84/95/6 83/94/6
f 84/95/3 80/133/3 79/89/3
f 85/92/1 83/94/1 79/89/1
f 82/90/4 80/133/4 84/95/4
f 87/96/2 88/134/2 90/97/2
f 90/97/5 94/100/5 93/99/5
f 94/100/6 92/102/6 91/101/6
f 92/102/3 88/134/3 87/96/3
f 93/99/1 91/101/1 87/96/1
f 90/97/4 88/134/4 92/102/4
