# Blender v3.1.2 OBJ File: 'buttonX.blend'
# www.blender.org
mtllib buttonX.mtl
o 円柱
v 0.000000 -0.166939 -1.000000
v 0.000000 0.166939 -1.000000
v 0.195090 -0.166939 -0.980785
v 0.195090 0.166939 -0.980785
v 0.382683 -0.166939 -0.923880
v 0.382683 0.166939 -0.923880
v 0.555570 -0.166939 -0.831470
v 0.555570 0.166939 -0.831470
v 0.707107 -0.166939 -0.707107
v 0.707107 0.166939 -0.707107
v 0.831470 -0.166939 -0.555570
v 0.831470 0.166939 -0.555570
v 0.923880 -0.166939 -0.382683
v 0.923880 0.166939 -0.382683
v 0.980785 -0.166939 -0.195090
v 0.980785 0.166939 -0.195090
v 1.000000 -0.166939 0.000000
v 1.000000 0.166939 0.000000
v 0.980785 -0.166939 0.195090
v 0.980785 0.166939 0.195090
v 0.923880 -0.166939 0.382683
v 0.923880 0.166939 0.382683
v 0.831470 -0.166939 0.555570
v 0.831470 0.166939 0.555570
v 0.707107 -0.166939 0.707107
v 0.707107 0.166939 0.707107
v 0.555570 -0.166939 0.831470
v 0.555570 0.166939 0.831470
v 0.382683 -0.166939 0.923880
v 0.382683 0.166939 0.923880
v 0.195090 -0.166939 0.980785
v 0.195090 0.166939 0.980785
v -0.000000 -0.166939 1.000000
v -0.000000 0.166939 1.000000
v -0.195090 -0.166939 0.980785
v -0.195090 0.166939 0.980785
v -0.382683 -0.166939 0.923880
v -0.382683 0.166939 0.923880
v -0.555570 -0.166939 0.831470
v -0.555570 0.166939 0.831470
v -0.707107 -0.166939 0.707107
v -0.707107 0.166939 0.707107
v -0.831469 -0.166939 0.555570
v -0.831469 0.166939 0.555570
v -0.923880 -0.166939 0.382684
v -0.923880 0.166939 0.382684
v -0.980785 -0.166939 0.195090
v -0.980785 0.166939 0.195090
v -1.000000 -0.166939 -0.000000
v -1.000000 0.166939 -0.000000
v -0.980785 -0.166939 -0.195090
v -0.980785 0.166939 -0.195090
v -0.923879 -0.166939 -0.382684
v -0.923879 0.166939 -0.382684
v -0.831470 -0.166939 -0.555570
v -0.831470 0.166939 -0.555570
v -0.707107 -0.166939 -0.707107
v -0.707107 0.166939 -0.707107
v -0.555570 -0.166939 -0.831470
v -0.555570 0.166939 -0.831470
v -0.382683 -0.166939 -0.923880
v -0.382683 0.166939 -0.923880
v -0.195090 -0.166939 -0.980785
v -0.195090 0.166939 -0.980785
v 0.549949 0.318646 0.509121
v 0.363634 0.318646 0.509121
v -0.002681 0.318646 0.063860
v -0.373732 0.318646 0.509121
v -0.561627 0.318646 0.509121
v -0.097418 0.318646 -0.048245
v -0.528469 0.318646 -0.567717
v -0.340575 0.318646 -0.567717
v -0.002681 0.318646 -0.157192
v 0.333634 0.318646 -0.567717
v 0.519949 0.318646 -0.567717
v 0.090477 0.318646 -0.048245
v 0.549949 0.038526 0.509121
v 0.363634 0.038526 0.509121
v -0.002681 0.038526 0.063860
v -0.373732 0.038526 0.509121
v -0.561627 0.038526 0.509121
v -0.097418 0.038526 -0.048245
v -0.528469 0.038526 -0.567717
v -0.340575 0.038526 -0.567717
v -0.002681 0.038526 -0.157192
v 0.333634 0.038526 -0.567717
v 0.519949 0.038526 -0.567717
v 0.090477 0.038526 -0.048245
v 0.549949 0.038526 0.509121
v 0.549949 0.318646 0.509121
v 0.363634 0.038526 0.509121
v 0.363634 0.318646 0.509121
v -0.002681 0.038526 0.063860
v -0.002681 0.318646 0.063860
v -0.373732 0.038526 0.509121
v -0.373732 0.318646 0.509121
v -0.561627 0.038526 0.509121
v -0.561627 0.318646 0.509121
v -0.097418 0.038526 -0.048245
v -0.097418 0.318646 -0.048245
v -0.528469 0.038526 -0.567717
v -0.528469 0.318646 -0.567717
v -0.340575 0.038526 -0.567717
v -0.340575 0.318646 -0.567717
v -0.002681 0.038526 -0.157192
v -0.002681 0.318646 -0.157192
v 0.333634 0.038526 -0.567717
v 0.333634 0.318646 -0.567717
v 0.519949 0.038526 -0.567717
v 0.519949 0.318646 -0.567717
v 0.090477 0.038526 -0.048245
v 0.090477 0.318646 -0.048245
vt 0.366665 0.426414
vt 0.353408 0.289238
vt 0.366665 0.289238
vt 0.353408 0.426414
vt 0.340843 0.289238
vt 0.340843 0.426414
vt 0.329452 0.289238
vt 0.329452 0.426414
vt 0.319675 0.289238
vt 0.415746 0.289238
vt 0.404566 0.152063
vt 0.415746 0.152063
vt 0.404566 0.289238
vt 0.392144 0.152063
vt 0.392144 0.289238
vt 0.378957 0.152063
vt 0.378957 0.289238
vt 0.365511 0.152063
vt 0.365511 0.289238
vt 0.352324 0.152063
vt 0.352324 0.289238
vt 0.339902 0.152063
vt 0.339902 0.289238
vt 0.328722 0.152063
vt 0.319675 0.426414
vt 0.309179 0.289238
vt 0.319675 0.289238
vt 0.309179 0.426414
vt 0.297246 0.289238
vt 0.297246 0.426414
vt 0.284333 0.289238
vt 0.284333 0.426414
vt 0.270938 0.289238
vt 0.270938 0.426414
vt 0.257574 0.289238
vt 0.257574 0.426414
vt 0.244755 0.289238
vt 0.244755 0.426414
vt 0.232974 0.289238
vt 0.232974 0.426414
vt 0.222684 0.289238
vt 0.328722 0.289238
vt 0.319215 0.152063
vt 0.328722 0.152063
vt 0.319215 0.289238
vt 0.308035 0.152063
vt 0.308035 0.289238
vt 0.295613 0.152063
vt 0.295613 0.289238
vt 0.282426 0.152063
vt 0.282426 0.289238
vt 0.268980 0.152063
vt 0.268980 0.289238
vt 0.255793 0.152063
vt 0.255793 0.289238
vt 0.243371 0.152063
vt 0.243371 0.289238
vt 0.232191 0.152063
vt 0.232191 0.289238
vt 0.222684 0.152063
vt 0.416440 0.426414
vt 0.405480 0.289238
vt 0.416440 0.289238
vt 0.405480 0.426414
vt 0.393211 0.289238
vt 0.040879 0.310491
vt 0.139220 0.320176
vt 0.129534 0.418517
vt 0.393211 0.426414
vt 0.380105 0.289238
vt 0.380105 0.426414
vt 0.143092 0.458745
vt 0.218019 0.481474
vt 0.195290 0.556402
vt 0.905242 0.078920
vt 0.816927 0.037581
vt 0.816927 0.005637
vt 0.886720 0.095026
vt 0.816927 0.183878
vt 0.816927 0.152203
vt 0.905242 0.110864
vt 1.000000 0.000000
vt 0.924301 0.095026
vt 1.000000 0.188979
vt 1.000000 0.031944
vt 1.000000 0.157303
vt 0.426698 0.790098
vt 0.338382 0.863381
vt 0.338382 0.831437
vt 0.408175 0.773992
vt 0.338382 0.716815
vt 0.338382 0.685139
vt 0.426698 0.758154
vt 0.521455 0.869018
vt 0.445756 0.773992
vt 0.521455 0.680039
vt 0.521455 0.837074
vt 0.521455 0.711715
vt 0.319675 0.426414
vt 0.328722 0.289238
vt 0.222684 0.426414
vt 0.222684 0.289238
vt 0.031194 0.408831
vt 0.023584 0.397442
vt 0.015670 0.357655
vt 0.018342 0.384787
vt 0.015670 0.371352
vt 0.018342 0.344220
vt 0.023584 0.331565
vt 0.031194 0.320176
vt 0.052269 0.302881
vt 0.064924 0.297639
vt 0.078358 0.294966
vt 0.092056 0.294966
vt 0.105490 0.297639
vt 0.118145 0.302881
vt 0.129534 0.310491
vt 0.146830 0.331565
vt 0.152072 0.344220
vt 0.154744 0.357655
vt 0.154744 0.371352
vt 0.152072 0.384787
vt 0.146830 0.397442
vt 0.139220 0.408831
vt 0.118145 0.426127
vt 0.105490 0.431368
vt 0.092056 0.434041
vt 0.078358 0.434041
vt 0.064924 0.431368
vt 0.052269 0.426127
vt 0.040879 0.418517
vt 0.120363 0.533673
vt 0.116209 0.523645
vt 0.114092 0.513000
vt 0.114092 0.502147
vt 0.116209 0.491502
vt 0.120363 0.481474
vt 0.126393 0.472450
vt 0.134067 0.464775
vt 0.153119 0.454592
vt 0.163764 0.452474
vt 0.174618 0.452474
vt 0.185263 0.454592
vt 0.195290 0.458745
vt 0.204315 0.464775
vt 0.211989 0.472450
vt 0.222173 0.491502
vt 0.224290 0.502147
vt 0.224290 0.513000
vt 0.222173 0.523645
vt 0.218019 0.533673
vt 0.211989 0.542697
vt 0.204315 0.550372
vt 0.185263 0.560555
vt 0.174618 0.562672
vt 0.163764 0.562672
vt 0.153119 0.560555
vt 0.143092 0.556402
vt 0.134067 0.550372
vt 0.126393 0.542697
vt 0.521455 0.965313
vt 0.552445 0.680039
vt 0.552445 0.965313
vt 0.737209 0.965313
vt 0.818647 0.680039
vt 0.818647 0.965313
vt 0.911470 0.582062
vt 0.942687 0.466973
vt 0.942687 0.582062
vt 0.898861 0.582062
vt 0.911470 0.466973
vt 0.095073 0.962038
vt 0.181639 0.676764
vt 0.181639 0.962038
vt 0.000000 0.962038
vt 0.095073 0.676764
vt 0.920605 0.910567
vt 0.952472 0.625293
vt 0.952472 0.910567
vt 0.662121 0.965313
vt 0.737208 0.680039
vt 0.737208 0.965313
vt 0.271345 0.962038
vt 0.335198 0.676764
vt 0.335197 0.962038
vt 0.942687 0.582062
vt 0.955435 0.466973
vt 0.955435 0.582062
vt 0.181639 0.962038
vt 0.271345 0.676764
vt 0.271345 0.962038
vt 0.818647 0.910567
vt 0.920605 0.625293
vt 0.920605 0.910567
vt 0.521455 0.680039
vt 0.737209 0.680039
vt 0.898861 0.466973
vt 0.000000 0.676764
vt 0.920605 0.625293
vt 0.662121 0.680039
vt 0.271345 0.676764
vt 0.942687 0.466973
vt 0.181639 0.676764
vt 0.818647 0.625293
vn 0.0980 0.0000 -0.9952
vn 0.2903 0.0000 -0.9569
vn 0.4714 0.0000 -0.8819
vn 0.6344 0.0000 -0.7730
vn 0.7730 0.0000 -0.6344
vn 0.8819 0.0000 -0.4714
vn 0.9569 0.0000 -0.2903
vn 0.9952 0.0000 -0.0980
vn 0.9952 0.0000 0.0980
vn 0.9569 0.0000 0.2903
vn 0.8819 0.0000 0.4714
vn 0.7730 0.0000 0.6344
vn 0.6344 0.0000 0.7730
vn 0.4714 0.0000 0.8819
vn 0.2903 0.0000 0.9569
vn 0.0980 0.0000 0.9952
vn -0.0980 0.0000 0.9952
vn -0.2903 0.0000 0.9569
vn -0.4714 0.0000 0.8819
vn -0.6344 0.0000 0.7730
vn -0.7730 0.0000 0.6344
vn -0.8819 0.0000 0.4714
vn -0.9569 0.0000 0.2903
vn -0.9952 0.0000 0.0980
vn -0.9952 0.0000 -0.0980
vn -0.9569 0.0000 -0.2903
vn -0.8819 0.0000 -0.4714
vn -0.7730 0.0000 -0.6344
vn -0.6344 0.0000 -0.7730
vn -0.4714 0.0000 -0.8819
vn 0.0000 1.0000 0.0000
vn -0.2903 0.0000 -0.9569
vn -0.0980 0.0000 -0.9952
vn 0.0000 -1.0000 0.0000
vn -0.4270 0.0000 0.9042
vn 0.9045 0.0000 0.4266
vn -0.0032 0.0000 1.0000
vn 0.4242 0.0000 0.9056
vn -0.9055 0.0000 0.4243
vn -1.0000 0.0000 -0.0009
vn -0.9051 0.0000 -0.4251
vn 0.4269 0.0000 -0.9043
vn -0.0011 0.0000 -1.0000
vn -0.4279 0.0000 -0.9038
vn 0.9048 0.0000 -0.4259
vn 1.0000 0.0000 0.0007
usemtl マテリアル
s off
f 2/1/1 3/2/1 1/3/1
f 4/4/2 5/5/2 3/2/2
f 6/6/3 7/7/3 5/5/3
f 8/8/4 9/9/4 7/7/4
f 10/10/5 11/11/5 9/12/5
f 12/13/6 13/14/6 11/11/6
f 14/15/7 15/16/7 13/14/7
f 16/17/8 17/18/8 15/16/8
f 18/19/9 19/20/9 17/18/9
f 20/21/10 21/22/10 19/20/10
f 22/23/11 23/24/11 21/22/11
f 24/25/12 25/26/12 23/27/12
f 26/28/13 27/29/13 25/26/13
f 28/30/14 29/31/14 27/29/14
f 30/32/15 31/33/15 29/31/15
f 32/34/16 33/35/16 31/33/16
f 34/36/17 35/37/17 33/35/17
f 36/38/18 37/39/18 35/37/18
f 38/40/19 39/41/19 37/39/19
f 40/42/20 41/43/20 39/44/20
f 42/45/21 43/46/21 41/43/21
f 44/47/22 45/48/22 43/46/22
f 46/49/23 47/50/23 45/48/23
f 48/51/24 49/52/24 47/50/24
f 50/53/25 51/54/25 49/52/25
f 52/55/26 53/56/26 51/54/26
f 54/57/27 55/58/27 53/56/27
f 56/59/28 57/60/28 55/58/28
f 58/61/29 59/62/29 57/63/29
f 60/64/30 61/65/30 59/62/30
f 54/66/31 38/67/31 22/68/31
f 62/69/32 63/70/32 61/65/32
f 64/71/33 1/3/33 63/70/33
f 15/72/34 31/73/34 47/74/34
f 70/75/31 72/76/31 71/77/31
f 70/75/31 73/78/31 72/76/31
f 73/78/31 75/79/31 74/80/31
f 73/78/31 76/81/31 75/79/31
f 70/75/31 76/81/31 73/78/31
f 69/82/31 76/81/31 70/75/31
f 69/82/31 67/83/31 76/81/31
f 67/83/31 65/84/31 76/81/31
f 69/82/31 68/85/31 67/83/31
f 66/86/31 65/84/31 67/83/31
f 82/87/34 83/88/34 84/89/34
f 82/87/34 84/89/34 85/90/34
f 85/90/34 86/91/34 87/92/34
f 85/90/34 87/92/34 88/93/34
f 82/87/34 85/90/34 88/93/34
f 81/94/34 82/87/34 88/93/34
f 81/94/34 88/93/34 79/95/34
f 79/95/34 88/93/34 77/96/34
f 81/94/34 79/95/34 80/97/34
f 78/98/34 79/95/34 77/96/34
f 2/1/1 4/4/1 3/2/1
f 4/4/2 6/6/2 5/5/2
f 6/6/3 8/8/3 7/7/3
f 8/8/4 10/99/4 9/9/4
f 10/10/5 12/13/5 11/11/5
f 12/13/6 14/15/6 13/14/6
f 14/15/7 16/17/7 15/16/7
f 16/17/8 18/19/8 17/18/8
f 18/19/9 20/21/9 19/20/9
f 20/21/10 22/23/10 21/22/10
f 22/23/11 24/100/11 23/24/11
f 24/25/12 26/28/12 25/26/12
f 26/28/13 28/30/13 27/29/13
f 28/30/14 30/32/14 29/31/14
f 30/32/15 32/34/15 31/33/15
f 32/34/16 34/36/16 33/35/16
f 34/36/17 36/38/17 35/37/17
f 36/38/18 38/40/18 37/39/18
f 38/40/19 40/101/19 39/41/19
f 40/42/20 42/45/20 41/43/20
f 42/45/21 44/47/21 43/46/21
f 44/47/22 46/49/22 45/48/22
f 46/49/23 48/51/23 47/50/23
f 48/51/24 50/53/24 49/52/24
f 50/53/25 52/55/25 51/54/25
f 52/55/26 54/57/26 53/56/26
f 54/57/27 56/59/27 55/58/27
f 56/59/28 58/102/28 57/60/28
f 58/61/29 60/64/29 59/62/29
f 60/64/30 62/69/30 61/65/30
f 6/103/31 4/104/31 62/105/31
f 4/104/31 2/106/31 62/105/31
f 2/106/31 64/107/31 62/105/31
f 62/105/31 60/108/31 58/109/31
f 58/109/31 56/110/31 62/105/31
f 56/110/31 54/66/31 62/105/31
f 54/66/31 52/111/31 50/112/31
f 50/112/31 48/113/31 46/114/31
f 46/114/31 44/115/31 42/116/31
f 42/116/31 40/117/31 38/67/31
f 38/67/31 36/118/31 34/119/31
f 34/119/31 32/120/31 30/121/31
f 30/121/31 28/122/31 26/123/31
f 26/123/31 24/124/31 22/68/31
f 22/68/31 20/125/31 18/126/31
f 18/126/31 16/127/31 14/128/31
f 14/128/31 12/129/31 10/130/31
f 10/130/31 8/131/31 6/103/31
f 54/66/31 50/112/31 38/67/31
f 50/112/31 46/114/31 38/67/31
f 46/114/31 42/116/31 38/67/31
f 38/67/31 34/119/31 30/121/31
f 30/121/31 26/123/31 38/67/31
f 26/123/31 22/68/31 38/67/31
f 22/68/31 18/126/31 6/103/31
f 18/126/31 14/128/31 6/103/31
f 14/128/31 10/130/31 6/103/31
f 6/103/31 62/105/31 54/66/31
f 6/103/31 54/66/31 22/68/31
f 62/69/32 64/71/32 63/70/32
f 64/71/33 2/1/33 1/3/33
f 63/132/34 1/133/34 3/134/34
f 3/134/34 5/135/34 7/136/34
f 7/136/34 9/137/34 11/138/34
f 11/138/34 13/139/34 15/72/34
f 15/72/34 17/140/34 19/141/34
f 19/141/34 21/142/34 23/143/34
f 23/143/34 25/144/34 27/145/34
f 27/145/34 29/146/34 31/73/34
f 31/73/34 33/147/34 35/148/34
f 35/148/34 37/149/34 39/150/34
f 39/150/34 41/151/34 43/152/34
f 43/152/34 45/153/34 47/74/34
f 47/74/34 49/154/34 51/155/34
f 51/155/34 53/156/34 47/74/34
f 53/156/34 55/157/34 47/74/34
f 55/157/34 57/158/34 59/159/34
f 59/159/34 61/160/34 55/157/34
f 61/160/34 63/132/34 55/157/34
f 63/132/34 3/134/34 15/72/34
f 3/134/34 7/136/34 15/72/34
f 7/136/34 11/138/34 15/72/34
f 15/72/34 19/141/34 23/143/34
f 23/143/34 27/145/34 15/72/34
f 27/145/34 31/73/34 15/72/34
f 31/73/34 35/148/34 47/74/34
f 35/148/34 39/150/34 47/74/34
f 39/150/34 43/152/34 47/74/34
f 47/74/34 55/157/34 63/132/34
f 63/132/34 15/72/34 47/74/34
s 1
f 92/161/35 89/162/36 90/163/36
f 94/164/37 91/165/35 92/166/35
f 96/167/38 93/168/37 94/169/37
f 98/170/39 95/171/38 96/167/38
f 100/172/40 97/173/39 98/174/39
f 102/175/41 99/176/40 100/172/40
f 104/177/42 101/178/41 102/179/41
f 106/180/43 103/181/42 104/182/42
f 108/183/44 105/184/43 106/185/43
f 110/186/45 107/187/44 108/188/44
f 112/189/46 109/190/45 110/191/45
f 90/192/36 111/193/46 112/194/46
f 92/161/35 91/195/35 89/162/36
f 94/164/37 93/196/37 91/165/35
f 96/167/38 95/171/38 93/168/37
f 98/170/39 97/197/39 95/171/38
f 100/172/40 99/176/40 97/173/39
f 102/175/41 101/198/41 99/176/40
f 104/177/42 103/199/42 101/178/41
f 106/180/43 105/200/43 103/181/42
f 108/183/44 107/201/44 105/184/43
f 110/186/45 109/202/45 107/187/44
f 112/189/46 111/203/46 109/190/45
f 90/192/36 89/204/36 111/193/46
