# Blender v3.1.2 OBJ File: 'start.blend'
# www.blender.org
mtllib startButton.mtl
o 円柱_円柱.001
v 0.000000 -0.167377 1.000000
v 0.600000 0.050000 -0.600000
v 0.100000 0.050000 -0.600000
v -0.400000 0.050000 -0.600000
v 0.600000 0.050000 0.600000
v 0.000000 0.167377 1.000000
v 0.400000 0.050000 -0.600000
v 0.100000 0.050000 0.600000
v -0.195090 -0.167377 0.980785
v 0.400000 0.050000 0.600000
v -0.100000 0.050000 -0.600000
v -0.400000 0.050000 0.600000
v -0.195090 0.167377 0.980785
v -0.382683 -0.167377 0.923880
v -0.100000 0.050000 0.600000
v -0.600000 0.050000 -0.600000
v -0.382683 0.167377 0.923880
v -0.600000 0.050000 0.600000
v -0.555570 -0.167377 0.831470
v -0.555570 0.167377 0.831470
v -0.707107 -0.167377 0.707107
v -0.707107 0.167377 0.707107
v -0.831470 -0.167377 0.555570
v -0.831470 0.167377 0.555570
v -0.923880 -0.167377 0.382683
v -0.923880 0.167377 0.382683
v -0.980785 -0.167377 0.195090
v -0.980785 0.167377 0.195090
v -1.000000 -0.167377 -0.000000
v -1.000000 0.167377 -0.000000
v -0.980785 -0.167377 -0.195090
v -0.980785 0.167377 -0.195090
v -0.923880 -0.167377 -0.382683
v -0.923880 0.167377 -0.382683
v -0.831470 -0.167377 -0.555570
v -0.831470 0.167377 -0.555570
v -0.707107 -0.167377 -0.707107
v -0.707107 0.167377 -0.707107
v -0.555570 -0.167377 -0.831470
v -0.555570 0.167377 -0.831470
v -0.382683 -0.167377 -0.923880
v -0.382683 0.167377 -0.923880
v -0.195090 -0.167377 -0.980785
v -0.195090 0.167377 -0.980785
v 0.000000 -0.167377 -1.000000
v 0.000000 0.167377 -1.000000
v 0.195090 -0.167377 -0.980785
v 0.195090 0.167377 -0.980785
v 0.382683 -0.167377 -0.923880
v 0.382683 0.167377 -0.923880
v 0.555570 -0.167377 -0.831470
v 0.555570 0.167377 -0.831470
v 0.707107 -0.167377 -0.707107
v 0.707107 0.167377 -0.707107
v 0.831469 -0.167377 -0.555570
v 0.831469 0.167377 -0.555570
v 0.923880 -0.167377 -0.382684
v 0.923880 0.167377 -0.382684
v 0.980785 -0.167377 -0.195090
v 0.980785 0.167377 -0.195090
v 1.000000 -0.167377 0.000000
v 1.000000 0.167377 0.000000
v 0.980785 -0.167377 0.195090
v 0.980785 0.167377 0.195090
v 0.923879 -0.167377 0.382684
v 0.923879 0.167377 0.382684
v 0.831470 -0.167377 0.555570
v 0.831470 0.167377 0.555570
v 0.707107 -0.167377 0.707107
v 0.707107 0.167377 0.707107
v 0.555570 -0.167377 0.831470
v 0.555570 0.167377 0.831470
v 0.382683 -0.167377 0.923880
v 0.382683 0.167377 0.923880
v 0.195090 -0.167377 0.980785
v 0.195090 0.167377 0.980785
v -0.400000 0.167377 -0.600000
v -0.600000 0.167377 -0.600000
v -0.600000 0.167377 0.399231
v -0.600000 0.167377 0.600000
v -0.400000 0.167377 0.600000
v -0.100000 0.167377 -0.600000
v 0.100000 0.167377 -0.600000
v 0.017377 0.167377 -0.600000
v -0.100000 0.167377 0.600000
v 0.100000 0.167377 0.600000
v 0.600000 0.167377 -0.600000
v 0.400000 0.167377 -0.600000
v 0.600000 0.167377 0.600000
v 0.400000 0.167377 0.600000
v 0.100000 0.050000 -0.600000
v 0.100000 0.250000 -0.600000
v 0.100000 0.050000 0.600000
v 0.100000 0.250000 0.600000
v -0.100000 0.050000 -0.600000
v -0.100000 0.250000 -0.600000
v -0.100000 0.050000 0.600000
v -0.100000 0.250000 0.600000
v 0.600000 0.050000 -0.600000
v 0.600000 0.250000 -0.600000
v 0.600000 0.050000 0.600000
v 0.600000 0.250000 0.600000
v 0.400000 0.050000 -0.600000
v 0.400000 0.250000 -0.600000
v 0.400000 0.050000 0.600000
v 0.400000 0.250000 0.600000
v -0.400000 0.050000 -0.600000
v -0.400000 0.250000 -0.600000
v -0.400000 0.050000 0.600000
v -0.400000 0.250000 0.600000
v -0.600000 0.050000 -0.600000
v -0.600000 0.250000 -0.600000
v -0.600000 0.050000 0.600000
v -0.600000 0.250000 0.600000
vt 0.421481 0.312500
vt 0.390998 0.000000
vt 0.421481 0.000000
vt 0.390998 0.312500
vt 0.361686 0.000000
vt 0.361686 0.312500
vt 0.334673 0.000000
vt 0.334673 0.312500
vt 0.310995 0.000000
vt 0.752937 0.312500
vt 0.729259 0.000000
vt 0.752937 0.000000
vt 0.729259 0.312500
vt 0.702246 0.000000
vt 0.702246 0.312500
vt 0.672934 0.000000
vt 0.672934 0.312500
vt 0.642452 0.000000
vt 0.642452 0.312500
vt 0.611969 0.000000
vt 0.611969 0.312500
vt 0.582657 0.000000
vt 0.582657 0.312500
vt 0.555644 0.000000
vt 0.555644 0.312500
vt 0.531966 0.000000
vt 0.752726 0.625000
vt 0.728223 0.312500
vt 0.752726 0.312500
vt 0.728223 0.625000
vt 0.700605 0.312500
vt 0.700604 0.625000
vt 0.670933 0.312500
vt 0.670933 0.625000
vt 0.640348 0.312500
vt 0.640348 0.625000
vt 0.610025 0.312500
vt 0.610025 0.625000
vt 0.581130 0.312500
vt 0.581130 0.625000
vt 0.554773 0.312500
vt 0.554773 0.625000
vt 0.531966 0.312500
vt 0.531966 0.625000
vt 0.508288 0.312500
vt 0.508288 0.625000
vt 0.481275 0.312500
vt 0.481275 0.625000
vt 0.451963 0.312500
vt 0.451963 0.625000
vt 0.421481 0.312500
vt 0.421481 0.625000
vt 0.390998 0.312500
vt 0.390998 0.625000
vt 0.361686 0.312500
vt 0.361686 0.625000
vt 0.334673 0.312500
vt 0.334673 0.625000
vt 0.310995 0.312500
vt 0.531966 0.312500
vt 0.508289 0.000000
vt 0.531966 0.000000
vt 0.508289 0.312500
vt 0.481275 0.000000
vt 0.170813 0.310995
vt 0.140182 0.310995
vt 0.123018 0.263319
vt 0.227068 0.068475
vt 0.276280 0.056374
vt 0.240675 0.113331
vt 0.200855 0.005976
vt 0.229153 0.017697
vt 0.217997 0.038570
vt 0.083927 0.242521
vt 0.070320 0.197664
vt 0.249746 0.143236
vt 0.481275 0.312500
vt 0.451964 0.000000
vt 0.451963 0.312500
vt 0.056374 0.345710
vt 0.276280 0.367369
vt 0.254622 0.587276
vt 0.296278 0.621990
vt 0.186704 0.809490
vt 0.186704 0.621990
vt 0.784187 0.187500
vt 0.815407 0.297074
vt 0.784187 0.297074
vt 0.219148 0.996990
vt 0.109574 0.840861
vt 0.219148 0.809490
vt 0.815226 0.500000
vt 0.783976 0.609574
vt 0.783976 0.500000
vt 0.281648 0.996991
vt 0.250398 0.809491
vt 0.281648 0.809491
vt 0.530143 0.812500
vt 0.420569 1.000000
vt 0.420569 0.812500
vt 0.815226 0.500000
vt 0.846447 0.609574
vt 0.815226 0.609574
vt 0.980681 0.812500
vt 0.871107 0.625000
vt 0.980681 0.625000
vt 0.784187 0.187500
vt 0.784187 0.297074
vt 0.771277 0.297074
vt 0.686393 1.000000
vt 0.655143 0.812500
vt 0.686393 0.812500
vt 0.420569 0.812500
vt 0.310995 1.000000
vt 0.310995 0.812500
vt 0.815407 0.187500
vt 0.846628 0.297074
vt 0.815407 0.297074
vt 0.109574 0.996990
vt 0.000000 0.809490
vt 0.109574 0.809490
vt 0.783976 0.500000
vt 0.752726 0.609574
vt 0.752726 0.500000
vt 0.970891 0.187500
vt 0.939641 0.000000
vt 0.970891 0.000000
vt 0.310995 0.812500
vt 0.497699 0.625000
vt 0.497699 0.812500
vt 0.780143 0.999204
vt 0.748893 0.812500
vt 0.780143 0.812500
vt 0.752937 0.187500
vt 0.939641 0.000000
vt 0.939641 0.187500
vt 0.842584 0.999204
vt 0.811364 0.812500
vt 0.842584 0.812500
vt 0.623893 0.812500
vt 0.592643 1.000000
vt 0.592643 0.812500
vt 0.655143 0.812500
vt 0.623893 1.000000
vt 0.623893 0.812500
vt 0.000000 0.809490
vt 0.186704 0.621990
vt 0.186704 0.809490
vt 0.717643 0.999204
vt 0.686393 0.812500
vt 0.717643 0.812500
vt 0.497699 0.812500
vt 0.684403 0.625000
vt 0.684403 0.812500
vt 0.873804 0.999204
vt 0.842584 0.812500
vt 0.873804 0.812500
vt 0.592643 0.812500
vt 0.561393 1.000000
vt 0.561393 0.812500
vt 0.561393 0.812500
vt 0.530143 1.000000
vt 0.530143 0.812500
vt 0.752726 0.500000
vt 0.939430 0.312500
vt 0.939430 0.500000
vt 0.748893 0.999204
vt 0.717643 0.812500
vt 0.748893 0.812500
vt 0.684403 0.812500
vt 0.871107 0.625000
vt 0.871107 0.812500
vt 0.811364 0.999204
vt 0.780143 0.812500
vt 0.811364 0.812500
vt 0.250398 0.809490
vt 0.219148 0.996990
vt 0.219148 0.809490
vt 0.970680 0.312500
vt 0.939430 0.500000
vt 0.939430 0.312500
vt 0.310995 0.312500
vt 0.531966 0.312500
vt 0.310995 0.625000
vt 0.272425 0.217997
vt 0.263354 0.188092
vt 0.305019 0.200855
vt 0.310995 0.170813
vt 0.293298 0.229153
vt 0.276281 0.254622
vt 0.254622 0.276280
vt 0.229153 0.293298
vt 0.200855 0.305019
vt 0.110141 0.305019
vt 0.081842 0.293298
vt 0.092999 0.272425
vt 0.056374 0.276281
vt 0.034715 0.254622
vt 0.017697 0.229153
vt 0.005976 0.200855
vt 0.000000 0.170813
vt 0.061249 0.167760
vt 0.000000 0.140182
vt 0.005976 0.110141
vt 0.047642 0.122903
vt 0.017697 0.081842
vt 0.038570 0.092999
vt 0.305019 0.110141
vt 0.244423 0.125685
vt 0.254622 0.034715
vt 0.293298 0.081842
vt 0.034715 0.056374
vt 0.056374 0.034715
vt 0.081842 0.017697
vt 0.110141 0.005976
vt 0.140182 0.000000
vt 0.170813 0.000000
vt 0.310995 0.140182
vt 0.034715 0.565617
vt 0.017697 0.540149
vt 0.005976 0.511850
vt 0.000000 0.481808
vt 0.000000 0.451178
vt 0.005976 0.421136
vt 0.017697 0.392837
vt 0.034715 0.367369
vt 0.081842 0.328693
vt 0.110141 0.316971
vt 0.140182 0.310995
vt 0.170813 0.310995
vt 0.200855 0.316971
vt 0.229153 0.328693
vt 0.254622 0.345710
vt 0.293298 0.392837
vt 0.305020 0.421136
vt 0.310995 0.451178
vt 0.310995 0.481808
vt 0.305020 0.511850
vt 0.293298 0.540149
vt 0.276280 0.565617
vt 0.229153 0.604293
vt 0.140182 0.621990
vt 0.200855 0.616015
vt 0.170813 0.621990
vt 0.110141 0.616015
vt 0.081842 0.604293
vt 0.056374 0.587276
vt 0.296278 0.809490
vt 0.815407 0.187500
vt 0.109574 0.996990
vt 0.109574 0.809490
vt 0.815226 0.609574
vt 0.250398 0.996991
vt 0.530143 1.000000
vt 0.846447 0.500000
vt 0.871107 0.812500
vt 0.752937 0.297074
vt 0.752937 0.187500
vt 0.655143 1.000000
vt 0.420569 1.000000
vt 0.846628 0.187500
vt 0.000000 0.996990
vt 0.783976 0.609574
vt 0.939641 0.187500
vt 0.310995 0.625000
vt 0.748893 0.999204
vt 0.752937 0.000000
vt 0.811364 0.999204
vt 0.623893 1.000000
vt 0.655143 1.000000
vt 0.000000 0.621990
vt 0.686393 0.999204
vt 0.497699 0.625000
vt 0.842584 0.999204
vt 0.592643 1.000000
vt 0.561393 1.000000
vt 0.752726 0.312500
vt 0.717643 0.999204
vt 0.684403 0.625000
vt 0.780143 0.999204
vt 0.250398 0.996990
vt 0.970680 0.500000
vn -0.0980 0.0000 0.9952
vn -0.2903 0.0000 0.9569
vn -0.4714 0.0000 0.8819
vn -0.6344 0.0000 0.7730
vn -0.7730 0.0000 0.6344
vn -0.8819 0.0000 0.4714
vn -0.9569 0.0000 0.2903
vn -0.9952 0.0000 0.0980
vn -0.9952 0.0000 -0.0980
vn -0.9569 0.0000 -0.2903
vn -0.8819 0.0000 -0.4714
vn -0.7730 0.0000 -0.6344
vn -0.6344 0.0000 -0.7730
vn -0.4714 0.0000 -0.8819
vn -0.2903 0.0000 -0.9569
vn -0.0980 0.0000 -0.9952
vn 0.0980 0.0000 -0.9952
vn 0.2903 0.0000 -0.9569
vn 0.4714 0.0000 -0.8819
vn 0.6344 0.0000 -0.7730
vn 0.7730 0.0000 -0.6344
vn 0.8819 0.0000 -0.4714
vn 0.9569 0.0000 -0.2903
vn 0.9952 0.0000 -0.0980
vn 0.9952 0.0000 0.0980
vn 0.9569 0.0000 0.2903
vn 0.8819 0.0000 0.4714
vn 0.7730 0.0000 0.6344
vn 0.6344 0.0000 0.7730
vn 0.4714 0.0000 0.8819
vn 0.0000 1.0000 0.0000
vn 0.2903 0.0000 0.9569
vn 0.0980 0.0000 0.9952
vn 0.0000 -1.0000 0.0000
vn -1.0000 0.0000 0.0000
vn 0.0000 0.0000 -1.0000
vn 1.0000 0.0000 0.0000
vn 0.0000 0.0000 1.0000
usemtl マテリアル.003
s off
f 6/1/1 9/2/1 1/3/1
f 13/4/2 14/5/2 9/2/2
f 17/6/3 19/7/3 14/5/3
f 20/8/4 21/9/4 19/7/4
f 22/10/5 23/11/5 21/12/5
f 24/13/6 25/14/6 23/11/6
f 26/15/7 27/16/7 25/14/7
f 28/17/8 29/18/8 27/16/8
f 30/19/9 31/20/9 29/18/9
f 32/21/10 33/22/10 31/20/10
f 34/23/11 35/24/11 33/22/11
f 36/25/12 37/26/12 35/24/12
f 38/27/13 39/28/13 37/29/13
f 40/30/14 41/31/14 39/28/14
f 42/32/15 43/33/15 41/31/15
f 44/34/16 45/35/16 43/33/16
f 46/36/17 47/37/17 45/35/17
f 48/38/18 49/39/18 47/37/18
f 50/40/19 51/41/19 49/39/19
f 52/42/20 53/43/20 51/41/20
f 54/44/21 55/45/21 53/43/21
f 56/46/22 57/47/22 55/45/22
f 58/48/23 59/49/23 57/47/23
f 60/50/24 61/51/24 59/49/24
f 62/52/25 63/53/25 61/51/25
f 64/54/26 65/55/26 63/53/26
f 66/56/27 67/57/27 65/55/27
f 68/58/28 69/59/28 67/57/28
f 70/60/29 71/61/29 69/62/29
f 72/63/30 73/64/30 71/61/30
f 28/65/31 26/66/31 79/67/31
f 88/68/31 50/69/31 83/70/31
f 56/71/31 54/72/31 87/73/31
f 81/74/31 85/75/31 82/76/31
f 74/77/32 75/78/32 73/64/32
f 76/79/33 1/3/33 75/78/33
f 25/80/34 41/81/34 57/82/34
f 4/83/35 81/84/35 77/85/35
f 12/86/36 80/87/36 81/88/36
f 16/89/37 79/90/37 18/91/37
f 4/92/38 78/93/38 16/94/38
f 4/95/31 18/96/31 12/97/31
f 3/98/35 86/99/35 83/100/35
f 8/101/36 85/102/36 86/103/36
f 11/104/37 85/105/37 15/106/37
f 3/107/38 83/108/38 84/109/38
f 3/110/31 15/111/31 8/112/31
f 2/113/35 89/114/35 87/115/35
f 5/116/36 90/117/36 89/118/36
f 7/119/37 90/120/37 10/121/37
f 2/122/38 88/123/38 7/124/38
f 2/125/31 10/126/31 5/127/31
f 92/128/37 93/129/37 91/130/37
f 94/131/38 97/132/38 93/133/38
f 98/134/35 95/135/35 97/136/35
f 96/137/36 91/138/36 95/139/36
f 97/140/34 91/141/34 93/142/34
f 94/143/31 96/144/31 98/145/31
f 100/146/37 101/147/37 99/148/37
f 102/149/38 105/150/38 101/151/38
f 106/152/35 103/153/35 105/154/35
f 104/155/36 99/156/36 103/157/36
f 105/158/34 99/159/34 101/160/34
f 102/161/31 104/162/31 106/163/31
f 108/164/37 109/165/37 107/166/37
f 110/167/38 113/168/38 109/169/38
f 114/170/35 111/171/35 113/172/35
f 112/173/36 107/174/36 111/175/36
f 113/176/34 107/177/34 109/178/34
f 110/179/31 112/180/31 114/181/31
f 6/1/1 13/4/1 9/2/1
f 13/4/2 17/6/2 14/5/2
f 17/6/3 20/8/3 19/7/3
f 20/8/4 22/182/4 21/9/4
f 22/10/5 24/13/5 23/11/5
f 24/13/6 26/15/6 25/14/6
f 26/15/7 28/17/7 27/16/7
f 28/17/8 30/19/8 29/18/8
f 30/19/9 32/21/9 31/20/9
f 32/21/10 34/23/10 33/22/10
f 34/23/11 36/25/11 35/24/11
f 36/25/12 38/183/12 37/26/12
f 38/27/13 40/30/13 39/28/13
f 40/30/14 42/32/14 41/31/14
f 42/32/15 44/34/15 43/33/15
f 44/34/16 46/36/16 45/35/16
f 46/36/17 48/38/17 47/37/17
f 48/38/18 50/40/18 49/39/18
f 50/40/19 52/42/19 51/41/19
f 52/42/20 54/44/20 53/43/20
f 54/44/21 56/46/21 55/45/21
f 56/46/22 58/48/22 57/47/22
f 58/48/23 60/50/23 59/49/23
f 60/50/24 62/52/24 61/51/24
f 62/52/25 64/54/25 63/53/25
f 64/54/26 66/56/26 65/55/26
f 66/56/27 68/58/27 67/57/27
f 68/58/28 70/184/28 69/59/28
f 70/60/29 72/63/29 71/61/29
f 72/63/30 74/77/30 73/64/30
f 78/185/31 77/186/31 40/187/31
f 77/186/31 42/188/31 40/187/31
f 40/187/31 38/189/31 78/185/31
f 38/189/31 36/190/31 78/185/31
f 36/190/31 34/191/31 78/185/31
f 34/191/31 32/192/31 78/185/31
f 32/192/31 30/193/31 79/67/31
f 78/185/31 32/192/31 79/67/31
f 30/193/31 28/65/31 79/67/31
f 79/67/31 26/66/31 24/194/31
f 24/194/31 22/195/31 80/196/31
f 22/195/31 20/197/31 80/196/31
f 20/197/31 17/198/31 81/74/31
f 17/198/31 13/199/31 85/75/31
f 81/74/31 17/198/31 85/75/31
f 13/199/31 6/200/31 85/75/31
f 6/200/31 76/201/31 86/202/31
f 85/75/31 6/200/31 86/202/31
f 76/201/31 74/203/31 86/202/31
f 74/203/31 72/204/31 90/205/31
f 86/202/31 74/203/31 90/205/31
f 72/204/31 70/206/31 89/207/31
f 72/204/31 89/207/31 90/205/31
f 80/196/31 20/197/31 81/74/31
f 80/196/31 79/67/31 24/194/31
f 46/208/31 84/209/31 83/70/31
f 88/68/31 87/73/31 52/210/31
f 87/73/31 54/72/31 52/210/31
f 86/202/31 90/205/31 88/68/31
f 48/211/31 46/208/31 83/70/31
f 83/70/31 86/202/31 88/68/31
f 52/210/31 50/69/31 88/68/31
f 50/69/31 48/211/31 83/70/31
f 89/207/31 70/206/31 68/212/31
f 68/212/31 66/213/31 89/207/31
f 66/213/31 64/214/31 89/207/31
f 64/214/31 62/215/31 89/207/31
f 62/215/31 60/216/31 87/73/31
f 89/207/31 62/215/31 87/73/31
f 60/216/31 58/217/31 87/73/31
f 58/217/31 56/71/31 87/73/31
f 82/76/31 84/209/31 46/208/31
f 46/208/31 44/218/31 82/76/31
f 44/218/31 42/188/31 82/76/31
f 42/188/31 77/186/31 82/76/31
f 77/186/31 81/74/31 82/76/31
f 74/77/32 76/79/32 75/78/32
f 76/79/33 6/1/33 1/3/33
f 73/219/34 75/220/34 1/221/34
f 1/221/34 9/222/34 14/223/34
f 14/223/34 19/224/34 25/80/34
f 19/224/34 21/225/34 25/80/34
f 21/225/34 23/226/34 25/80/34
f 25/80/34 27/227/34 29/228/34
f 29/228/34 31/229/34 25/80/34
f 31/229/34 33/230/34 25/80/34
f 33/230/34 35/231/34 37/232/34
f 37/232/34 39/233/34 41/81/34
f 41/81/34 43/234/34 45/235/34
f 45/235/34 47/236/34 49/237/34
f 49/237/34 51/238/34 53/239/34
f 53/239/34 55/240/34 57/82/34
f 57/82/34 59/241/34 65/242/34
f 59/241/34 61/243/34 65/242/34
f 61/243/34 63/244/34 65/242/34
f 65/242/34 67/245/34 69/246/34
f 69/246/34 71/247/34 73/219/34
f 73/219/34 1/221/34 25/80/34
f 1/221/34 14/223/34 25/80/34
f 33/230/34 37/232/34 41/81/34
f 41/81/34 45/235/34 49/237/34
f 49/237/34 53/239/34 57/82/34
f 65/242/34 69/246/34 57/82/34
f 69/246/34 73/219/34 57/82/34
f 25/80/34 33/230/34 41/81/34
f 41/81/34 49/237/34 57/82/34
f 73/219/34 25/80/34 57/82/34
f 4/83/35 12/248/35 81/84/35
f 12/86/36 18/249/36 80/87/36
f 78/250/37 79/90/37 16/89/37
f 79/90/37 80/251/37 18/91/37
f 4/92/38 77/252/38 78/93/38
f 4/95/31 16/253/31 18/96/31
f 3/98/35 8/254/35 86/99/35
f 8/101/36 15/255/36 85/102/36
f 11/104/37 82/256/37 85/105/37
f 84/109/38 82/257/38 11/258/38
f 11/258/38 3/107/38 84/109/38
f 3/110/31 11/259/31 15/111/31
f 2/113/35 5/260/35 89/114/35
f 5/116/36 10/261/36 90/117/36
f 7/119/37 88/262/37 90/120/37
f 2/122/38 87/263/38 88/123/38
f 2/125/31 7/264/31 10/126/31
f 92/128/37 94/265/37 93/129/37
f 94/131/38 98/266/38 97/132/38
f 98/134/35 96/267/35 95/135/35
f 96/137/36 92/268/36 91/138/36
f 97/140/34 95/269/34 91/141/34
f 94/143/31 92/270/31 96/144/31
f 100/146/37 102/271/37 101/147/37
f 102/149/38 106/272/38 105/150/38
f 106/152/35 104/273/35 103/153/35
f 104/155/36 100/274/36 99/156/36
f 105/158/34 103/275/34 99/159/34
f 102/161/31 100/276/31 104/162/31
f 108/164/37 110/277/37 109/165/37
f 110/167/38 114/278/38 113/168/38
f 114/170/35 112/279/35 111/171/35
f 112/173/36 108/280/36 107/174/36
f 113/176/34 111/281/34 107/177/34
f 110/179/31 108/282/31 112/180/31
